<?xml version="1.0" standalone="no"?>
<!DOCTYPE svg PUBLIC "-//W3C//DTD SVG 20010904//EN"
 "http://www.w3.org/TR/2001/REC-SVG-20010904/DTD/svg10.dtd">
<svg version="1.0" xmlns="http://www.w3.org/2000/svg"
 width="512.000000pt" height="512.000000pt" viewBox="0 0 512.000000 512.000000"
 preserveAspectRatio="xMidYMid meet">

<g transform="translate(0.000000,512.000000) scale(0.100000,-0.100000)"
fill="#000000" stroke="none">
<path d="M2464 5036 c-75 -14 -157 -46 -169 -65 -4 -7 -30 -22 -58 -35 -62
-28 -184 -144 -224 -214 -15 -26 -35 -58 -45 -71 -10 -13 -18 -32 -18 -42 0
-12 -21 -29 -62 -51 -100 -52 -91 -90 31 -129 68 -22 69 -23 64 -54 -7 -45 12
-105 45 -142 23 -24 31 -45 36 -92 14 -122 45 -185 147 -296 20 -22 28 -42 30
-77 3 -47 3 -48 -46 -79 -28 -17 -62 -42 -76 -56 -25 -23 -269 -113 -308 -113
-9 0 -25 -6 -36 -13 -11 -8 -51 -22 -90 -31 -75 -19 -146 -57 -208 -112 -20
-19 -40 -34 -45 -34 -4 0 -29 43 -55 94 -43 85 -53 97 -92 116 -102 50 -302
32 -451 -40 -115 -55 -162 -118 -135 -177 7 -14 78 -111 159 -215 81 -104 153
-198 161 -208 12 -17 9 -25 -30 -71 -24 -28 -79 -85 -121 -127 -92 -88 -108
-124 -91 -205 18 -85 58 -167 82 -167 12 0 21 2 21 4 0 2 -14 34 -32 72 -39
84 -47 156 -21 200 10 18 64 81 121 140 l103 109 19 -25 19 -25 -51 -52 c-57
-58 -54 -44 -48 -229 3 -83 1 -116 -9 -128 -18 -21 -24 -20 -60 10 l-31 26 0
-29 c0 -55 10 -69 52 -80 37 -10 45 -9 71 10 23 18 46 23 113 26 46 1 84 6 84
10 0 3 -16 17 -35 30 -19 13 -35 27 -35 32 0 4 -18 29 -40 54 -22 25 -40 55
-40 65 0 11 -8 41 -19 67 -12 30 -16 56 -11 69 8 22 75 84 90 84 15 0 21 -18
8 -26 -26 -16 34 -23 224 -23 167 -1 199 -3 213 -17 9 -9 14 -21 12 -28 -5
-16 -199 -54 -282 -55 -38 0 -97 6 -130 14 -95 23 -106 17 -61 -32 22 -23 34
-27 105 -31 94 -5 287 20 373 50 32 11 76 18 100 16 36 -2 44 -7 46 -26 2 -12
0 -22 -5 -21 -4 1 -15 0 -23 -4 -70 -27 -192 -68 -223 -74 -51 -11 -294 2
-311 16 -11 9 -15 6 -18 -18 -4 -27 0 -31 44 -52 45 -21 61 -43 37 -51 -6 -2
-7 -11 -3 -22 7 -17 15 -18 103 -12 66 4 107 2 131 -7 33 -11 25 -12 -80 -12
-202 -1 -325 -14 -363 -39 -23 -16 -39 -20 -52 -15 -30 11 -261 10 -334 -2
-100 -16 -203 -63 -250 -114 -22 -24 -43 -56 -47 -72 -10 -47 -12 -49 -13 -15
-1 18 6 47 15 64 9 18 11 27 4 23 -7 -4 -19 -24 -27 -44 -24 -55 -32 -655 -10
-697 10 -20 49 -48 127 -93 l112 -64 72 7 c39 4 82 8 95 9 14 1 29 -6 39 -21
15 -22 13 -25 -41 -76 -32 -29 -57 -59 -57 -68 0 -20 28 -43 151 -126 124 -84
142 -87 237 -42 l63 30 77 -48 c42 -26 78 -56 80 -65 2 -10 -14 -37 -37 -62
-70 -76 -65 -84 107 -166 177 -85 198 -88 274 -36 94 65 99 64 379 -56 274
-118 545 -227 565 -227 19 0 316 119 584 235 204 88 229 96 270 91 28 -4 58
-17 83 -37 74 -60 89 -59 255 17 134 60 182 91 182 115 0 4 -20 31 -46 60 -25
28 -44 58 -42 66 2 9 38 37 80 64 l78 48 65 -30 c97 -44 113 -41 239 46 171
117 173 121 101 179 -61 51 -72 73 -49 97 18 17 26 17 110 7 l90 -12 115 58
c63 32 120 65 127 74 18 23 18 811 0 835 -11 14 -13 -4 -12 -100 0 -113 0
-113 -3 -17 -5 139 -9 142 -180 160 -70 8 -155 13 -188 12 -33 -1 -66 1 -72 5
-23 15 -283 28 -324 17 -32 -9 -51 -7 -104 9 -100 31 -214 42 -301 30 -54 -7
-85 -7 -109 1 -20 7 -111 12 -212 13 -163 1 -183 -1 -238 -22 -101 -38 -101
-38 -144 8 l-38 41 -196 0 c-126 0 -205 -4 -221 -11 -20 -9 -29 -9 -41 1 -12
10 -54 11 -193 6 -152 -7 -182 -11 -214 -28 -35 -20 -38 -20 -64 -4 -14 10
-47 22 -73 26 l-46 8 40 1 c23 0 56 -7 75 -18 34 -19 36 -19 67 0 27 17 58 21
210 26 117 4 186 2 198 -4 11 -7 29 -7 44 -2 39 12 378 18 418 7 21 -6 42 -22
56 -43 12 -19 27 -35 33 -35 5 0 30 10 55 22 24 13 60 27 79 33 l35 11 -55 21
c-83 32 -172 74 -167 80 3 2 67 -17 144 -42 125 -43 153 -49 303 -62 91 -8
177 -14 193 -14 235 5 254 4 330 -16 75 -20 81 -21 123 -5 45 17 64 46 64 99
0 13 4 22 9 18 15 -9 24 120 17 232 -3 57 -4 103 -1 103 2 0 13 -30 25 -66 28
-93 29 -289 0 -353 -25 -54 -25 -53 2 -49 41 6 53 49 56 216 3 143 5 156 28
189 31 47 30 69 -5 126 -77 120 -112 196 -130 285 -24 111 -62 188 -132 268
-30 34 -70 83 -89 110 -19 26 -49 56 -67 67 -18 10 -100 35 -182 56 -83 21
-153 40 -156 43 -7 7 168 98 187 98 8 0 36 14 63 31 28 17 66 34 86 36 30 4
40 1 63 -23 18 -20 26 -40 26 -65 0 -51 31 -63 157 -57 74 3 111 10 151 27 47
21 112 79 112 100 0 5 -20 22 -44 37 -24 16 -69 59 -101 97 -106 124 -226 198
-385 236 -147 36 -224 51 -253 51 -67 0 -137 -67 -137 -131 0 -49 22 -95 50
-102 11 -3 37 -3 57 0 21 2 48 1 61 -4 22 -8 21 -10 -26 -41 -27 -17 -125 -69
-218 -115 l-169 -82 -49 23 -48 23 6 42 c12 72 54 154 87 167 37 16 149 135
149 159 0 44 30 91 69 107 59 23 81 93 41 129 -11 10 -20 31 -20 46 0 48 -21
132 -48 189 -34 73 -147 184 -232 229 -36 18 -87 47 -113 64 -27 16 -74 36
-105 44 -84 20 -302 25 -388 9z m386 -34 c22 -9 18 -11 -33 -11 -65 -1 -99
-15 -138 -58 -44 -48 -62 -82 -88 -174 l-26 -89 -168 -5 c-93 -2 -173 -8 -179
-11 -15 -9 -3 82 19 155 19 62 66 136 103 163 47 35 143 48 320 44 91 -2 176
-8 190 -14z m-79 -48 c-19 -8 -36 -12 -39 -9 -6 6 37 24 58 24 8 0 0 -6 -19
-15z m186 -12 c10 -5 49 -24 87 -42 129 -63 228 -182 254 -305 15 -70 20 -105
15 -105 -25 0 -41 26 -47 73 -12 94 -77 208 -146 257 l-29 21 33 -55 c37 -62
52 -126 36 -156 -8 -15 -21 -20 -54 -20 -65 0 -101 16 -117 53 -13 30 -20 33
-94 48 -44 9 -88 14 -99 11 -10 -3 -27 -20 -38 -38 -21 -35 -46 -47 -33 -16 4
9 16 41 28 71 27 69 105 155 160 175 l42 16 -39 -5 c-74 -8 -164 -105 -194
-206 l-17 -59 -43 0 c-49 0 -48 -6 -10 97 49 132 143 210 240 199 25 -3 55 -9
65 -14z m-733 -97 c-13 -36 -27 -93 -31 -127 -7 -56 -10 -62 -35 -69 -27 -7
-28 -6 -28 30 0 68 36 173 69 203 17 16 35 28 40 28 5 0 -2 -29 -15 -65z m447
9 c-17 -26 -31 -44 -31 -39 0 13 51 97 56 92 3 -3 -9 -26 -25 -53z m-555 -116
c-6 -40 -12 -65 -14 -55 -2 11 -12 17 -30 16 -17 -1 -21 -3 -9 -6 18 -5 22
-29 9 -50 -4 -7 -26 -19 -49 -27 l-41 -15 10 30 c5 16 19 34 30 40 11 6 17 13
14 16 -10 10 65 123 83 123 4 0 2 -33 -3 -72z m789 -41 c49 -12 50 -13 53 -53
l3 -41 -93 19 c-51 11 -94 20 -95 22 -2 2 2 17 8 34 12 36 34 39 124 19z
m-181 -72 c55 -8 136 -23 178 -34 49 -11 80 -15 87 -8 11 11 103 -18 225 -70
113 -48 136 -67 136 -109 l0 -36 -24 29 c-14 16 -43 38 -65 48 -23 10 -41 22
-41 27 0 15 -90 50 -113 44 -12 -3 -73 6 -137 20 -278 60 -523 82 -727 65
-193 -17 -383 -72 -375 -109 1 -8 -2 -11 -8 -7 -16 10 -12 23 14 40 44 29 220
86 306 100 120 18 419 19 544 0z m-4 -117 l55 -14 -154 -7 c-217 -10 -459 -9
-466 2 -5 8 23 20 80 35 43 10 430 -2 485 -16z m-67 -45 c-13 -2 -33 -2 -45 0
-13 2 -3 4 22 4 25 0 35 -2 23 -4z m-530 -10 c-7 -2 -21 -2 -30 0 -10 3 -4 5
12 5 17 0 24 -2 18 -5z m185 0 c-10 -2 -28 -2 -40 0 -13 2 -5 4 17 4 22 1 32
-1 23 -4z m465 0 c-7 -2 -21 -2 -30 0 -10 3 -4 5 12 5 17 0 24 -2 18 -5z m122
-3 c3 -6 -1 -7 -9 -4 -18 7 -21 14 -7 14 6 0 13 -4 16 -10z m-848 -23 c-12
-13 -24 -22 -26 -20 -6 4 30 43 40 43 5 0 -2 -10 -14 -23z m742 1 c36 -9 40
-13 26 -21 -10 -5 -37 -7 -60 -4 -45 7 -167 -14 -188 -31 -7 -6 -26 -12 -42
-14 -26 -3 -30 1 -33 22 -3 37 11 53 60 61 51 9 176 2 237 -13z m34 15 c-7 -2
-19 -2 -25 0 -7 3 -2 5 12 5 14 0 19 -2 13 -5z m-545 -9 c17 -5 -3 -15 -80
-41 -57 -19 -113 -41 -126 -49 -20 -13 -23 -13 -29 2 -9 25 10 67 37 81 26 13
157 17 198 7z m130 -24 c41 0 72 -19 72 -45 0 -23 60 -84 104 -108 34 -18 58
-22 138 -22 93 0 99 1 124 27 21 21 28 39 32 81 4 47 1 57 -19 77 l-24 24 25
-16 c32 -20 41 -58 27 -115 -17 -69 -57 -93 -151 -93 -39 0 -87 5 -106 10 -60
17 -127 66 -150 109 -40 79 -95 80 -135 1 -29 -58 -84 -99 -141 -105 -34 -4
-35 -4 -9 4 51 13 93 40 119 74 33 43 43 91 25 114 -13 17 -13 17 7 1 12 -11
37 -18 62 -18z m72 20 c-20 -13 -97 -13 -105 0 -4 6 17 10 57 10 44 0 59 -3
48 -10z m-32 -88 c29 -85 126 -141 257 -149 112 -8 164 11 199 70 l25 41 15
-36 c12 -28 22 -37 46 -40 28 -4 33 -1 51 34 21 41 80 77 127 78 38 0 62 -34
62 -87 0 -46 -2 -50 -72 -115 -58 -55 -78 -68 -104 -68 -22 0 -38 7 -47 21
-15 20 -17 18 -54 -52 -23 -45 -50 -82 -70 -95 -17 -12 -94 -45 -170 -74 -133
-52 -142 -54 -253 -57 -164 -6 -188 3 -267 100 -66 81 -86 129 -98 237 l-7 55
49 -3 c30 -2 71 4 106 16 31 10 57 15 57 11 0 -4 -4 -11 -10 -14 -21 -13 -10
-51 20 -68 16 -10 35 -27 40 -38 14 -25 45 -24 77 1 14 11 43 25 64 30 32 9
39 15 39 35 0 13 -5 27 -12 31 -7 5 -9 2 -5 -8 5 -14 -9 -16 -99 -16 -114 0
-122 5 -86 56 10 15 27 47 36 72 10 25 23 48 29 52 24 15 45 7 55 -20z m-392
-83 c11 -9 26 -19 34 -22 12 -4 11 -6 -3 -6 -23 -1 -67 43 -66 66 0 16 1 16 8
-2 5 -11 17 -27 27 -36z m1539 -25 c65 -14 75 -19 55 -25 -21 -6 -22 -7 -5 -8
17 -2 16 -4 -8 -17 -30 -16 -53 -10 -27 6 27 17 -1 10 -31 -7 -16 -10 -32 -26
-35 -36 -5 -17 -12 -18 -57 -13 -28 4 -54 8 -58 9 -8 2 -9 -3 -9 -33 0 -17 7
-20 48 -21 l47 -2 -40 -6 c-27 -5 -45 -2 -56 7 -25 20 -31 69 -14 103 15 29
81 71 100 65 6 -2 46 -12 90 -22z m-1442 -11 c-7 -2 -19 -2 -25 0 -7 3 -2 5
12 5 14 0 19 -2 13 -5z m1720 -62 c57 -22 164 -106 227 -178 36 -41 82 -85
103 -99 21 -14 37 -30 34 -37 -5 -17 -86 -65 -122 -72 -21 -5 -14 1 23 19 64
31 70 53 6 26 -25 -11 -51 -20 -57 -20 -7 1 3 7 22 15 25 12 32 20 28 35 -3
10 0 21 6 23 8 2 -106 147 -117 147 -2 0 -23 -9 -47 -20 -25 -11 -66 -20 -95
-20 -46 0 -60 6 -134 55 -45 30 -89 55 -96 55 -43 0 19 57 87 80 52 18 67 17
132 -9z m-165 -133 c23 -18 42 -37 42 -43 0 -6 -17 -21 -39 -33 l-38 -22 -19
21 c-10 11 -31 28 -46 37 l-28 16 27 28 c36 35 51 35 101 -4z m-712 -125 c0
-60 1 -119 4 -132 4 -21 -3 -27 -69 -57 -60 -28 -72 -31 -68 -16 48 150 117
312 133 312 1 0 1 -48 0 -107z m580 62 c17 -13 16 -14 -13 -4 -34 11 -42 19
-20 19 7 0 22 -7 33 -15z m-96 -29 c-31 -29 -1220 -626 -1247 -626 -17 1 -16
2 2 16 23 19 1235 623 1250 624 5 0 3 -6 -5 -14z m309 -10 c-14 -12 -99 -43
-99 -36 0 4 19 15 43 23 42 15 64 20 56 13z m111 -86 c6 -11 8 -20 6 -20 -3 0
-10 9 -16 20 -6 11 -8 20 -6 20 3 0 10 -9 16 -20z m-1570 -75 c17 -16 50 -30
95 -41 109 -24 118 -31 131 -94 l11 -55 104 108 c102 104 121 118 134 97 8
-13 -44 -142 -64 -158 -9 -7 -83 -47 -166 -88 -148 -74 -151 -75 -207 -69 -72
8 -118 23 -118 40 0 7 7 29 16 50 11 28 14 63 12 136 -3 110 4 120 52 74z
m1747 -1 c-3 -3 -12 -4 -19 -1 -8 3 -5 6 6 6 11 1 17 -2 13 -5z m-582 -101
c12 -4 0 -12 -42 -24 -67 -21 -162 -79 -229 -141 -92 -85 -209 -261 -249 -374
l-18 -52 -61 5 c-34 3 -84 8 -113 12 l-52 6 20 44 c30 67 107 171 123 165 8
-3 31 20 60 60 26 36 51 66 55 66 4 0 58 32 120 70 61 39 155 92 208 119 82
41 93 50 72 55 -13 2 1 3 33 0 31 -2 64 -7 73 -11z m52 -39 c-3 -3 -12 -4 -19
-1 -8 3 -5 6 6 6 11 1 17 -2 13 -5z m-1440 -66 c-14 -18 -39 -59 -57 -91 -18
-32 -35 -56 -37 -53 -11 10 96 176 113 176 3 0 -6 -15 -19 -32z m1585 11 c34
-11 80 -33 104 -49 59 -42 150 -145 180 -206 27 -55 53 -151 54 -195 0 -15 14
-53 30 -84 17 -32 28 -60 26 -62 -2 -3 -23 12 -45 33 -25 22 -39 30 -34 19 5
-15 3 -17 -11 -12 -68 26 -55 10 22 -28 71 -35 100 -56 122 -87 35 -49 39 -70
8 -41 -73 67 -295 132 -478 140 -139 7 -244 -12 -342 -60 l-66 -32 14 27 c25
48 153 108 274 128 54 9 53 9 -20 6 -68 -4 -108 -15 -225 -62 -34 -14 19 45
81 89 30 21 54 41 54 43 0 16 -108 -57 -146 -98 l-46 -49 7 33 c12 57 44 121
92 182 27 34 38 54 27 48 -32 -17 -110 -106 -133 -151 -28 -55 -45 -44 -37 22
9 62 39 153 78 230 15 31 25 57 21 57 -16 0 94 102 137 127 94 56 158 64 252
32z m-1674 -61 c-60 -72 -99 -145 -137 -258 -18 -52 -45 -110 -60 -129 -26
-31 -34 -35 -90 -39 -73 -5 -73 -6 -35 106 30 92 100 215 158 279 33 36 58 52
107 69 101 35 107 32 57 -28z m-768 16 c55 -22 66 -45 43 -92 -12 -25 -36 -48
-73 -70 -89 -53 -149 -67 -290 -67 -107 0 -130 3 -158 20 -42 25 -49 50 -25
84 31 40 90 77 173 105 99 33 101 33 202 35 60 1 100 -4 128 -15z m542 -72
c-22 -22 -54 -60 -71 -86 -36 -52 -116 -215 -126 -258 -4 -16 -11 -28 -16 -28
-13 0 20 98 58 175 53 106 152 235 180 235 7 0 -4 -17 -25 -38z m542 -8 l50
-7 -45 -23 c-55 -29 -75 -29 -116 -4 -22 13 -33 27 -33 43 0 35 7 37 53 17 23
-10 64 -22 91 -26z m-632 -22 c-39 -49 -108 -156 -127 -197 -18 -38 -19 -39
-25 -15 -5 22 -7 23 -13 7 -4 -10 -7 -28 -7 -38 0 -31 -18 -13 -51 53 l-30 60
27 29 c44 46 124 97 184 118 30 11 57 17 59 15 3 -2 -5 -17 -17 -32z m-222
-269 c79 -153 167 -322 197 -377 30 -54 53 -100 51 -101 -2 -2 -26 -1 -54 2
-39 4 -52 10 -60 27 -14 32 -61 50 -148 54 -73 4 -80 6 -107 36 -44 47 -198
250 -269 354 -57 84 -66 92 -94 91 -17 -1 -41 -4 -54 -7 -21 -7 -17 -14 70
-137 109 -153 214 -291 228 -300 25 -15 9 -35 -27 -35 -37 0 -42 4 -159 153
-221 280 -289 371 -269 362 11 -4 63 -10 116 -13 76 -3 113 0 179 17 101 25
198 77 225 119 11 17 23 31 26 32 4 0 71 -125 149 -277z m750 235 l33 -11 -44
-23 c-60 -32 -69 -30 -69 11 0 30 3 35 24 35 12 0 38 -5 56 -12z m967 -156
c-28 -60 -32 -78 -36 -187 l-4 -120 -18 40 c-38 83 -19 196 52 312 35 56 40
26 6 -45z m-884 21 c135 -45 146 -54 234 -217 58 -106 64 -122 57 -155 -9 -43
-13 -91 -8 -91 9 0 44 82 44 105 0 30 25 34 40 6 5 -11 10 -40 10 -65 0 -48
-24 -86 -81 -127 -24 -17 -33 -19 -45 -8 -13 10 -12 14 3 32 18 19 17 20 -6 7
-16 -8 -52 -11 -107 -8 -104 5 -195 47 -251 114 -21 24 -45 44 -55 44 -9 0
-46 15 -80 34 -35 19 -96 44 -136 57 -69 22 -74 22 -100 6 -15 -9 -26 -21 -24
-27 4 -17 -7 -11 -18 11 -16 29 10 65 58 80 33 9 52 8 120 -10 88 -23 148 -26
172 -11 12 8 11 10 -6 10 -11 0 -52 11 -91 24 -94 32 -147 40 -172 26 -23 -12
-24 -10 -15 15 9 23 58 45 102 45 21 0 72 -9 113 -20 80 -21 159 -26 159 -10
0 6 -15 10 -33 10 -18 0 -60 10 -92 21 -33 12 -84 22 -112 23 -58 1 -64 7 -31
30 31 22 100 20 211 -5 62 -14 106 -18 137 -14 l45 7 -90 25 c-50 14 -120 27
-157 30 -72 6 -78 15 -24 39 42 19 94 12 229 -33z m580 -189 c82 -7 85 -9 71
-61 -6 -22 -11 -23 -93 -22 -132 1 -175 10 -179 36 -2 12 2 32 8 44 11 19 18
20 63 15 29 -3 87 -8 130 -12z m-1188 -18 c-23 -19 -33 -21 -47 -12 -33 20
-21 36 30 36 l47 0 -30 -24z m40 -27 c-22 -18 -26 -27 -21 -51 3 -18 2 -27 -4
-23 -27 17 9 95 43 95 5 0 -3 -10 -18 -21z m-117 -5 c21 -15 29 -44 15 -57 -6
-6 -53 54 -53 67 0 10 15 6 38 -10z m400 -109 c26 -13 42 -24 36 -25 -13 0
-184 79 -184 85 0 7 93 -31 148 -60z m870 43 c31 2 32 1 32 -42 l0 -43 -67 18
c-38 10 -87 23 -110 29 -33 8 -43 16 -43 31 0 20 4 20 78 13 42 -4 92 -7 110
-6z m824 -10 c7 -7 43 -21 80 -30 123 -31 139 -43 171 -128 35 -92 49 -164 37
-193 -9 -22 -9 -21 -10 3 0 14 -5 32 -10 40 -7 11 -10 5 -10 -25 0 -88 -68
-135 -196 -135 -39 0 -68 -5 -76 -13 -11 -11 -35 -12 -118 -6 -127 11 -266 31
-276 42 -4 4 -20 7 -35 7 -15 0 -32 7 -37 15 -12 22 -109 46 -155 38 -40 -6
-117 20 -117 40 0 6 -7 18 -16 28 -13 14 -14 24 -5 56 6 21 11 57 11 81 l0 43
103 -8 c117 -9 111 -9 357 1 151 7 201 5 274 -8 93 -16 126 -15 60 3 -105 28
-150 34 -284 37 -131 4 -145 6 -148 23 -5 30 83 74 183 90 80 14 202 13 217
-1z m-2033 -47 c-15 -5 -22 6 -14 19 6 9 10 9 16 -1 5 -8 4 -15 -2 -18z m1136
-34 c62 -18 82 -28 92 -47 25 -50 -15 -158 -83 -227 -51 -50 -118 -87 -148
-79 -34 8 -179 90 -167 94 6 2 50 -18 97 -43 84 -46 87 -47 118 -32 39 18 93
63 107 88 9 17 5 22 -24 34 -18 7 -45 17 -59 20 -24 6 -26 4 -33 -34 -6 -39
-7 -40 -33 -29 -15 7 -35 19 -45 28 -16 15 -16 18 17 56 37 43 56 97 56 157 0
44 -1 44 105 14z m-1066 -17 l34 -29 -9 -63 -9 -63 -43 83 c-24 45 -40 87 -37
92 10 16 28 11 64 -20z m351 7 c0 -20 90 -103 140 -128 24 -13 71 -29 105 -36
l60 -12 -55 2 c-72 4 -156 43 -220 103 -65 61 -79 84 -50 84 11 0 20 -6 20
-13z m378 -208 c25 0 26 -1 5 -9 -24 -10 -63 -2 -63 12 0 6 7 7 16 4 9 -3 28
-6 42 -7z m-659 -141 l42 -78 -31 0 c-27 0 -30 3 -25 20 4 12 0 31 -9 45 -9
13 -16 33 -16 44 0 11 -4 23 -10 26 -5 3 -10 14 -10 23 0 23 11 8 59 -80z
m-79 35 c-1 -17 -125 -66 -213 -84 -98 -20 -272 -26 -282 -9 -4 6 19 10 60 10
76 0 224 28 335 64 82 27 100 30 100 19z m-633 -135 c27 -29 -4 -21 -36 10
-16 15 -32 38 -36 52 -6 23 -4 22 25 -10 17 -19 38 -43 47 -52z m653 47 c0
-21 -28 -32 -93 -37 -67 -5 -64 1 18 35 62 26 75 26 75 2z m-50 -56 c-52 -4
-121 -10 -153 -12 -32 -3 -56 -2 -52 1 9 9 121 19 220 19 l80 0 -95 -8z m578
-336 l-3 -298 -92 -3 -93 -3 0 141 c0 83 -4 140 -10 140 -8 0 -46 -72 -87
-168 -13 -32 -15 -33 -65 -30 l-52 3 -43 85 c-24 47 -49 85 -56 85 -7 0 -12
-17 -13 -45 -1 -25 -2 -86 -2 -136 l-2 -91 -86 -7 c-47 -4 -89 -5 -92 -1 -9 9
-4 587 5 596 4 4 53 9 108 10 l100 2 64 -126 c36 -70 69 -127 73 -127 4 0 37
58 73 129 39 79 71 131 82 134 10 3 57 5 106 6 l87 1 -2 -297z m538 197 c18
-52 62 -180 99 -285 36 -104 63 -195 61 -202 -6 -14 -83 -17 -148 -7 -35 6
-39 10 -59 65 l-22 59 -96 0 -96 0 -20 -57 -20 -58 -97 -3 -97 -3 85 253 c46
139 91 272 100 296 l16 43 130 -3 131 -3 33 -95z m596 71 l33 -7 3 -72 c3 -68
2 -73 -15 -63 -26 13 -158 30 -185 24 -46 -12 -48 -19 -48 -163 0 -176 -2
-174 149 -178 l106 -4 -3 -60 -4 -60 -136 4 c-114 4 -145 8 -188 27 -107 47
-134 106 -134 289 0 102 4 135 19 167 27 58 63 87 129 101 56 13 200 10 274
-5z m-2062 -58 c0 -7 18 -65 41 -130 76 -222 131 -405 122 -413 -4 -4 -47 -11
-95 -15 l-87 -7 -18 61 -18 61 -60 -6 c-144 -16 -137 -12 -158 -81 -20 -69
-18 -68 -136 -79 l-73 -7 7 24 c31 100 197 597 203 607 5 8 50 15 128 20 100
7 121 5 132 -7 6 -8 12 -21 12 -28z m2538 17 c61 -26 107 -74 121 -127 6 -21
11 -103 11 -182 0 -173 -13 -212 -82 -251 -36 -20 -56 -24 -124 -23 -125 1
-224 36 -276 98 -42 48 -50 94 -46 263 l3 162 31 30 c48 48 94 61 209 57 76
-3 112 -9 153 -27z m357 -16 l40 -5 78 -154 c43 -85 82 -155 87 -155 6 0 10
60 10 146 l0 146 93 -7 c50 -4 95 -9 100 -12 4 -2 7 -147 7 -323 0 -298 -1
-318 -17 -315 -10 2 -53 9 -95 16 l-77 12 -83 158 c-46 88 -89 159 -95 159
-10 0 -13 -35 -13 -141 l0 -142 -82 7 c-46 4 -86 10 -90 14 -8 8 -13 111 -23
440 l-5 173 62 -6 c35 -3 81 -8 103 -11z m-3404 -74 c-1 -36 -5 -68 -8 -72 -2
-5 -44 -8 -93 -8 -79 0 -92 -3 -116 -24 l-28 -23 1 -150 c0 -83 3 -156 7 -162
10 -16 48 -13 146 8 47 11 85 18 86 18 1 -1 -1 -30 -4 -65 -5 -75 -1 -73 -168
-103 -154 -27 -226 -13 -260 52 -13 27 -15 63 -12 233 4 223 7 237 73 294 56
50 144 70 290 68 l90 -1 -4 -65z m19 -100 c0 -5 -5 -10 -11 -10 -5 0 -7 5 -4
10 3 6 8 10 11 10 2 0 4 -4 4 -10z m-200 -14 c0 -2 -7 -7 -16 -10 -8 -3 -12
-2 -9 4 6 10 25 14 25 6z m-353 -248 c-2 -35 -3 -9 -3 57 0 66 1 94 3 63 2
-32 2 -86 0 -120z m3590 -164 c-3 -3 -12 -4 -19 -1 -8 3 -5 6 6 6 11 1 17 -2
13 -5z m-3567 -179 c8 -10 29 -26 45 -37 17 -10 26 -18 20 -18 -22 0 -76 42
-85 66 -6 14 -9 55 -8 92 l1 67 6 -76 c4 -45 12 -83 21 -94z m3867 129 c-3 -3
-12 -4 -19 -1 -8 3 -5 6 6 6 11 1 17 -2 13 -5z m83 -4 c0 -5 -12 -10 -27 -9
l-28 1 25 8 c14 4 26 8 28 9 1 1 2 -3 2 -9z m-2088 -180 c53 -85 97 -158 98
-162 0 -5 -35 -8 -79 -8 -73 0 -80 2 -95 25 -16 24 -21 25 -107 25 -89 0 -90
0 -106 -29 -14 -24 -26 -30 -68 -35 -88 -10 -108 -8 -101 11 4 9 47 86 97 169
l90 153 57 4 c121 8 105 19 214 -153z m501 149 c98 -27 133 -113 69 -170 -36
-32 -78 -45 -179 -55 l-72 -6 -3 -42 -3 -41 -75 0 -75 0 -3 163 -2 162 152 0
c84 0 170 -5 191 -11z m511 -11 c53 -13 106 -67 106 -106 0 -35 -32 -79 -69
-94 -14 -6 -69 -14 -121 -17 l-95 -6 -3 -42 -3 -43 -75 0 -74 0 0 166 0 167
148 -7 c81 -4 165 -12 186 -18z m786 2 c0 -5 -2 -10 -4 -10 -3 0 -8 5 -11 10
-3 6 -1 10 4 10 6 0 11 -4 11 -10z m-3357 -7 c-7 -2 -19 -2 -25 0 -7 3 -2 5
12 5 14 0 19 -2 13 -5z m3894 1 c-3 -3 -12 -4 -19 -1 -8 3 -5 6 6 6 11 1 17
-2 13 -5z m-3954 -11 c-13 -2 -35 -2 -50 0 -16 2 -5 4 22 4 28 0 40 -2 28 -4z
m3320 0 c-7 -2 -21 -2 -30 0 -10 3 -4 5 12 5 17 0 24 -2 18 -5z m757 -3 c-8
-5 -19 -10 -25 -10 -5 0 -3 5 5 10 8 5 20 10 25 10 6 0 3 -5 -5 -10z m-3670
-75 c13 -14 21 -25 18 -25 -2 0 -15 11 -28 25 -13 14 -21 25 -18 25 2 0 15
-11 28 -25z m3110 -4 c-40 -33 -36 -42 22 -50 23 -3 43 -10 45 -16 1 -5 -46
-45 -105 -87 -319 -228 -848 -505 -1350 -707 l-172 -69 -88 33 c-345 129 -841
369 -1151 557 -127 77 -319 204 -366 242 -34 28 -31 34 19 46 35 8 41 4 184
-102 81 -61 176 -129 212 -153 85 -54 322 -187 326 -182 2 2 -39 28 -93 57
-177 98 -76 63 155 -53 346 -175 766 -353 812 -344 64 13 471 190 715 311 251
124 354 170 330 147 -6 -5 -54 -33 -108 -61 -54 -29 -96 -54 -93 -57 7 -7 256
133 256 144 0 2 -5 1 -12 -3 -7 -4 -8 -3 -4 5 4 6 12 9 17 5 10 -6 164 89 176
109 3 5 -21 -8 -53 -30 -125 -84 -112 -68 41 47 130 98 212 163 263 207 20 18
41 33 47 33 5 0 -6 -13 -25 -29z m632 -12 c-18 -16 -38 -29 -45 -29 -6 1 0 7
15 16 15 8 32 24 39 35 6 11 14 18 17 14 4 -4 -8 -20 -26 -36z m-487 4 c-42
-31 -59 -33 -27 -3 19 17 37 28 40 25 4 -4 -2 -13 -13 -22z m-3375 -8 c30 -32
10 -33 -27 0 -20 17 -23 24 -12 25 8 0 26 -11 39 -25z m738 -17 c-3 -22 -7
-23 -177 -32 -132 -6 -180 -5 -200 4 l-26 13 25 8 c14 4 95 12 180 17 85 5
165 10 178 10 19 2 23 -2 20 -20z m2130 6 c67 -4 122 -10 122 -14 0 -27 -33
-30 -211 -23 -184 8 -184 8 -187 32 -4 24 -4 24 75 18 43 -4 133 -9 201 -13z
m-2621 -74 c46 -39 129 -102 184 -141 109 -77 136 -105 37 -37 -53 35 -260
188 -304 224 -14 11 -18 24 -8 24 3 0 44 -32 91 -70z m2582 4 c84 -5 92 -8 78
-22 -13 -12 -40 -15 -152 -13 -151 2 -165 5 -165 31 0 19 -4 19 239 4z m-2091
-11 c-3 -16 -21 -19 -143 -25 -123 -6 -143 -5 -165 10 -25 17 -25 17 45 23 39
3 114 6 168 7 89 2 98 0 95 -15z m2754 -203 c5 0 8 -7 8 -15 0 -8 -45 -45
-100 -81 l-99 -66 -81 47 c-62 36 -91 48 -123 48 -31 0 -37 2 -22 8 34 13 58
10 113 -16 l52 -24 81 60 c82 62 83 64 63 114 -5 13 12 2 46 -27 30 -27 58
-48 62 -48z m-3571 43 l-21 -26 23 -16 c113 -77 151 -101 158 -101 4 0 31 11
61 25 56 26 93 31 118 15 11 -7 4 -10 -25 -10 -30 0 -61 -12 -117 -45 -43 -25
-81 -45 -85 -45 -12 0 -203 131 -203 140 0 6 100 89 108 90 2 0 -6 -12 -17
-27z m1642 -108 c-3 -9 2 -22 13 -30 18 -14 17 -16 -21 -49 -33 -28 -50 -34
-105 -40 -36 -3 -82 -6 -102 -6 -29 0 -38 -4 -38 -17 0 -17 -73 -103 -87 -103
-3 0 -80 36 -172 81 -153 74 -164 82 -147 95 25 18 31 18 46 -1 7 -8 21 -15
31 -15 14 0 19 7 19 30 0 17 4 30 8 30 15 0 52 -37 52 -52 0 -8 5 -19 12 -26
9 -9 14 -7 24 6 9 11 16 13 21 6 5 -5 23 -16 40 -23 31 -13 35 -12 70 18 21
18 44 36 51 42 23 19 9 44 -28 49 -43 6 77 15 222 18 84 2 97 0 91 -13z m243
-4 c-16 -18 -16 -20 9 -39 15 -12 24 -26 20 -32 -3 -6 3 -10 14 -10 12 0 21 5
21 10 0 14 34 12 48 -2 10 -10 17 -10 33 0 24 15 59 7 59 -14 0 -8 6 -15 13
-15 46 -5 56 -7 67 -14 24 -15 -20 -22 -98 -18 -44 3 -78 0 -86 -6 -7 -6 -15
-8 -19 -5 -3 3 -17 -2 -31 -11 -22 -15 -29 -15 -56 -4 -37 17 -39 29 -5 29 27
0 28 1 19 24 -3 9 -10 14 -14 11 -5 -3 -21 0 -37 6 -45 19 -78 11 -119 -26
-21 -19 -44 -35 -51 -35 -18 0 -16 -10 5 -26 9 -7 12 -14 6 -14 -6 0 -22 9
-36 19 -28 23 -87 36 -117 26 -11 -3 -28 -19 -38 -36 -9 -16 -23 -29 -30 -29
-21 0 -15 17 8 23 13 4 19 12 17 24 -5 25 36 44 81 38 32 -5 41 0 86 40 l50
46 -22 18 c-35 29 -11 38 109 39 108 2 110 1 94 -17z m-673 -3 c-11 -19 -12
-37 -2 -44 15 -9 10 -24 -8 -24 -10 0 -28 16 -40 34 -24 37 -20 44 30 45 20 1
26 -3 20 -11z m1031 -3 c-4 -9 6 -22 28 -35 40 -24 71 -26 89 -4 11 14 10 19
-10 35 l-23 19 53 -1 c30 -1 42 -4 27 -6 -16 -2 -28 -8 -28 -12 0 -11 80 -81
92 -81 5 0 6 -4 3 -10 -3 -5 -13 -10 -21 -10 -9 0 -22 -7 -31 -15 -13 -14 -18
-13 -46 7 -18 12 -33 26 -35 30 -6 14 -36 9 -71 -13 -39 -24 -66 -21 -66 6 0
14 -8 21 -27 23 -26 3 -41 22 -18 22 18 0 11 18 -10 25 -46 14 -16 32 57 34
33 1 41 -2 37 -14z m56 -15 c0 -5 -7 -7 -15 -4 -8 4 -15 8 -15 10 0 2 7 4 15
4 8 0 15 -4 15 -10z m-200 -175 c-7 -8 -19 -15 -27 -15 -10 0 -8 6 8 19 27 22
38 19 19 -4z m918 -87 l36 -38 -80 -36 c-43 -20 -103 -47 -132 -60 l-52 -23
-58 54 c-32 29 -73 60 -92 69 -19 9 -27 14 -17 11 10 -3 29 -5 41 -5 12 0 47
-22 79 -51 48 -43 59 -49 77 -39 11 6 20 14 20 19 0 4 26 34 57 66 48 49 57
64 55 89 l-3 31 17 -25 c9 -14 33 -42 52 -62z m-1388 48 c-16 -21 -76 -31
-103 -18 -19 9 -18 10 10 5 35 -6 93 13 93 30 0 6 3 7 6 4 4 -4 1 -13 -6 -21z
m-1110 -15 c-14 -27 -14 -27 28 -52 47 -28 83 -60 77 -69 -2 -4 12 -14 31 -24
l35 -16 56 49 c61 55 117 72 170 53 25 -9 22 -11 -30 -11 -58 -1 -60 -2 -121
-61 l-63 -60 -126 57 c-70 32 -127 61 -127 64 0 7 70 89 76 89 3 0 0 -9 -6
-19z m1013 -309 c2 -4 1 -19 -2 -33 -6 -27 -6 -27 -42 -12 -35 13 -36 16 -26
42 10 26 13 28 39 19 15 -6 29 -13 31 -16z m505 -1 c2 -25 -3 -31 -35 -44 -38
-15 -38 -15 -50 11 -11 26 -9 28 25 44 51 23 57 22 60 -11z"/>
<path d="M3115 4292 c-45 -28 -58 -48 -51 -78 5 -20 1 -33 -14 -49 -30 -32 -9
-40 38 -16 50 25 62 41 59 76 -1 21 3 30 16 33 13 3 17 -3 17 -29 0 -51 23
-19 24 33 1 41 -1 43 -29 46 -16 1 -43 -6 -60 -16z"/>
<path d="M2873 4152 c-55 -22 -60 -28 -72 -82 l-10 -45 24 30 c36 46 58 68 91
92 35 26 24 28 -33 5z"/>
<path d="M2665 4110 c12 -19 -67 -41 -169 -47 -127 -6 -255 9 -273 33 -10 14
-15 15 -28 4 -21 -17 -12 -22 83 -45 90 -21 291 -17 360 9 23 8 49 13 57 10
18 -7 20 17 3 34 -15 15 -42 16 -33 2z"/>
<path d="M2335 3980 c25 -11 102 -11 135 0 17 5 -5 8 -65 8 -59 0 -83 -2 -70
-8z"/>
<path d="M3966 3074 c-8 -21 -9 -20 13 -20 16 0 17 4 10 18 -12 22 -15 22 -23
2z"/>
<path d="M1005 3496 c-79 -20 -127 -44 -167 -84 -62 -60 -48 -86 54 -98 159
-19 406 92 355 159 -28 38 -141 48 -242 23z m140 -18 c44 -20 29 -49 -45 -85
-125 -61 -215 -60 -215 2 0 34 32 57 115 79 68 18 111 19 145 4z"/>
<path d="M1000 3458 c-91 -24 -107 -78 -23 -77 98 1 204 53 163 79 -19 12 -93
11 -140 -2z m20 -22 c0 -2 -15 -9 -32 -15 -30 -10 -31 -9 -14 4 18 14 46 20
46 11z"/>
<path d="M2636 2102 c-14 -54 -26 -104 -26 -110 0 -8 21 -12 60 -12 42 0 60 4
60 13 -1 17 -55 195 -61 202 -4 3 -18 -39 -33 -93z"/>
<path d="M1186 2035 c-16 -64 -26 -118 -23 -121 3 -3 31 -2 61 1 46 6 56 11
52 24 -2 9 -14 52 -26 96 -12 44 -25 88 -28 97 -5 11 -18 -25 -36 -97z"/>
<path d="M3723 2168 c-4 -7 -7 -80 -5 -163 3 -138 4 -151 23 -167 24 -21 60
-23 77 -6 8 8 12 60 12 168 0 108 -4 160 -12 168 -16 16 -85 15 -95 0z"/>
<path d="M2002 1431 c-12 -21 -22 -41 -22 -45 0 -3 20 -6 45 -6 25 0 45 4 45
9 0 9 -39 81 -44 81 -1 0 -12 -17 -24 -39z"/>
<path d="M2530 1469 l0 -42 51 6 c111 13 106 77 -5 77 l-46 0 0 -41z"/>
<path d="M3046 1484 c-14 -36 -6 -52 27 -58 69 -13 125 29 81 61 -26 19 -100
17 -108 -3z"/>
<path d="M3969 1343 c-13 -16 -12 -17 4 -4 9 7 17 15 17 17 0 8 -8 3 -21 -13z"/>
<path d="M1700 975 c0 -7 121 -67 126 -63 2 2 -26 18 -61 36 -36 17 -65 30
-65 27z"/>
<path d="M3280 925 c-36 -19 -61 -34 -57 -35 10 0 127 59 127 65 0 7 2 8 -70
-30z"/>
<path d="M2077 789 c7 -7 15 -10 18 -7 3 3 -2 9 -12 12 -14 6 -15 5 -6 -5z"/>
<path d="M2130 765 c14 -8 30 -14 35 -14 6 0 -1 6 -15 14 -14 8 -29 14 -35 14
-5 0 1 -6 15 -14z"/>
<path d="M1925 4342 c-162 -15 -679 -98 -707 -113 -10 -5 -27 -9 -39 -9 -12 0
-38 -4 -58 -9 -20 -6 -160 -40 -311 -76 -151 -37 -358 -95 -460 -128 l-185
-62 -3 -245 c-5 -431 37 -727 153 -1059 39 -111 127 -314 150 -344 14 -19 55
-16 55 4 0 5 -31 76 -69 157 -104 223 -191 521 -204 703 -2 35 -2 53 0 39 55
-322 138 -592 252 -819 38 -74 45 -82 65 -77 44 11 161 26 207 26 l47 0 -29
73 c-34 86 -38 166 -11 215 9 17 49 65 87 105 65 69 126 141 133 157 1 3 -19
31 -45 61 -27 30 -58 68 -70 84 l-22 30 -1 -32 c0 -17 -5 -35 -10 -38 -6 -4
-10 14 -10 46 0 49 -4 57 -79 158 -96 130 -102 142 -95 180 8 38 69 103 124
131 22 11 40 26 40 33 0 29 -13 57 -26 57 -8 0 -14 5 -14 12 0 7 -5 5 -12 -4
-7 -9 -30 -21 -50 -28 -34 -10 -38 -15 -38 -46 0 -32 -2 -34 -34 -34 -52 0
-66 9 -66 42 0 25 4 29 23 26 19 -3 22 2 25 40 2 23 -1 42 -7 42 -5 0 -12 8
-14 18 -4 16 -5 16 -6 0 -1 -25 -21 -23 -21 1 0 29 -18 35 -22 9 -2 -13 -8
-22 -14 -21 -6 1 -36 3 -67 4 -31 1 -54 6 -52 10 3 4 -3 13 -12 20 -15 12 -16
12 -10 -3 3 -10 0 -24 -9 -32 -12 -13 -10 -15 23 -18 l38 -3 0 -125 c0 -116
-1 -125 -19 -125 -21 0 -47 -35 -31 -41 6 -2 9 -30 7 -64 l-4 -60 -53 0 -53 0
-6 43 c-13 87 -26 327 -26 469 l0 147 28 15 c76 39 667 214 679 202 9 -9 -68
-64 -84 -60 -10 2 -31 -7 -48 -21 -19 -16 -23 -23 -11 -19 12 5 17 4 13 -3 -4
-6 -16 -13 -27 -16 -12 -3 -18 -1 -14 5 3 5 -8 3 -24 -6 -17 -9 -38 -16 -46
-16 -32 0 -66 -19 -60 -34 8 -21 42 -30 59 -16 8 6 34 18 57 25 37 11 47 11
63 -2 18 -12 20 -25 18 -119 -1 -59 -7 -112 -13 -119 -6 -7 -14 -45 -19 -84
-6 -58 -5 -71 6 -67 35 14 125 36 191 47 63 11 72 15 66 31 -3 10 -1 18 5 18
10 0 15 -14 12 -32 0 -5 4 -8 9 -8 6 0 10 10 10 23 0 16 -11 27 -40 41 -28 14
-40 26 -42 45 -3 28 -20 32 -86 18 l-33 -7 2 119 c1 65 -1 123 -5 129 -3 6 -2
13 4 17 5 3 10 -1 10 -9 0 -9 5 -16 10 -16 6 0 10 8 10 19 0 26 159 83 221 79
39 -3 44 0 47 19 4 24 19 31 248 109 117 40 160 49 307 66 94 10 173 21 175
23 2 1 -3 20 -10 42 -12 34 -16 38 -43 35z m-500 -172 c-11 -5 -27 -9 -35 -9
-9 0 -8 4 5 9 11 5 27 9 35 9 9 0 8 -4 -5 -9z m-59 -17 c-11 -11 -76 -31 -76
-24 0 8 47 28 69 30 8 1 11 -2 7 -6z m-86 -7 c0 -2 -9 -6 -20 -9 -11 -3 -20
-1 -20 4 0 5 9 9 20 9 11 0 20 -2 20 -4z m-96 -26 c-11 -11 -189 -80 -205 -80
-4 0 4 12 19 27 17 18 50 34 92 45 77 20 109 23 94 8z m-254 -230 c0 -5 -4
-10 -10 -10 -5 0 -10 5 -10 10 0 6 5 10 10 10 6 0 10 -4 10 -10z m5 -30 c-3
-5 -10 -10 -16 -10 -5 0 -9 5 -9 10 0 6 7 10 16 10 8 0 12 -4 9 -10z m-4 -32
c4 -49 -2 -113 -10 -121 -8 -8 -11 11 -11 61 0 41 4 72 10 72 6 0 10 -6 11
-12z m-361 -233 c0 -22 -4 -25 -35 -25 -31 0 -35 3 -35 25 0 22 4 25 35 25 31
0 35 -3 35 -25z m50 -1 c0 -33 -33 -30 -38 4 -3 17 2 22 17 22 16 0 21 -6 21
-26z m-90 -59 c0 -8 -7 -15 -15 -15 -8 0 -15 7 -15 15 0 8 7 15 15 15 8 0 15
-7 15 -15z m-17 -102 c-8 -65 -13 -67 -13 -5 0 29 4 52 10 52 6 0 7 -19 3 -47z
m117 37 c0 -5 -11 -10 -25 -10 -14 0 -25 5 -25 10 0 6 11 10 25 10 14 0 25 -4
25 -10z m50 0 c0 -5 -6 -10 -14 -10 -8 0 -18 5 -21 10 -3 6 3 10 14 10 12 0
21 -4 21 -10z m-173 -152 c-3 -8 -6 -5 -6 6 -1 11 2 17 5 13 3 -3 4 -12 1 -19z
m-50 -95 c-2 -16 -4 -3 -4 27 0 30 2 43 4 28 2 -16 2 -40 0 -55z m44 -26 c-13
-13 -15 15 -3 53 7 24 7 23 10 -9 2 -18 -1 -38 -7 -44z m-44 -99 c-3 -7 -5 -2
-5 12 0 14 2 19 5 13 2 -7 2 -19 0 -25z m40 -60 c-2 -13 -4 -3 -4 22 0 25 2
35 4 23 2 -13 2 -33 0 -45z m140 -154 c-3 -3 -12 -4 -19 -1 -8 3 -5 6 6 6 11
1 17 -2 13 -5z"/>
<path d="M3339 4310 c-20 -11 -39 -28 -42 -39 -4 -16 2 -20 37 -23 32 -4 53 2
94 25 36 20 61 28 80 24 240 -45 365 -83 456 -138 50 -30 109 -52 229 -85 167
-46 570 -177 597 -194 28 -18 13 -525 -21 -735 -17 -104 -20 -115 -35 -115
-10 0 -14 15 -14 60 0 41 4 60 13 60 9 0 9 2 0 8 -7 4 -18 34 -26 67 l-15 60
-1 -42 c-1 -23 -5 -45 -11 -48 -11 -7 -12 119 -1 245 6 70 8 75 31 80 22 4 25
9 20 34 l-5 28 -19 -21 c-14 -16 -31 -21 -68 -21 -41 0 -48 3 -48 20 0 11 -5
20 -11 20 -6 0 -8 -9 -4 -20 5 -15 2 -20 -13 -20 -11 0 -22 6 -25 13 -2 6 -8
0 -12 -15 -4 -15 -2 -35 4 -45 10 -17 10 -17 11 0 0 14 9 17 50 17 43 0 50 -3
50 -20 0 -17 -7 -20 -51 -20 -45 0 -50 -2 -44 -19 9 -30 -5 -51 -35 -51 l-28
0 4 118 3 117 43 6 c25 3 -5 6 -72 6 -64 0 -97 -3 -75 -6 l40 -6 3 -117 c3
-113 2 -118 -18 -118 -11 0 -21 6 -21 13 -1 6 -4 -1 -8 -18 -3 -17 -14 -31
-24 -33 -14 -3 -17 4 -17 32 0 45 -20 48 -21 4 0 -18 -1 -59 -2 -90 -2 -44 2
-58 13 -62 8 -2 3 -4 -12 -5 -23 -1 -28 3 -28 22 -1 12 -1 86 0 165 l1 143
-32 30 c-22 20 -35 26 -39 18 -6 -8 -9 -8 -14 0 -4 6 -4 11 1 12 4 1 -8 5 -27
10 -36 9 -190 -16 -190 -31 0 -4 -9 -10 -20 -13 -18 -4 -20 -14 -20 -74 0 -50
5 -76 20 -101 11 -18 24 -31 29 -28 5 3 8 0 8 -7 -1 -6 13 -42 31 -79 18 -37
32 -77 32 -88 0 -11 3 -20 8 -20 4 0 8 -21 9 -46 1 -47 39 -130 118 -261 42
-69 44 -101 10 -142 -25 -29 -26 -36 -28 -178 -2 -111 -7 -157 -19 -185 l-17
-38 52 -1 c29 0 77 -4 107 -9 30 -5 99 -11 153 -13 l98 -5 33 66 c88 175 169
419 217 651 28 136 38 153 19 31 -30 -185 -110 -443 -193 -620 -58 -125 -59
-127 -41 -134 34 -13 43 -2 93 108 107 238 179 491 216 766 21 153 40 731 25
740 -9 6 -9 9 1 12 7 2 -26 18 -72 36 -90 34 -120 40 -79 17 31 -17 24 -19
-19 -4 -20 7 -28 14 -22 19 7 3 -44 24 -111 44 -68 21 -186 58 -263 81 -77 24
-180 51 -230 60 -49 9 -137 27 -195 41 -116 28 -499 94 -539 94 -15 -1 -42 -9
-62 -20z m1366 -290 c13 -5 14 -9 5 -9 -8 0 -24 4 -35 9 -13 5 -14 9 -5 9 8 0
24 -4 35 -9z m195 -72 c10 -6 7 -7 -10 -2 -14 3 -32 11 -40 16 -10 6 -7 7 10
2 14 -3 32 -11 40 -16z m-430 -328 c0 -5 -4 -10 -10 -10 -5 0 -10 5 -10 10 0
6 5 10 10 10 6 0 10 -4 10 -10z m0 -55 c0 -14 -4 -25 -10 -25 -5 0 -10 11 -10
25 0 14 5 25 10 25 6 0 10 -11 10 -25z m0 -55 c0 -11 -4 -20 -10 -20 -5 0 -10
9 -10 20 0 11 5 20 10 20 6 0 10 -9 10 -20z m-393 4 c-3 -3 -12 -4 -19 -1 -8
3 -5 6 6 6 11 1 17 -2 13 -5z m393 -54 c0 -11 -4 -20 -10 -20 -5 0 -10 9 -10
20 0 11 5 20 10 20 6 0 10 -9 10 -20z m-473 -6 c-3 -3 -12 -4 -19 -1 -8 3 -5
6 6 6 11 1 17 -2 13 -5z m10 -20 c-3 -3 -12 -4 -19 -1 -8 3 -5 6 6 6 11 1 17
-2 13 -5z m633 -9 c0 -13 -4 -14 -20 -5 -11 6 -20 13 -20 15 0 3 9 5 20 5 11
0 20 -7 20 -15z m-170 -10 c0 -8 -4 -15 -10 -15 -5 0 -10 7 -10 15 0 8 5 15
10 15 6 0 10 -7 10 -15z m-42 -47 c-6 -18 -28 -21 -28 -4 0 9 7 16 16 16 9 0
14 -5 12 -12z m57 2 c-3 -5 -13 -10 -21 -10 -8 0 -14 5 -14 10 0 6 9 10 21 10
11 0 17 -4 14 -10z m49 -5 c-6 -16 -34 -21 -34 -7 0 13 11 22 26 22 8 0 11 -6
8 -15z m105 -115 c-6 -73 -6 -73 -6 30 -1 58 2 92 6 75 4 -16 4 -64 0 -105z
m-271 65 c2 -15 -2 -32 -10 -36 -10 -7 -11 -9 0 -9 7 0 10 -5 7 -10 -13 -21
-25 2 -25 46 0 51 23 58 28 9z m-301 19 c-3 -3 -12 -4 -19 -1 -8 3 -5 6 6 6
11 1 17 -2 13 -5z m438 -4 c3 -5 1 -10 -4 -10 -6 0 -11 5 -11 10 0 6 2 10 4
10 3 0 8 -4 11 -10z m54 -22 c-1 -31 -1 -31 -8 -8 -5 14 -6 28 -4 33 9 15 13
6 12 -25z m-19 2 c0 -5 -7 -10 -16 -10 -8 0 -12 5 -9 10 3 6 10 10 16 10 5 0
9 -4 9 -10z m317 -37 c-3 -10 -5 -2 -5 17 0 19 2 27 5 18 2 -10 2 -26 0 -35z
m-327 -3 c0 -11 -5 -20 -11 -20 -5 0 -7 5 -4 10 3 6 -1 10 -9 10 -9 0 -16 5
-16 10 0 6 9 10 20 10 13 0 20 -7 20 -20z m317 -72 c-2 -13 -4 -5 -4 17 -1 22
1 32 4 23 2 -10 2 -28 0 -40z m-317 12 c0 -5 -4 -10 -10 -10 -5 0 -10 5 -10
10 0 6 5 10 10 10 6 0 10 -4 10 -10z m30 0 c0 -5 -4 -10 -10 -10 -5 0 -10 5
-10 10 0 6 5 10 10 10 6 0 10 -4 10 -10z m77 -97 c-3 -10 -5 -2 -5 17 0 19 2
27 5 18 2 -10 2 -26 0 -35z m-458 0 c0 -25 -1 -26 -9 -8 -12 27 -12 35 0 35 6
0 10 -12 9 -27z m55 -28 c3 -9 0 -15 -9 -15 -9 0 -12 6 -9 15 4 8 7 15 9 15 2
0 5 -7 9 -15z m403 -27 c-3 -7 -5 -2 -5 12 0 14 2 19 5 13 2 -7 2 -19 0 -25z
m-90 -40 c-3 -8 -6 -5 -6 6 -1 11 2 17 5 13 3 -3 4 -12 1 -19z m90 -10 c-3 -7
-5 -2 -5 12 0 14 2 19 5 13 2 -7 2 -19 0 -25z m-107 -140 c-1 -35 -3 -40 -11
-25 -10 17 -5 67 6 67 3 0 5 -19 5 -42z m17 -20 c-2 -13 -4 -3 -4 22 0 25 2
35 4 23 2 -13 2 -33 0 -45z m53 17 c0 -19 -4 -35 -10 -35 -5 0 -10 16 -10 35
0 19 5 35 10 35 6 0 10 -16 10 -35z"/>
<path d="M1199 4278 c-17 -24 -18 -29 -5 -19 14 12 19 12 26 2 5 -9 12 -4 23
18 15 29 14 31 -3 31 -10 0 -29 -15 -41 -32z"/>
<path d="M460 4105 c-41 -13 -113 -35 -160 -49 -47 -14 -123 -38 -170 -54
l-85 -29 -3 -110 -3 -110 35 11 c38 11 46 34 46 132 0 32 5 54 13 57 124 52
222 92 262 107 83 31 171 70 155 69 -8 -1 -49 -12 -90 -24z"/>
<path d="M4660 4085 c14 -8 36 -14 50 -14 22 0 21 2 -10 14 -47 18 -71 18 -40
0z"/>
<path d="M1385 4035 c-44 -14 -88 -25 -98 -25 -39 0 -83 -30 -95 -63 -8 -21
-12 -96 -12 -199 l0 -165 48 -7 c83 -11 121 -41 166 -131 23 -44 42 -82 44
-84 1 -3 9 2 17 10 19 18 24 104 25 382 0 120 4 197 10 197 5 0 7 -7 4 -15 -4
-9 0 -15 7 -15 9 0 10 -3 4 -8 -18 -13 -17 -73 2 -88 17 -13 17 -14 -2 -8 -17
5 -16 3 5 -16 23 -20 23 -20 3 -10 -16 7 -23 7 -23 0 0 -5 6 -10 13 -10 8 0 9
-3 1 -8 -6 -4 -12 -52 -13 -115 -2 -95 0 -111 16 -123 16 -13 16 -14 1 -8 -14
5 -18 1 -19 -17 0 -13 -2 -33 -4 -44 -6 -30 9 -48 34 -40 12 3 19 11 15 16 -3
6 0 9 7 8 8 -2 28 4 45 13 17 10 53 22 80 28 27 6 66 19 87 27 l37 16 0 82 c0
45 3 124 7 174 l6 93 27 -6 c15 -3 40 -8 55 -12 20 -5 26 -4 21 5 -4 6 -16 11
-27 11 -11 0 -19 7 -19 18 0 10 -3 13 -8 6 -4 -6 -23 -13 -42 -17 -38 -6 -78
-23 -155 -66 l-50 -28 -6 -149 c-3 -82 -7 -151 -8 -154 -1 -3 -8 3 -15 13 -14
18 -15 18 -25 0 -8 -13 -10 16 -11 112 0 91 -4 135 -12 144 -9 9 -9 12 -1 7 8
-4 11 8 11 39 0 25 -4 45 -9 45 -6 0 -7 -4 -4 -10 4 -6 -1 -7 -11 -3 -11 4
-13 8 -6 11 7 2 10 8 7 13 -4 5 0 6 7 4 8 -3 14 2 15 12 1 10 4 31 7 47 4 21
0 33 -17 47 -27 22 -41 24 -33 4 3 -8 1 -15 -5 -15 -6 0 -7 19 -3 50 8 59 11
58 -101 25z m140 -535 c3 -6 -1 -7 -9 -4 -18 7 -21 14 -7 14 6 0 13 -4 16 -10z"/>
<path d="M4822 4032 c-8 -5 16 -20 67 -41 l79 -32 7 -82 6 -82 35 0 34 0 0 86
0 86 -59 22 c-42 15 -156 52 -156 51 0 0 -6 -4 -13 -8z"/>
<path d="M1878 3842 c-20 -4 -25 -47 -7 -58 16 -10 31 10 27 38 -2 16 -8 22
-20 20z"/>
<path d="M1823 3765 c0 -8 10 -16 21 -16 17 -1 18 -2 3 -6 -9 -2 -15 -9 -11
-14 3 -5 10 -7 15 -4 5 4 9 -3 9 -14 0 -11 -8 -22 -17 -24 -14 -3 -10 -8 15
-18 31 -13 47 -37 17 -25 -12 4 -15 -4 -15 -44 0 -53 1 -54 60 -23 18 9 20 13
8 13 -11 0 -18 7 -18 18 0 28 15 43 36 36 14 -4 16 -3 5 4 -12 9 -12 11 0 14
8 3 3 4 -11 3 -14 -1 -19 0 -11 3 12 3 12 5 0 13 -10 7 -5 8 13 3 22 -5 26 -2
24 12 -2 10 -11 21 -22 25 -17 7 -17 8 4 8 14 1 20 5 17 12 -4 6 -14 8 -22 5
-9 -4 -11 -2 -7 6 5 7 0 9 -14 6 -13 -4 -22 -1 -22 5 0 7 -17 13 -38 15 -29 2
-39 -2 -39 -13z m124 -61 c-3 -3 -12 -4 -19 -1 -8 3 -5 6 6 6 11 1 17 -2 13
-5z"/>
<path d="M1938 3623 c7 -3 16 -2 19 1 4 3 -2 6 -13 5 -11 0 -14 -3 -6 -6z"/>
<path d="M3820 3612 c0 -5 9 -17 20 -27 18 -17 20 -17 26 0 4 10 1 21 -7 26
-18 11 -39 12 -39 1z"/>
<path d="M1928 3603 c7 -3 16 -2 19 1 4 3 -2 6 -13 5 -11 0 -14 -3 -6 -6z"/>
<path d="M51 3224 c0 -11 3 -14 6 -6 3 7 2 16 -1 19 -3 4 -6 -2 -5 -13z"/>
<path d="M5022 3160 c0 -14 2 -19 5 -12 2 6 2 18 0 25 -3 6 -5 1 -5 -13z"/>
<path d="M62 3150 c0 -14 2 -19 5 -12 2 6 2 18 0 25 -3 6 -5 1 -5 -13z"/>
<path d="M4995 3023 c-9 -49 -23 -110 -31 -137 -8 -27 -14 -59 -13 -70 0 -20
1 -20 9 1 13 31 63 284 58 289 -3 2 -13 -35 -23 -83z"/>
<path d="M71 3084 c0 -11 3 -14 6 -6 3 7 2 16 -1 19 -3 4 -6 -2 -5 -13z"/>
<path d="M81 3034 c0 -11 3 -14 6 -6 3 7 2 16 -1 19 -3 4 -6 -2 -5 -13z"/>
<path d="M4912 2687 c-25 -87 -135 -342 -157 -367 -12 -13 -13 -20 -5 -25 14
-9 12 -12 48 60 52 106 151 389 139 401 -2 2 -13 -29 -25 -69z"/>
<path d="M171 2670 c0 -8 6 -28 14 -45 17 -39 18 -21 0 25 -7 19 -14 28 -14
20z"/>
<path d="M206 2565 c11 -45 50 -137 105 -252 l50 -102 39 27 c22 15 39 31 40
36 0 5 -6 3 -14 -3 -11 -10 -18 -8 -33 7 -10 11 -28 24 -40 31 -25 13 -67 87
-113 199 -36 86 -45 102 -34 57z"/>
</g>
</svg>
