<svg width="512" height="512" version="1.1" xmlns="http://www.w3.org/2000/svg" desc="Created with imagetracer.js version 1.2.6" ><path fill="rgb(7,7,7)" stroke="rgb(7,7,7)" stroke-width="1" opacity="0.9137254901960784" d="M 172.5 135 L 174.5 135 L 176.5 136 L 178.5 136 L 190.5 139 L 198 144 Q 196.9 146.7 199.5 146 L 206 155.5 L 210 166.5 Q 208.5 172 211 173.5 L 211 238.5 L 209.5 240 L 163 240 L 162.5 217 L 148 245.5 L 211 246 L 211 325.5 L 209.5 327 L 163 327 L 163 287.5 L 161.5 286 L 130.5 286 L 126 288.5 L 106.5 326 L 106 321.5 L 126 284 L 165 284 L 165 323.5 L 167.5 325 L 169.5 324 L 172.5 325 L 173.5 324 L 198.5 324 L 200.5 325 L 205.5 324 L 207.5 324 L 209 323.5 L 209 250.5 L 207.5 249 L 144 248.5 L 164.5 209 L 165 237 L 207.5 237 L 209 235.5 L 209 174.5 Q 206.5 173 208 167.5 Q 204.2 151.3 192.5 143 L 179.5 138 L 171.5 138 Q 159.5 140.5 153 148.5 L 147 156.5 L 110 223.5 L 99.5 240 L 98 239.5 L 103 229 Q 105.7 230.1 105 227.5 L 147.5 152 Q 149.8 152.8 149 150.5 L 153 145 L 160.5 139 L 168.5 136 L 170.5 137 L 172.5 135 Z " /><path fill="rgb(7,7,7)" stroke="rgb(7,7,7)" stroke-width="1" opacity="0.9137254901960784" d="M 31.5 138 L 81.5 138 L 88 140 Q 93.6 147.2 92 162.5 L 90.5 164 L 82 165 L 82 146 L 31 146 L 31 211 L 82 211 L 82 190.5 L 84.5 190 L 92 192 L 92 207.5 L 90 214.5 L 86.5 218 L 77.5 220 L 36.5 220 Q 34.8 217.3 28.5 219 L 24 215.5 L 21 205.5 L 21 152.5 L 23 143.5 L 27.5 139 L 31.5 138 Z " /><path fill="rgb(7,7,7)" stroke="rgb(7,7,7)" stroke-width="1" opacity="0.9137254901960784" d="M 169.5 157 L 172 157.5 L 169.5 158 L 169.5 157 Z " /><path fill="rgb(7,7,7)" stroke="rgb(7,7,7)" stroke-width="1" opacity="0.9137254901960784" d="M 176.5 157 Q 185.5 158 189 164.5 L 183.5 160 L 176.5 158 L 176.5 157 Z " /><path fill="rgb(7,7,7)" stroke="rgb(7,7,7)" stroke-width="1" opacity="0.9137254901960784" d="M 166.5 158 L 168 158.5 L 157 166.5 L 153.5 171 L 156 167.5 L 160.5 162 L 166.5 158 Z " /><path fill="rgb(7,7,7)" stroke="rgb(7,7,7)" stroke-width="1" opacity="0.9137254901960784" d="M 172.5 162 L 177.5 162 L 185 167.5 Q 190.7 173.1 189 185 L 186 185 L 186 176.5 L 180.5 168 L 173.5 166 L 164 172 L 163 168.5 L 172.5 162 Z " /><path fill="rgb(7,7,7)" stroke="rgb(7,7,7)" stroke-width="1" opacity="0.9137254901960784" d="M 189.5 166 L 192 170.5 L 191 170.5 L 189.5 166 Z " /><path fill="rgb(7,7,7)" stroke="rgb(7,7,7)" stroke-width="1" opacity="0.9137254901960784" d="M 171.5 171 Q 178.8 169.8 180 174.5 L 179.5 176 L 177.5 173 L 171.5 172 Q 162.8 178.8 157.5 189 L 158 187.5 L 167.5 174 L 171.5 171 Z " /><path fill="rgb(7,7,7)" stroke="rgb(7,7,7)" stroke-width="1" opacity="0.9137254901960784" d="M 152.5 172 L 151 174.5 L 149.5 177 L 150 175.5 L 152.5 172 Z " /><path fill="rgb(7,7,7)" stroke="rgb(7,7,7)" stroke-width="1" opacity="0.9137254901960784" d="M 192.5 172 L 193 174.5 L 192 174.5 L 192.5 172 Z " /><path fill="rgb(7,7,7)" stroke="rgb(7,7,7)" stroke-width="1" opacity="0.9137254901960784" d="M 148.5 178 L 148 179.5 L 144.5 186 L 145 184.5 L 148.5 178 Z " /><path fill="rgb(7,7,7)" stroke="rgb(7,7,7)" stroke-width="1" opacity="0.9137254901960784" d="M 193.5 179 L 194 187.5 L 193 187.5 L 193.5 179 Z " /><path fill="rgb(7,7,7)" stroke="rgb(7,7,7)" stroke-width="1" opacity="0.9137254901960784" d="M 152.5 182 Q 154.8 182.8 154 186.5 L 141.5 207 L 139 205.5 L 152.5 182 Z " /><path fill="rgb(7,7,7)" stroke="rgb(7,7,7)" stroke-width="1" opacity="0.9137254901960784" d="M 143.5 187 L 143 188.5 L 140.5 193 L 141 191.5 L 143.5 187 Z " /><path fill="rgb(7,7,7)" stroke="rgb(7,7,7)" stroke-width="1" opacity="0.9137254901960784" d="M 156.5 190 L 156 191.5 L 154.5 194 L 155 192.5 L 156.5 190 Z " /><path fill="rgb(7,7,7)" stroke="rgb(7,7,7)" stroke-width="1" opacity="0.9137254901960784" d="M 188.5 194 L 189 228 L 186 227.5 L 186 195 L 188.5 194 Z " /><path fill="rgb(7,7,7)" stroke="rgb(7,7,7)" stroke-width="1" opacity="0.9137254901960784" d="M 137.5 198 L 137 199.5 L 135.5 202 L 136 200.5 L 137.5 198 Z " /><path fill="rgb(7,7,7)" stroke="rgb(7,7,7)" stroke-width="1" opacity="0.9137254901960784" d="M 151.5 199 L 151 200.5 L 149.5 203 L 150 201.5 L 151.5 199 Z " /><path fill="rgb(7,7,7)" stroke="rgb(7,7,7)" stroke-width="1" opacity="0.9137254901960784" d="M 132.5 207 L 132 208.5 L 128.5 215 L 129 213.5 L 132.5 207 Z " /><path fill="rgb(7,7,7)" stroke="rgb(7,7,7)" stroke-width="1" opacity="0.9137254901960784" d="M 146.5 208 L 146 209.5 L 143.5 214 L 144 212.5 L 146.5 208 Z " /><path fill="rgb(7,7,7)" stroke="rgb(7,7,7)" stroke-width="1" opacity="0.9137254901960784" d="M 127.5 216 L 127 217.5 L 124.5 222 L 125 220.5 L 127.5 216 Z " /><path fill="rgb(7,7,7)" stroke="rgb(7,7,7)" stroke-width="1" opacity="0.9137254901960784" d="M 141.5 217 L 141 218.5 L 138.5 223 L 139 221.5 L 141.5 217 Z " /><path fill="rgb(7,7,7)" stroke="rgb(7,7,7)" stroke-width="1" opacity="0.9137254901960784" d="M 122.5 225 L 122 226.5 L 119.5 231 L 120 229.5 L 122.5 225 Z " /><path fill="rgb(7,7,7)" stroke="rgb(7,7,7)" stroke-width="1" opacity="0.9137254901960784" d="M 128.5 225 Q 132.8 226.8 130 228.5 L 115.5 255 L 113 254 L 113 251.5 L 128.5 225 Z " /><path fill="rgb(7,7,7)" stroke="rgb(7,7,7)" stroke-width="1" opacity="0.9137254901960784" d="M 136.5 226 L 136 227.5 L 133.5 232 L 134 230.5 L 136.5 226 Z " /><path fill="rgb(7,7,7)" stroke="rgb(7,7,7)" stroke-width="1" opacity="0.9137254901960784" d="M 131.5 235 L 131 236.5 L 127.5 243 L 128 241.5 L 131.5 235 Z " /><path fill="rgb(7,7,7)" stroke="rgb(7,7,7)" stroke-width="1" opacity="0.9137254901960784" d="M 116.5 236 L 116 237.5 L 113.5 242 L 114 240.5 L 116.5 236 Z " /><path fill="rgb(7,7,7)" stroke="rgb(7,7,7)" stroke-width="1" opacity="0.9137254901960784" d="M 21 243 L 29.5 243 L 31 244.5 L 62 298 Q 64.7 299.1 64 296.5 L 93 243 L 102.5 243 L 103 243.5 L 103 325 L 94.5 325 L 94 324.5 L 94 261.5 L 95 257.5 Q 93.5 254.5 92 257.5 Q 91.3 266.3 87 271.5 L 62.5 312 L 35 268.5 L 29.5 252 L 28 254.5 L 29 255.5 L 29 325 L 21.5 325 L 21 324.5 L 21 243 Z " /><path fill="rgb(7,7,7)" stroke="rgb(7,7,7)" stroke-width="1" opacity="0.9137254901960784" d="M 112.5 243 L 112 244.5 L 108.5 251 L 109 249.5 L 112.5 243 Z " /><path fill="rgb(7,7,7)" stroke="rgb(7,7,7)" stroke-width="1" opacity="0.9137254901960784" d="M 236.5 243 L 287.5 243 L 295 247.5 Q 298.4 255.1 297 267.5 L 295.5 269 L 288 270 L 288 252 L 236 252 L 236 316 L 286.5 316 L 288 314.5 L 288 295 L 297 297 L 297 313.5 Q 296.1 320.1 291.5 323 L 284.5 325 L 239.5 325 L 230 322 L 227 315.5 L 227 252.5 L 231.5 245 L 236.5 243 Z " /><path fill="rgb(7,7,7)" stroke="rgb(7,7,7)" stroke-width="1" opacity="0.9137254901960784" d="M 325.5 243 L 385.5 243 L 389.5 244 L 394 248.5 L 396 256.5 L 396 310.5 Q 393.8 311.8 395 316.5 L 390.5 323 L 383.5 325 L 328.5 325 L 321.5 323 L 318 319.5 L 316 314.5 L 316 253.5 L 318 247.5 L 320.5 245 L 325.5 243 Z M 325 252 L 325 316 L 386 316 Q 388 315 386 314 L 386 255 L 387 254 L 386 252 L 325 252 Z " /><path fill="rgb(7,7,7)" stroke="rgb(7,7,7)" stroke-width="1" opacity="0.9137254901960784" d="M 414 243 L 419.5 243 L 435 258.5 L 476 302.5 L 482.5 312 L 483 306.5 L 482 305.5 L 482 243 L 489.5 243 L 490 243.5 L 490 325 Q 484.5 326.3 483 322.5 L 430 265.5 L 422.5 254 Q 419.9 253.2 421 256.5 L 422 257.5 L 422 322.5 L 423 323.5 L 419.5 325 Q 415 326 414 323.5 L 414 243 Z " /><path fill="rgb(7,7,7)" stroke="rgb(7,7,7)" stroke-width="1" opacity="0.9137254901960784" d="M 126.5 244 L 126 245.5 L 123.5 250 L 124 248.5 L 126.5 244 Z " /><path fill="rgb(7,7,7)" stroke="rgb(7,7,7)" stroke-width="1" opacity="0.9137254901960784" d="M 120.5 255 L 120 256.5 L 118.5 259 L 119 257.5 L 120.5 255 Z " /><path fill="rgb(7,7,7)" stroke="rgb(7,7,7)" stroke-width="1" opacity="0.9137254901960784" d="M 115.5 264 L 115 265.5 L 112.5 270 L 113 268.5 L 115.5 264 Z " /><path fill="rgb(7,7,7)" stroke="rgb(7,7,7)" stroke-width="1" opacity="0.9137254901960784" d="M 111.5 271 L 111 272.5 L 107.5 279 L 108 277.5 L 111.5 271 Z " /><path fill="rgb(7,7,7)" stroke="rgb(7,7,7)" stroke-width="1" opacity="0.9137254901960784" d="M 90.5 283 L 90 284.5 L 88.5 287 L 89 285.5 L 90.5 283 Z " /><path fill="rgb(7,7,7)" stroke="rgb(7,7,7)" stroke-width="1" opacity="0.9137254901960784" d="M 91.5 291 L 92 297.5 L 81.5 316 Q 77.3 314.3 80 312.5 L 91.5 291 Z " /><path fill="rgb(7,7,7)" stroke="rgb(7,7,7)" stroke-width="1" opacity="0.9137254901960784" d="M 85.5 292 L 85 293.5 L 82.5 298 L 83 296.5 L 85.5 292 Z " /><path fill="rgb(7,7,7)" stroke="rgb(7,7,7)" stroke-width="1" opacity="0.9137254901960784" d="M 81.5 299 L 81 300.5 L 77.5 307 L 78 305.5 L 81.5 299 Z " /><path fill="rgb(7,7,7)" stroke="rgb(7,7,7)" stroke-width="1" opacity="0.9137254901960784" d="M 76.5 308 L 76 309.5 L 73.5 314 L 74 312.5 L 76.5 308 Z " /><path fill="rgb(7,7,7)" stroke="rgb(7,7,7)" stroke-width="1" opacity="0.9137254901960784" d="M 57 311 Q 60 309.8 59 313.5 L 53 323.5 L 56.5 325 L 59.5 324 L 61.5 325 Q 62.8 322.8 67.5 324 L 69.5 324 L 76.5 325 L 78.5 324 L 82.5 325 L 83.5 324 L 92 324 L 91.5 327 L 49 327 L 50 323 L 52 322.5 L 51.5 321 Q 54.1 321.8 53 318.5 L 57 311 Z " /><path fill="rgb(7,7,7)" stroke="rgb(7,7,7)" stroke-width="1" opacity="0.9137254901960784" d="M 21.5 345 L 33.5 345 L 36 347.5 Q 36.8 351.3 34.5 352 L 32 350.5 L 31.5 349 L 23 349 L 23 359.5 L 24.5 361 L 32 361 Q 29.9 355.8 34.5 357 Q 36.8 357.8 36 361.5 L 33.5 365 L 32.5 364 L 20 364 L 19 361.5 L 19 347.5 L 21.5 345 Z " /><path fill="rgb(7,7,7)" stroke="rgb(7,7,7)" stroke-width="1" opacity="0.9137254901960784" d="M 268.5 345 L 279.5 345 L 282 347.5 Q 282.8 351.3 280.5 352 L 278 350.5 L 277.5 349 L 269 349 L 269 359.5 L 270.5 361 Q 276.5 362.5 278 359.5 L 279.5 357 L 282 358.5 Q 283 364 279.5 365 L 278.5 364 L 267.5 364 L 265 361.5 L 265 347.5 L 266.5 346 L 268.5 345 Z " /><path fill="rgb(7,7,7)" stroke="rgb(7,7,7)" stroke-width="1" opacity="0.9137254901960784" d="M 43.5 348 L 44.5 349 L 57 349 Q 59.3 352.6 58 361.5 L 55.5 365 L 54.5 364 L 42 364 Q 40.2 360.2 41 352.5 L 43.5 348 Z M 46 351 L 44 353 L 44 361 L 55 361 L 55 351 L 46 351 Z " /><path fill="rgb(7,7,7)" stroke="rgb(7,7,7)" stroke-width="1" opacity="0.9137254901960784" d="M 360.5 348 L 363 352.5 L 359 354 L 359 351 L 351 351 L 351 361 L 359 361 L 360.5 358 L 363 359.5 L 363 361.5 L 360.5 364 Q 353.7 362.7 350.5 365 L 348 363.5 L 348 361.5 L 348 350.5 L 349.5 349 L 359.5 349 L 360.5 348 Z " /><path fill="rgb(7,7,7)" stroke="rgb(7,7,7)" stroke-width="1" opacity="0.9137254901960784" d="M 422.5 348 L 423.5 349 L 434 349 L 432.5 353 Q 430.6 349.3 424 351 L 423 354.5 L 432.5 355 L 434 356.5 L 435 360.5 L 432.5 365 L 431.5 364 L 421 364 L 420 360 Q 423.7 362.2 432 361 L 432 357 L 421.5 357 L 421 354.5 L 420 352.5 L 422.5 348 Z " /><path fill="rgb(7,7,7)" stroke="rgb(7,7,7)" stroke-width="1" opacity="0.9137254901960784" d="M 63 349 L 65.5 349 L 71 354.5 Q 70.3 356.8 72.5 356 L 74.5 359 Q 77.3 357.7 75 356.5 L 75 349 L 78 349 L 78 364.5 L 76 365 Q 77.1 362.3 74.5 363 L 71.5 359 Q 69.3 359.8 70 357.5 L 67 356 Q 68.1 353.3 65.5 354 L 66 355.5 L 66 364 L 63 364 L 63 349 Z " /><path fill="rgb(7,7,7)" stroke="rgb(7,7,7)" stroke-width="1" opacity="0.9137254901960784" d="M 85.5 349 L 96.5 349 L 97 350.5 L 97.5 352 L 95.5 353 L 95 351 L 86 351.5 L 87 355 L 96.5 355 L 98 356.5 Q 99.5 362.5 96.5 364 L 86.5 364 L 85.5 365 L 85 363 L 83 362.5 L 84 360 Q 87.4 362.1 95 361 L 95 357 L 85.5 357 Q 82.8 355.8 84 350.5 L 85.5 349 Z " /><path fill="rgb(7,7,7)" stroke="rgb(7,7,7)" stroke-width="1" opacity="0.9137254901960784" d="M 101 349 L 115.5 349 L 116 351 L 111 351 L 111 363.5 Q 109.8 366.3 108.5 364 L 107 363.5 L 107 352.5 L 107.5 351 Q 99.9 352.5 101 349 Z " /><path fill="rgb(7,7,7)" stroke="rgb(7,7,7)" stroke-width="1" opacity="0.9137254901960784" d="M 120 349 L 134 349 L 134 358 L 130 358.5 L 135 364.5 L 133.5 364 L 131.5 364 L 125.5 358 L 123.5 358 L 123 360.5 Q 124.5 365.8 120 364 L 120 349 Z M 125 351 L 123 355 L 125 356 L 132 356 L 132 351 L 125 351 Z " /><path fill="rgb(7,7,7)" stroke="rgb(7,7,7)" stroke-width="1" opacity="0.9137254901960784" d="M 139 349 L 142 349.5 L 142 361 L 152 361 L 152 349.5 L 154 349 L 154 361.5 L 153 364 L 142.5 364 L 141.5 365 L 139 361.5 L 139 349 Z " /><path fill="rgb(7,7,7)" stroke="rgb(7,7,7)" stroke-width="1" opacity="0.9137254901960784" d="M 160.5 349 L 173 349 L 173 353.5 L 171 354.5 L 171 351 L 162 351 L 163 353.5 L 162 354.5 L 162 361 L 170.5 361 L 171 358.5 L 173 359.5 Q 173.8 363.3 171.5 364 L 162.5 364 L 161.5 365 L 159 362.5 L 159 350.5 L 160.5 349 Z " /><path fill="rgb(7,7,7)" stroke="rgb(7,7,7)" stroke-width="1" opacity="0.9137254901960784" d="M 177 349 L 191.5 349 L 192 351 Q 186.6 349.5 185 352.5 L 185 363.5 L 183 364 L 183 351 L 177 351 L 177 349 Z " /><path fill="rgb(7,7,7)" stroke="rgb(7,7,7)" stroke-width="1" opacity="0.9137254901960784" d="M 196 349 L 211 349 L 211 362.5 L 209.5 365 L 208.5 364 L 198.5 364 Q 197.3 366.3 196 363.5 Q 193.3 359.7 195 351.5 L 196 349 Z M 199 351 L 199 353 L 198 354 L 198 361 L 209 361 L 209 353 L 208 351 L 199 351 Z " /><path fill="rgb(7,7,7)" stroke="rgb(7,7,7)" stroke-width="1" opacity="0.9137254901960784" d="M 217 349 L 228.5 349 L 231 350 Q 232.7 356.1 229.5 358 L 226 358.5 L 231 363.5 L 229.5 365 L 223 359.5 L 223 358 L 219 358 L 219 364.5 L 217 365 L 217 349 Z M 219 351 L 219 356 L 228 356 L 228 351 L 219 351 Z " /><path fill="rgb(7,7,7)" stroke="rgb(7,7,7)" stroke-width="1" opacity="0.9137254901960784" d="M 240.5 349 L 244 350.5 L 250 364 L 247.5 365 L 245 360 L 237.5 360 L 237 361.5 L 234.5 365 L 233 362.5 L 240.5 349 Z M 242 352 L 239 357 Q 238 359 243 358 L 244 359 L 242 352 Z " /><path fill="rgb(7,7,7)" stroke="rgb(7,7,7)" stroke-width="1" opacity="0.9137254901960784" d="M 294.5 349 Q 297.8 347.9 297 350.5 L 299 352.5 L 303 364 Q 299.3 365.5 300 362.5 L 299 360 L 291.5 360 L 291 361.5 L 290 364 L 287.5 365 L 287 362.5 L 292 351.5 L 294.5 349 Z M 294 352 L 292 357 L 293 358 L 298 358 L 296 354 Q 297 351 294 352 Z " /><path fill="rgb(7,7,7)" stroke="rgb(7,7,7)" stroke-width="1" opacity="0.9137254901960784" d="M 307 349 Q 310.8 348.3 312 351.5 L 314 354.5 Q 311.8 355.8 314.5 357 L 318 356 L 318 353.5 L 321.5 349 L 324 349.5 L 324 363.5 L 322 364.5 L 322 354.5 L 320 354 L 320 357 Q 317.3 355.9 318 358.5 L 315.5 362 L 310.5 355 L 310 363.5 L 308.5 365 L 307 363.5 L 307 349 Z " /><path fill="rgb(7,7,7)" stroke="rgb(7,7,7)" stroke-width="1" opacity="0.9137254901960784" d="M 334 349 Q 337.8 348 339 350.5 L 345 364.5 L 343.5 364 L 341 362.5 L 339.5 360 L 332.5 360 L 332 362.5 L 328.5 365 L 328 363.5 L 332 356.5 L 334 349 Z M 337 352 L 333 358 L 339 358 L 337 352 Z " /><path fill="rgb(7,7,7)" stroke="rgb(7,7,7)" stroke-width="1" opacity="0.9137254901960784" d="M 368.5 349 L 381.5 349 L 383 350.5 L 383 362.5 L 381.5 364 Q 373.3 362.3 369.5 365 L 367 362.5 L 367 350.5 L 368.5 349 Z M 370 351 L 370 361 L 380 361 L 380 351 L 370 351 Z " /><path fill="rgb(7,7,7)" stroke="rgb(7,7,7)" stroke-width="1" opacity="0.9137254901960784" d="M 388 349 Q 391.8 348 393 350.5 Q 392.3 353.1 395 352 L 395 355 Q 398.8 353.5 398 356.5 L 401 358.5 L 401 349.5 L 404 349 L 404 363.5 L 402.5 364 Q 401.2 366.3 400 363.5 L 398.5 361 Q 396.3 361.8 397 359.5 L 394 358 L 392.5 355 L 391 355.5 L 391 364.5 L 389.5 364 L 388 363.5 L 388 349 Z " /><path fill="rgb(7,7,7)" stroke="rgb(7,7,7)" stroke-width="1" opacity="0.9137254901960784" d="M 455.5 349 Q 458.8 347.9 458 350.5 L 465 364.5 L 462 364.5 L 460 360 L 452.5 360 L 452 361.5 L 449.5 365 L 448 362.5 L 453 354.5 Q 450.5 353 454 351.5 L 455.5 349 Z M 455 352 L 453 358 L 459 358 L 457 354 Q 458 351 455 352 Z " /><path fill="rgb(7,7,7)" stroke="rgb(7,7,7)" stroke-width="1" opacity="0.9137254901960784" d="M 479.5 349 L 491.5 349 L 492 352 Q 488.6 349.9 481 351 L 481 355 L 490.5 355 Q 493.8 356.8 492 363.5 L 490.5 365 L 487.5 364 Q 481.4 363.3 479 365 L 478 360 Q 481.7 362.2 490 361 L 488.5 357 L 479.5 357 L 478 355.5 Q 476.8 350.3 479.5 349 Z " /><path fill="rgb(7,7,7)" stroke="rgb(7,7,7)" stroke-width="1" opacity="0.9137254901960784" d="M 440.5 359 Q 446.2 357.2 444 363.5 Q 442.8 366.3 441.5 364 L 439 362.5 L 440.5 359 Z " /><path fill="rgb(7,7,7)" stroke="rgb(7,7,7)" stroke-width="1" opacity="0.9137254901960784" d="M 468 359 L 473 359 L 473 363.5 Q 471.8 366.3 470.5 364 L 468 364 L 468 359 Z " /><path fill="rgb(0,0,0)" stroke="rgb(0,0,0)" stroke-width="1" opacity="0" d="M 0 0 L 512 0 L 512 512 L 0 512 L 0 0 Z M 29 135 L 23 138 L 19 145 Q 20 149 18 151 L 18 208 L 21 217 L 26 221 L 35 223 L 79 223 Q 80 221 86 222 L 89 220 Q 91 221 90 218 L 92 218 Q 97 208 95 190 L 82 186 L 80 188 L 80 208 L 33 208 L 34 207 L 34 150 L 80 150 L 80 169 L 95 166 Q 97 149 91 140 L 85 135 L 29 135 Z M 168 135 L 167 136 Q 163 135 164 138 L 163 137 L 155 143 Q 152 142 153 146 L 152 146 L 147 151 L 140 164 L 140 166 L 138 166 L 136 171 L 136 173 L 133 174 L 127 187 Q 128 190 125 189 L 121 198 Q 122 200 119 199 L 118 203 L 118 205 L 116 208 L 113 209 L 112 214 Q 113 216 110 215 L 103 229 L 103 231 L 100 235 Q 96 236 99 238 L 98 238 L 98 240 L 92 240 L 65 291 L 63 292 L 38 253 L 32 240 L 31 240 L 19 240 L 18 241 L 18 327 L 20 328 L 32 328 L 33 269 L 57 310 Q 59 311 56 313 Q 57 315 55 314 L 55 316 L 53 316 L 53 320 L 51 320 L 48 327 L 50 328 L 91 328 L 93 328 L 106 328 Q 105 325 108 326 L 111 320 L 112 317 Q 111 314 114 315 L 113 314 L 118 306 Q 117 303 120 304 L 119 303 L 121 302 L 120 301 L 122 300 L 124 296 L 124 294 L 126 293 L 125 292 L 127 291 L 126 290 L 128 289 L 127 288 L 131 286 L 162 286 L 163 289 L 163 327 L 162 328 L 211 328 L 211 246 L 149 246 Q 147 242 151 243 L 150 242 L 152 241 L 153 239 Q 152 235 155 236 L 154 235 L 156 234 L 155 232 L 158 230 L 159 227 L 159 225 L 161 224 L 160 223 L 162 222 L 163 219 L 163 240 L 211 240 L 211 171 L 211 169 L 210 162 Q 206 160 209 159 L 205 152 L 204 152 L 203 150 Q 204 147 202 148 L 199 144 Q 196 145 197 143 L 187 137 L 185 137 L 184 135 L 182 136 L 178 135 L 176 135 L 174 136 L 170 135 L 168 135 Z M 235 240 L 228 243 L 224 253 L 224 315 L 226 322 L 231 326 L 239 328 L 285 328 L 295 325 L 299 319 L 300 314 L 300 294 L 289 291 L 285 292 L 285 313 L 284 312 L 239 312 L 239 254 L 285 254 L 285 274 L 299 272 L 300 270 Q 302 254 297 246 L 290 240 L 237 240 L 235 240 Z M 324 240 L 321 241 Q 314 245 313 254 L 313 315 L 316 323 L 323 327 L 328 328 L 384 328 Q 385 326 390 327 L 395 324 L 397 321 L 399 312 L 399 256 L 396 246 L 389 240 L 326 240 L 324 240 Z M 411 240 L 411 326 L 412 328 L 425 328 L 425 328 L 425 266 L 427 265 L 447 288 Q 446 290 449 289 L 449 291 L 476 319 L 480 324 Q 483 330 493 328 L 493 241 L 493 240 L 479 240 L 479 301 L 480 302 L 480 303 L 475 297 L 473 295 L 471 293 L 468 291 L 463 283 L 459 281 Q 460 278 458 279 L 447 266 L 444 265 Q 445 262 443 263 L 440 260 L 437 258 L 432 252 Q 433 249 431 250 L 429 248 L 427 246 L 424 242 L 422 242 L 422 240 L 411 240 Z M 21 344 Q 16 346 19 348 L 19 362 L 18 363 L 19 365 L 23 364 Q 31 362 35 365 Q 39 363 36 362 L 36 356 L 34 356 L 32 356 L 32 361 L 25 361 L 23 360 L 23 350 L 25 350 L 32 350 L 32 353 L 37 352 L 36 351 L 37 348 L 36 346 Q 35 343 34 345 L 22 345 L 21 344 Z M 267 344 L 265 346 L 265 362 L 267 365 L 269 364 L 279 364 L 280 365 L 283 364 Q 281 362 282 357 L 280 357 Q 281 354 277 355 L 278 358 L 277 360 Q 278 363 271 361 L 269 360 L 269 350 L 271 350 Q 276 351 278 349 L 277 353 L 282 352 L 283 346 L 282 346 L 281 345 L 268 345 L 267 344 Z M 45 347 L 41 349 L 41 363 L 42 365 L 45 364 Q 53 363 58 365 L 59 363 L 58 362 L 58 352 Q 60 350 58 349 L 56 349 L 56 347 L 45 347 Z M 62 347 L 63 350 L 63 364 L 66 364 L 66 356 Q 69 355 68 358 L 71 359 L 73 362 Q 75 361 74 364 L 78 365 L 78 351 L 80 349 Q 79 346 75 347 L 75 357 L 73 355 L 72 355 L 71 354 L 68 352 L 67 349 Q 64 350 65 347 L 62 347 Z M 87 347 L 83 348 L 84 351 Q 86 356 83 358 L 85 359 L 82 364 L 85 364 L 87 364 L 96 364 L 97 365 L 99 364 L 98 362 L 99 357 L 97 354 Q 96 351 99 352 L 98 349 L 96 349 L 96 347 L 87 347 Z M 101 347 L 101 349 Q 100 353 106 351 L 107 353 L 107 364 L 110 365 L 111 364 L 111 351 L 118 352 L 117 349 L 117 347 L 101 347 Z M 120 347 L 120 364 Q 125 366 123 360 L 127 359 L 131 365 L 133 364 L 137 365 L 136 363 Q 133 364 134 362 L 132 360 L 136 356 Q 137 350 133 349 L 133 347 L 120 347 Z M 139 347 L 139 363 L 140 365 L 143 364 L 152 364 L 153 365 L 155 364 L 154 362 L 154 350 L 155 347 L 150 347 L 150 361 L 142 361 L 142 350 L 144 348 L 139 347 Z M 162 347 L 161 348 L 159 349 L 159 363 Q 161 367 163 364 Q 170 363 174 365 L 175 363 Q 176 358 174 357 L 172 358 L 170 357 L 169 361 L 163 361 L 163 353 L 169 353 Q 168 356 174 355 Q 176 354 175 350 L 172 349 L 172 347 L 162 347 Z M 176 347 L 177 350 L 177 351 L 182 351 L 181 354 L 181 365 L 184 365 L 186 365 L 187 365 L 187 351 L 192 351 L 193 348 L 176 347 Z M 198 347 L 197 348 Q 194 347 195 350 L 195 352 L 195 362 L 194 363 L 195 365 L 199 364 Q 207 362 211 365 L 212 364 L 212 351 L 209 347 L 198 347 Z M 216 347 L 215 350 L 215 365 L 221 365 L 221 360 L 224 360 L 229 364 Q 230 366 231 364 Q 232 359 228 361 L 228 359 L 231 359 L 231 348 L 229 347 L 216 347 Z M 241 347 L 234 360 L 232 364 L 234 364 L 236 364 L 238 364 L 239 362 L 246 362 L 245 364 L 247 364 L 250 365 L 252 365 L 250 362 Q 251 359 249 360 L 248 358 Q 249 355 246 356 L 244 349 L 241 347 Z M 293 347 L 293 349 Q 289 350 292 352 L 289 356 L 287 363 L 286 365 L 289 364 Q 292 365 291 362 L 299 362 L 299 364 L 305 364 L 305 363 L 304 363 L 303 362 L 303 360 Q 304 357 302 358 L 301 356 Q 302 353 300 354 L 300 353 L 298 350 L 298 347 L 293 347 Z M 307 347 L 307 349 L 307 364 L 309 365 Q 311 364 310 358 L 311 358 Q 310 360 313 359 L 313 362 L 317 363 L 317 361 Q 320 362 319 360 L 319 358 L 320 359 L 320 365 L 323 365 L 324 364 L 324 349 L 325 348 L 322 347 Q 319 348 321 350 L 318 351 L 317 355 L 315 356 Q 316 353 313 354 L 311 349 Q 310 346 307 347 Z M 334 347 L 334 351 L 327 363 L 328 365 L 331 365 Q 334 366 332 362 L 340 362 L 340 365 L 343 365 L 345 365 L 346 363 L 345 362 L 344 360 Q 345 357 342 358 L 342 355 L 338 349 L 338 347 L 334 347 Z M 351 347 L 350 348 Q 347 347 348 350 L 348 352 L 348 362 L 347 363 L 348 365 L 353 364 Q 359 362 361 365 L 363 364 L 362 361 L 363 357 L 359 360 L 359 361 L 351 361 L 352 352 Q 353 355 359 353 L 363 355 L 362 354 L 363 351 Q 361 345 351 347 Z M 369 347 L 369 349 L 368 348 Q 365 349 367 351 L 367 363 L 366 364 L 369 365 L 372 364 Q 379 363 383 365 L 382 364 L 383 363 L 383 350 L 384 349 L 381 347 L 369 347 Z M 387 347 L 388 350 L 388 364 L 391 365 L 392 356 L 394 357 L 397 361 Q 399 360 398 363 L 402 365 L 404 364 L 404 348 L 401 347 L 401 349 L 401 357 L 398 356 L 397 353 L 394 351 L 392 349 Q 391 346 387 347 Z M 424 347 L 419 351 L 420 355 L 419 356 L 422 359 L 419 363 L 421 365 L 423 364 Q 430 363 434 365 L 435 364 L 435 355 L 435 353 L 434 348 Q 431 346 424 347 Z M 454 347 L 453 351 L 453 353 L 451 353 L 450 356 L 451 358 L 449 358 L 448 362 L 450 365 Q 454 366 452 362 L 460 362 L 461 364 Q 460 366 463 365 L 465 365 Q 467 366 466 364 Q 462 362 465 361 Q 466 358 464 359 L 462 357 Q 464 355 462 354 Q 459 355 460 353 Q 462 351 460 350 Q 457 351 458 347 L 454 347 Z M 481 347 L 480 348 L 478 349 L 478 358 L 481 359 L 490 359 L 490 361 L 481 361 L 480 359 Q 477 358 478 363 Q 476 364 479 365 L 488 364 L 491 365 L 492 364 Q 490 357 493 356 L 491 349 L 491 347 L 481 347 Z M 441 357 L 440 358 Q 437 357 438 360 L 438 364 Q 437 366 441 365 L 443 365 L 446 363 L 446 359 Q 443 360 444 357 L 441 357 Z M 470 357 Q 467 358 468 364 L 468 365 L 471 364 Q 472 366 473 364 L 473 357 L 470 357 Z " /><path fill="rgb(0,0,0)" stroke="rgb(0,0,0)" stroke-width="1" opacity="0" d="M 328 254 L 378.5 254 L 382.5 255 L 384 254.5 L 383.5 313 L 382.5 312 L 329.5 312 L 328 312.5 L 328 254 Z " /><path fill="rgb(0,0,0)" stroke="rgb(0,0,0)" stroke-width="1" opacity="0" d="M 88.5 351 Q 93.8 349.8 95 352.5 L 87.5 354 L 87 352.5 L 88.5 351 Z " /><path fill="rgb(0,0,0)" stroke="rgb(0,0,0)" stroke-width="1" opacity="0" d="M 124.5 351 L 129.5 351 L 130 353 L 131.5 353 L 131.5 354 L 130 354 L 129.5 356 L 124.5 356 L 123 352.5 L 124.5 351 Z " /><path fill="rgb(0,0,0)" stroke="rgb(0,0,0)" stroke-width="1" opacity="0" d="M 220.5 351 Q 226.5 349.5 228 352.5 L 227.5 354 L 226 353.5 L 227 355.5 L 221 356 L 220.5 351 Z " /><path fill="rgb(0,0,0)" stroke="rgb(0,0,0)" stroke-width="1" opacity="0" d="M 424 351 Q 430.1 349.3 432 352.5 L 424.5 354 L 424 351 Z " /><path fill="rgb(0,0,0)" stroke="rgb(0,0,0)" stroke-width="1" opacity="0" d="M 482 351 L 488 351 L 488 353 L 481.5 354 L 482 352.5 L 482 351 Z " /><path fill="rgb(0,0,0)" stroke="rgb(0,0,0)" stroke-width="1" opacity="0" d="M 53.5 352 L 55 352.5 L 55 361 L 46 361 L 46 353 L 52.5 353 L 53.5 352 Z " /><path fill="rgb(0,0,0)" stroke="rgb(0,0,0)" stroke-width="1" opacity="0" d="M 241.5 352 L 242 353.5 L 241.5 355 L 243 355.5 L 242.5 358 Q 238.1 359.5 239 356.5 L 241.5 352 Z " /><path fill="rgb(0,0,0)" stroke="rgb(0,0,0)" stroke-width="1" opacity="0" d="M 370.5 352 Q 372.2 354.8 378.5 353 L 380 352.5 L 380 361 L 370 361 L 370.5 352 Z " /><path fill="rgb(0,0,0)" stroke="rgb(0,0,0)" stroke-width="1" opacity="0" d="M 198 353 L 207 353 L 207 359.5 L 207.5 361 L 198 361 L 198 353 Z " /><path fill="rgb(0,0,0)" stroke="rgb(0,0,0)" stroke-width="1" opacity="0" d="M 336.5 354 L 337 357 L 339 357.5 L 335 358 L 336.5 354 Z " /><path fill="rgb(0,0,0)" stroke="rgb(0,0,0)" stroke-width="1" opacity="0" d="M 456.5 354 L 458 357.5 L 455 358 L 456.5 354 Z " /><path fill="rgb(0,0,0)" stroke="rgb(0,0,0)" stroke-width="1" opacity="0" d="M 294 355 Q 297.3 353.9 296 358 Q 292.7 359.1 294 355 Z " /><path fill="rgb(0,0,0)" stroke="rgb(0,0,0)" stroke-width="1" opacity="0" d="M 86 359 L 94.5 359 L 95 361 L 86.5 361 L 86 359 Z " /><path fill="rgb(0,0,0)" stroke="rgb(0,0,0)" stroke-width="1" opacity="0" d="M 423 359 L 432 359.5 L 430.5 361 L 423 361 L 423 359 Z " /><path fill="rgb(142,133,65)" stroke="rgb(142,133,65)" stroke-width="1" opacity="0.8235294117647058" d="M 167.5 135 L 168 137 L 164.5 138 L 165.5 136 L 167.5 135 Z " /><path fill="rgb(142,133,65)" stroke="rgb(142,133,65)" stroke-width="1" opacity="0.8235294117647058" d="M 169 135 L 172 135.5 L 169 137 L 169 135 Z " /><path fill="rgb(142,133,65)" stroke="rgb(142,133,65)" stroke-width="1" opacity="0.8235294117647058" d="M 178.5 135 L 181 135.5 L 178.5 136 L 178.5 135 Z " /><path fill="rgb(142,133,65)" stroke="rgb(142,133,65)" stroke-width="1" opacity="0.8235294117647058" d="M 182.5 135 L 183.5 137 Q 180.7 137.7 182.5 135 Z " /><path fill="rgb(142,133,65)" stroke="rgb(142,133,65)" stroke-width="1" opacity="0.8235294117647058" d="M 185.5 136 L 190 138.5 L 188.5 139 L 185.5 136 Z " /><path fill="rgb(142,133,65)" stroke="rgb(142,133,65)" stroke-width="1" opacity="0.8235294117647058" d="M 32.5 137 L 81.5 137 L 87 139.5 L 85.5 139 L 81.5 138 L 32.5 138 L 32.5 137 Z " /><path fill="rgb(142,133,65)" stroke="rgb(142,133,65)" stroke-width="1" opacity="0.8235294117647058" d="M 28.5 138 L 31 138.5 L 28.5 139 L 28.5 138 Z " /><path fill="rgb(142,133,65)" stroke="rgb(142,133,65)" stroke-width="1" opacity="0.8235294117647058" d="M 171.5 138 L 180 138.5 L 171.5 139 L 171.5 138 Z " /><path fill="rgb(142,133,65)" stroke="rgb(142,133,65)" stroke-width="1" opacity="0.8235294117647058" d="M 26.5 139 L 23 143.5 L 21.5 152 L 21 146.5 L 26.5 139 Z " /><path fill="rgb(142,133,65)" stroke="rgb(142,133,65)" stroke-width="1" opacity="0.8235294117647058" d="M 181.5 139 L 184 139.5 L 181.5 140 L 181.5 139 Z " /><path fill="rgb(142,133,65)" stroke="rgb(142,133,65)" stroke-width="1" opacity="0.8235294117647058" d="M 88.5 140 L 91 144.5 L 90 144.5 L 88.5 140 Z " /><path fill="rgb(142,133,65)" stroke="rgb(142,133,65)" stroke-width="1" opacity="0.8235294117647058" d="M 157.5 140 L 159 140.5 L 153.5 145 L 157.5 140 Z " /><path fill="rgb(142,133,65)" stroke="rgb(142,133,65)" stroke-width="1" opacity="0.8235294117647058" d="M 164.5 140 L 166 140.5 L 161.5 143 L 162.5 141 L 164.5 140 Z " /><path fill="rgb(142,133,65)" stroke="rgb(142,133,65)" stroke-width="1" opacity="0.8235294117647058" d="M 185.5 140 Q 195.9 143.1 201 151.5 L 206 161.5 L 205 161.5 Q 201.3 150.3 192.5 144 L 185.5 141 L 185.5 140 Z " /><path fill="rgb(142,133,65)" stroke="rgb(142,133,65)" stroke-width="1" opacity="0.8235294117647058" d="M 194.5 141 L 197 142.5 L 196.5 144 L 194.5 141 Z " /><path fill="rgb(142,133,65)" stroke="rgb(142,133,65)" stroke-width="1" opacity="0.8235294117647058" d="M 159.5 143 L 156.5 147 L 154 148.5 L 146.5 159 L 147 157.5 L 155.5 146 L 159.5 143 Z " /><path fill="rgb(142,133,65)" stroke="rgb(142,133,65)" stroke-width="1" opacity="0.8235294117647058" d="M 198.5 144 L 199.5 146 Q 196.7 146.7 198.5 144 Z " /><path fill="rgb(142,133,65)" stroke="rgb(142,133,65)" stroke-width="1" opacity="0.8235294117647058" d="M 31 146 L 81.5 146 L 82 147.5 L 80.5 147 L 32.5 147 L 31.5 148 L 31 146 Z " /><path fill="rgb(142,133,65)" stroke="rgb(142,133,65)" stroke-width="1" opacity="0.8235294117647058" d="M 91.5 146 L 92 149.5 L 91 149.5 L 91.5 146 Z " /><path fill="rgb(142,133,65)" stroke="rgb(142,133,65)" stroke-width="1" opacity="0.8235294117647058" d="M 151.5 146 L 153 146.5 L 149 152 Q 146.3 153.1 147 150.5 L 151.5 146 Z " /><path fill="rgb(142,133,65)" stroke="rgb(142,133,65)" stroke-width="1" opacity="0.8235294117647058" d="M 202.5 148 L 208 156.5 Q 207.3 160.8 210 161.5 L 210 165.5 L 209 165.5 L 206 155.5 L 203 152.5 L 203.5 151 Q 200.4 151.7 202.5 148 Z " /><path fill="rgb(142,133,65)" stroke="rgb(142,133,65)" stroke-width="1" opacity="0.8235294117647058" d="M 145.5 154 L 146 155.5 L 141.5 162 L 142 160.5 L 145.5 154 Z " /><path fill="rgb(142,133,65)" stroke="rgb(142,133,65)" stroke-width="1" opacity="0.8235294117647058" d="M 169.5 156 L 174.5 157 L 179.5 156 L 190 164.5 L 191 166.5 L 189 167.5 L 189.5 166 L 183 160.5 L 183.5 159 L 181.5 160 L 181.5 158 L 178.5 159 L 178.5 158 L 180 157.5 L 176.5 157 L 172.5 158 L 169.5 157 L 169.5 159 L 165.5 161 L 165.5 158 L 167.5 159 L 167.5 157 L 169.5 156 Z " /><path fill="rgb(142,133,65)" stroke="rgb(142,133,65)" stroke-width="1" opacity="0.8235294117647058" d="M 163.5 159 L 164 161.5 L 161.5 164 L 161 161.5 L 163.5 159 Z " /><path fill="rgb(142,133,65)" stroke="rgb(142,133,65)" stroke-width="1" opacity="0.8235294117647058" d="M 144.5 162 L 144 163.5 L 142.5 166 L 143 164.5 L 144.5 162 Z " /><path fill="rgb(142,133,65)" stroke="rgb(142,133,65)" stroke-width="1" opacity="0.8235294117647058" d="M 170.5 162 L 172 162.5 L 167.5 165 L 168.5 163 L 170.5 162 Z " /><path fill="rgb(142,133,65)" stroke="rgb(142,133,65)" stroke-width="1" opacity="0.8235294117647058" d="M 178.5 162 L 186 167.5 L 187 169.5 L 185 168.5 L 181.5 164 Q 177.8 163.7 178.5 162 Z " /><path fill="rgb(142,133,65)" stroke="rgb(142,133,65)" stroke-width="1" opacity="0.8235294117647058" d="M 91.5 163 L 90.5 165 L 82.5 166 L 82.5 165 L 91.5 163 Z " /><path fill="rgb(142,133,65)" stroke="rgb(142,133,65)" stroke-width="1" opacity="0.8235294117647058" d="M 140.5 163 L 139.5 165 L 140.5 163 Z " /><path fill="rgb(142,133,65)" stroke="rgb(142,133,65)" stroke-width="1" opacity="0.8235294117647058" d="M 158.5 163 L 159 165.5 L 151.5 175 Q 148.3 173.3 152 171.5 L 155.5 167 L 157 167.5 L 156 165.5 L 158.5 163 Z " /><path fill="rgb(142,133,65)" stroke="rgb(142,133,65)" stroke-width="1" opacity="0.8235294117647058" d="M 206.5 163 L 207 165.5 L 206 165.5 L 206.5 163 Z " /><path fill="rgb(142,133,65)" stroke="rgb(142,133,65)" stroke-width="1" opacity="0.8235294117647058" d="M 165.5 165 L 163 168.5 L 165 172.5 L 163 171.5 L 162 168.5 L 165.5 165 Z " /><path fill="rgb(142,133,65)" stroke="rgb(142,133,65)" stroke-width="1" opacity="0.8235294117647058" d="M 138.5 166 L 139 167.5 L 137 172 L 135 171.5 L 138.5 166 Z " /><path fill="rgb(142,133,65)" stroke="rgb(142,133,65)" stroke-width="1" opacity="0.8235294117647058" d="M 173.5 166 Q 180.1 166.4 183 170.5 L 184 172.5 L 182 171.5 L 180.5 169 L 173.5 167 L 171.5 168 L 171.5 167 L 173.5 166 Z " /><path fill="rgb(142,133,65)" stroke="rgb(142,133,65)" stroke-width="1" opacity="0.8235294117647058" d="M 207.5 167 L 208 169.5 L 207 169.5 L 207.5 167 Z " /><path fill="rgb(142,133,65)" stroke="rgb(142,133,65)" stroke-width="1" opacity="0.8235294117647058" d="M 169.5 168 L 166.5 172 L 169.5 168 Z " /><path fill="rgb(142,133,65)" stroke="rgb(142,133,65)" stroke-width="1" opacity="0.8235294117647058" d="M 191.5 168 L 190.5 170 L 191.5 168 Z " /><path fill="rgb(142,133,65)" stroke="rgb(142,133,65)" stroke-width="1" opacity="0.8235294117647058" d="M 140.5 169 L 140 170.5 L 137.5 175 L 138 173.5 L 140.5 169 Z " /><path fill="rgb(142,133,65)" stroke="rgb(142,133,65)" stroke-width="1" opacity="0.8235294117647058" d="M 172.5 170 L 176 170.5 L 172.5 171 L 172.5 170 Z " /><path fill="rgb(142,133,65)" stroke="rgb(142,133,65)" stroke-width="1" opacity="0.8235294117647058" d="M 192.5 170 L 193 171.5 L 191 172.5 L 192.5 170 Z " /><path fill="rgb(142,133,65)" stroke="rgb(142,133,65)" stroke-width="1" opacity="0.8235294117647058" d="M 210.5 170 L 211 172.5 L 210 172.5 L 210.5 170 Z " /><path fill="rgb(142,133,65)" stroke="rgb(142,133,65)" stroke-width="1" opacity="0.8235294117647058" d="M 170.5 171 L 176 172.5 Q 170.9 171.9 169.5 175 Q 166 173 170.5 171 Z " /><path fill="rgb(142,133,65)" stroke="rgb(142,133,65)" stroke-width="1" opacity="0.8235294117647058" d="M 177.5 171 Q 182 173 178.5 175 L 177 173.5 L 177.5 171 Z " /><path fill="rgb(142,133,65)" stroke="rgb(142,133,65)" stroke-width="1" opacity="0.8235294117647058" d="M 134.5 174 L 135 175.5 Q 129.5 180 127.5 188 L 127 186.5 L 134.5 174 Z " /><path fill="rgb(142,133,65)" stroke="rgb(142,133,65)" stroke-width="1" opacity="0.8235294117647058" d="M 184.5 174 L 186 179.5 L 185 179.5 L 184.5 174 Z " /><path fill="rgb(142,133,65)" stroke="rgb(142,133,65)" stroke-width="1" opacity="0.8235294117647058" d="M 193.5 174 L 194 178.5 L 192 179.5 Q 191 175 193.5 174 Z " /><path fill="rgb(142,133,65)" stroke="rgb(142,133,65)" stroke-width="1" opacity="0.8235294117647058" d="M 208.5 174 L 209 235.5 L 207 236.5 L 208 235.5 L 208.5 174 Z " /><path fill="rgb(142,133,65)" stroke="rgb(142,133,65)" stroke-width="1" opacity="0.8235294117647058" d="M 149.5 175 Q 152.3 176.3 150 177.5 L 148.5 180 Q 145.5 178.5 148.5 177 L 150 176.5 L 149.5 175 Z " /><path fill="rgb(142,133,65)" stroke="rgb(142,133,65)" stroke-width="1" opacity="0.8235294117647058" d="M 180.5 175 L 181 176.5 L 179 177.5 L 180.5 175 Z " /><path fill="rgb(142,133,65)" stroke="rgb(142,133,65)" stroke-width="1" opacity="0.8235294117647058" d="M 136.5 176 L 136 177.5 L 132.5 184 L 133 182.5 L 136.5 176 Z " /><path fill="rgb(142,133,65)" stroke="rgb(142,133,65)" stroke-width="1" opacity="0.8235294117647058" d="M 165.5 176 L 167 177.5 L 163.5 181 L 162 179.5 L 165.5 176 Z " /><path fill="rgb(142,133,65)" stroke="rgb(142,133,65)" stroke-width="1" opacity="0.8235294117647058" d="M 189.5 177 L 190 184.5 L 186.5 186 L 186.5 185 L 189 185 L 189.5 177 Z " /><path fill="rgb(142,133,65)" stroke="rgb(142,133,65)" stroke-width="1" opacity="0.8235294117647058" d="M 181.5 178 L 182 184.5 L 181 184.5 L 180 179.5 L 181.5 178 Z " /><path fill="rgb(142,133,65)" stroke="rgb(142,133,65)" stroke-width="1" opacity="0.8235294117647058" d="M 146.5 180 L 147.5 182 L 146.5 180 Z " /><path fill="rgb(142,133,65)" stroke="rgb(142,133,65)" stroke-width="1" opacity="0.8235294117647058" d="M 161.5 181 Q 164.5 182.5 161.5 184 L 160 183.5 L 161 185.5 Q 159.5 188.5 158 185.5 L 161.5 181 Z " /><path fill="rgb(142,133,65)" stroke="rgb(142,133,65)" stroke-width="1" opacity="0.8235294117647058" d="M 145.5 182 L 146.5 184 L 145.5 182 Z " /><path fill="rgb(142,133,65)" stroke="rgb(142,133,65)" stroke-width="1" opacity="0.8235294117647058" d="M 151.5 182 L 152 183.5 L 148.5 188 L 149 186.5 L 151.5 182 Z " /><path fill="rgb(142,133,65)" stroke="rgb(142,133,65)" stroke-width="1" opacity="0.8235294117647058" d="M 144.5 184 Q 147.3 185.2 145 186.5 L 143.5 189 Q 140.8 187.8 143 186.5 L 144.5 184 Z " /><path fill="rgb(142,133,65)" stroke="rgb(142,133,65)" stroke-width="1" opacity="0.8235294117647058" d="M 154.5 184 L 155 186.5 L 153 187.5 L 154.5 184 Z " /><path fill="rgb(142,133,65)" stroke="rgb(142,133,65)" stroke-width="1" opacity="0.8235294117647058" d="M 194.5 184 L 195 227.5 L 193 228.5 L 193 188.5 L 194.5 184 Z " /><path fill="rgb(142,133,65)" stroke="rgb(142,133,65)" stroke-width="1" opacity="0.8235294117647058" d="M 131.5 185 L 131 186.5 L 128.5 191 L 129 189.5 L 131.5 185 Z " /><path fill="rgb(142,133,65)" stroke="rgb(142,133,65)" stroke-width="1" opacity="0.8235294117647058" d="M 157.5 187 Q 160.5 188.5 157.5 190 L 156 190.5 L 156.5 192 Q 153.8 190.8 156 189.5 L 157.5 187 Z " /><path fill="rgb(142,133,65)" stroke="rgb(142,133,65)" stroke-width="1" opacity="0.8235294117647058" d="M 141.5 189 L 142.5 191 L 141.5 189 Z " /><path fill="rgb(142,133,65)" stroke="rgb(142,133,65)" stroke-width="1" opacity="0.8235294117647058" d="M 152.5 189 L 152 190.5 L 150.5 193 L 151 191.5 L 152.5 189 Z " /><path fill="rgb(142,133,65)" stroke="rgb(142,133,65)" stroke-width="1" opacity="0.8235294117647058" d="M 85.5 190 L 88 190.5 L 85.5 191 L 85.5 190 Z " /><path fill="rgb(142,133,65)" stroke="rgb(142,133,65)" stroke-width="1" opacity="0.8235294117647058" d="M 181.5 190 L 182 192.5 L 182 194.5 L 182 226.5 L 180 227 L 181 224.5 L 180 223.5 L 180 204.5 L 181 203.5 L 181 194.5 L 181 192.5 L 181.5 190 Z " /><path fill="rgb(142,133,65)" stroke="rgb(142,133,65)" stroke-width="1" opacity="0.8235294117647058" d="M 89.5 191 L 92 191.5 L 89.5 192 L 89.5 191 Z " /><path fill="rgb(142,133,65)" stroke="rgb(142,133,65)" stroke-width="1" opacity="0.8235294117647058" d="M 124.5 191 L 125 192.5 L 122.5 196 L 122 194.5 L 124.5 191 Z " /><path fill="rgb(142,133,65)" stroke="rgb(142,133,65)" stroke-width="1" opacity="0.8235294117647058" d="M 140.5 191 Q 143.3 192.3 141 193.5 L 138.5 198 L 137 198.5 L 137.5 200 Q 134.8 198.8 137 197.5 L 140.5 191 Z " /><path fill="rgb(142,133,65)" stroke="rgb(142,133,65)" stroke-width="1" opacity="0.8235294117647058" d="M 146.5 191 L 146 192.5 L 144.5 195 L 145 193.5 L 146.5 191 Z " /><path fill="rgb(142,133,65)" stroke="rgb(142,133,65)" stroke-width="1" opacity="0.8235294117647058" d="M 127.5 192 L 127 193.5 L 124.5 198 L 125 196.5 L 127.5 192 Z " /><path fill="rgb(142,133,65)" stroke="rgb(142,133,65)" stroke-width="1" opacity="0.8235294117647058" d="M 154.5 192 Q 157.2 193.3 155 194.5 L 152.5 199 L 151 199.5 L 151.5 201 Q 148.8 199.8 151 198.5 L 153.5 194 L 155 193.5 L 154.5 192 Z " /><path fill="rgb(142,133,65)" stroke="rgb(142,133,65)" stroke-width="1" opacity="0.8235294117647058" d="M 149.5 194 L 149 195.5 L 145.5 202 L 146 200.5 L 149.5 194 Z " /><path fill="rgb(142,133,65)" stroke="rgb(142,133,65)" stroke-width="1" opacity="0.8235294117647058" d="M 186.5 194 L 188 194.5 L 185.5 196 L 186.5 194 Z " /><path fill="rgb(142,133,65)" stroke="rgb(142,133,65)" stroke-width="1" opacity="0.8235294117647058" d="M 189.5 194 L 190 229 L 186 228.5 L 189 228 L 189.5 194 Z " /><path fill="rgb(142,133,65)" stroke="rgb(142,133,65)" stroke-width="1" opacity="0.8235294117647058" d="M 142.5 198 L 142 199.5 L 139.5 205 L 139 203.5 L 142.5 198 Z " /><path fill="rgb(142,133,65)" stroke="rgb(142,133,65)" stroke-width="1" opacity="0.8235294117647058" d="M 119 199 L 121 199.5 L 119 204 L 117 203.5 L 119 199 Z " /><path fill="rgb(142,133,65)" stroke="rgb(142,133,65)" stroke-width="1" opacity="0.8235294117647058" d="M 123.5 199 L 123 200.5 L 120.5 205 L 121 203.5 L 123.5 199 Z " /><path fill="rgb(142,133,65)" stroke="rgb(142,133,65)" stroke-width="1" opacity="0.8235294117647058" d="M 135.5 200 Q 138.3 201.3 136 202.5 L 132.5 209 Q 129.8 207.8 132 206.5 L 134.5 202 L 136 201.5 L 135.5 200 Z " /><path fill="rgb(142,133,65)" stroke="rgb(142,133,65)" stroke-width="1" opacity="0.8235294117647058" d="M 149.5 201 Q 152.3 202.3 150 203.5 L 146.5 210 Q 143.8 208.7 146 207.5 L 147.5 205 L 149 204.5 L 148.5 203 L 150 202.5 L 149.5 201 Z " /><path fill="rgb(142,133,65)" stroke="rgb(142,133,65)" stroke-width="1" opacity="0.8235294117647058" d="M 143.5 205 L 143 206.5 Q 143.8 209.1 140.5 208 L 139.5 206 L 141.5 207 L 143.5 205 Z " /><path fill="rgb(142,133,65)" stroke="rgb(142,133,65)" stroke-width="1" opacity="0.8235294117647058" d="M 21.5 206 L 22 210.5 L 21 210.5 L 21.5 206 Z " /><path fill="rgb(142,133,65)" stroke="rgb(142,133,65)" stroke-width="1" opacity="0.8235294117647058" d="M 119.5 206 L 119 207.5 L 115.5 214 L 116 212.5 L 119.5 206 Z " /><path fill="rgb(142,133,65)" stroke="rgb(142,133,65)" stroke-width="1" opacity="0.8235294117647058" d="M 91.5 208 L 92 211.5 L 86.5 219 L 85 218.5 L 90 214.5 L 91.5 208 Z " /><path fill="rgb(142,133,65)" stroke="rgb(142,133,65)" stroke-width="1" opacity="0.8235294117647058" d="M 164.5 208 L 166 208.5 L 166 236.5 L 165 236.5 L 164.5 209 L 159.5 218 L 160 216.5 L 164.5 208 Z " /><path fill="rgb(142,133,65)" stroke="rgb(142,133,65)" stroke-width="1" opacity="0.8235294117647058" d="M 114.5 209 L 115 210.5 L 112.5 214 L 113 212.5 L 114.5 209 Z " /><path fill="rgb(142,133,65)" stroke="rgb(142,133,65)" stroke-width="1" opacity="0.8235294117647058" d="M 130.5 209 L 131.5 211 L 130.5 209 Z " /><path fill="rgb(142,133,65)" stroke="rgb(142,133,65)" stroke-width="1" opacity="0.8235294117647058" d="M 31.5 210 L 82 210.5 L 31.5 211 L 31.5 210 Z " /><path fill="rgb(142,133,65)" stroke="rgb(142,133,65)" stroke-width="1" opacity="0.8235294117647058" d="M 144.5 210 L 145.5 212 L 144.5 210 Z " /><path fill="rgb(142,133,65)" stroke="rgb(142,133,65)" stroke-width="1" opacity="0.8235294117647058" d="M 129.5 211 L 130.5 213 L 129.5 211 Z " /><path fill="rgb(142,133,65)" stroke="rgb(142,133,65)" stroke-width="1" opacity="0.8235294117647058" d="M 22.5 212 L 26 217.5 L 23 215.5 L 22.5 212 Z " /><path fill="rgb(142,133,65)" stroke="rgb(142,133,65)" stroke-width="1" opacity="0.8235294117647058" d="M 143.5 212 Q 146.3 213.2 144 214.5 L 142.5 217 L 141 217.5 L 141.5 219 Q 138.8 217.8 141 216.5 L 143.5 212 Z " /><path fill="rgb(142,133,65)" stroke="rgb(142,133,65)" stroke-width="1" opacity="0.8235294117647058" d="M 128.5 213 Q 131.5 214.5 128.5 216 L 127 216.5 L 127.5 218 Q 124.8 216.8 127 215.5 L 128.5 213 Z " /><path fill="rgb(142,133,65)" stroke="rgb(142,133,65)" stroke-width="1" opacity="0.8235294117647058" d="M 111.5 215 L 110 217.5 L 105 229 L 102.5 230 L 104 227.5 L 111.5 215 Z " /><path fill="rgb(142,133,65)" stroke="rgb(142,133,65)" stroke-width="1" opacity="0.8235294117647058" d="M 114.5 215 L 114 216.5 L 111.5 221 L 112 219.5 L 114.5 215 Z " /><path fill="rgb(142,133,65)" stroke="rgb(142,133,65)" stroke-width="1" opacity="0.8235294117647058" d="M 162.5 217 L 163 218.5 L 160.5 222 L 161 220.5 L 162.5 217 Z " /><path fill="rgb(142,133,65)" stroke="rgb(142,133,65)" stroke-width="1" opacity="0.8235294117647058" d="M 125.5 218 L 126.5 220 L 125.5 218 Z " /><path fill="rgb(142,133,65)" stroke="rgb(142,133,65)" stroke-width="1" opacity="0.8235294117647058" d="M 29.5 219 Q 35 217.5 36.5 220 L 77 220.5 L 36.5 221 Q 35 218.5 29.5 220 L 29.5 219 Z " /><path fill="rgb(142,133,65)" stroke="rgb(142,133,65)" stroke-width="1" opacity="0.8235294117647058" d="M 78.5 219 L 84 219.5 L 78.5 220 L 78.5 219 Z " /><path fill="rgb(142,133,65)" stroke="rgb(142,133,65)" stroke-width="1" opacity="0.8235294117647058" d="M 139.5 219 L 140.5 221 L 139.5 219 Z " /><path fill="rgb(142,133,65)" stroke="rgb(142,133,65)" stroke-width="1" opacity="0.8235294117647058" d="M 158.5 219 L 159 220.5 L 151.5 234 L 152 232.5 L 158.5 219 Z " /><path fill="rgb(142,133,65)" stroke="rgb(142,133,65)" stroke-width="1" opacity="0.8235294117647058" d="M 124.5 220 Q 127.3 221.2 125 222.5 L 122.5 227 Q 119.7 225.8 122 224.5 L 124.5 220 Z " /><path fill="rgb(142,133,65)" stroke="rgb(142,133,65)" stroke-width="1" opacity="0.8235294117647058" d="M 138.5 221 Q 141.3 222.3 139 223.5 L 136.5 228 Q 133.7 226.8 136 225.5 L 138.5 221 Z " /><path fill="rgb(142,133,65)" stroke="rgb(142,133,65)" stroke-width="1" opacity="0.8235294117647058" d="M 109.5 224 L 109 225.5 L 107.5 228 L 108 226.5 L 109.5 224 Z " /><path fill="rgb(142,133,65)" stroke="rgb(142,133,65)" stroke-width="1" opacity="0.8235294117647058" d="M 128.5 224 L 130.5 227 Q 128.8 223.9 127 225.5 L 128.5 224 Z " /><path fill="rgb(142,133,65)" stroke="rgb(142,133,65)" stroke-width="1" opacity="0.8235294117647058" d="M 158.5 225 L 160 225.5 L 158 230 Q 155.3 231.1 156 228.5 L 158.5 225 Z " /><path fill="rgb(142,133,65)" stroke="rgb(142,133,65)" stroke-width="1" opacity="0.8235294117647058" d="M 120.5 227 L 121.5 229 L 120.5 227 Z " /><path fill="rgb(142,133,65)" stroke="rgb(142,133,65)" stroke-width="1" opacity="0.8235294117647058" d="M 126.5 227 L 126 228.5 L 122.5 235 L 123 233.5 L 126.5 227 Z " /><path fill="rgb(142,133,65)" stroke="rgb(142,133,65)" stroke-width="1" opacity="0.8235294117647058" d="M 134.5 228 L 135.5 230 L 134.5 228 Z " /><path fill="rgb(142,133,65)" stroke="rgb(142,133,65)" stroke-width="1" opacity="0.8235294117647058" d="M 106.5 229 L 106 230.5 L 102.5 237 L 103 235.5 L 106.5 229 Z " /><path fill="rgb(142,133,65)" stroke="rgb(142,133,65)" stroke-width="1" opacity="0.8235294117647058" d="M 119.5 229 Q 122.3 230.2 120 231.5 L 117.5 236 L 116 236.5 L 116.5 238 Q 113.7 236.7 116 235.5 L 118.5 231 L 120 230.5 L 119.5 229 Z " /><path fill="rgb(142,133,65)" stroke="rgb(142,133,65)" stroke-width="1" opacity="0.8235294117647058" d="M 133.5 230 Q 136.3 231.3 134 232.5 L 131.5 237 Q 128.8 235.8 131 234.5 L 133.5 230 Z " /><path fill="rgb(142,133,65)" stroke="rgb(142,133,65)" stroke-width="1" opacity="0.8235294117647058" d="M 101.5 232 L 101 233.5 L 99.5 237 L 99 235.5 L 101.5 232 Z " /><path fill="rgb(142,133,65)" stroke="rgb(142,133,65)" stroke-width="1" opacity="0.8235294117647058" d="M 127.5 234 L 127 235.5 L 125.5 238 L 126 236.5 L 127.5 234 Z " /><path fill="rgb(142,133,65)" stroke="rgb(142,133,65)" stroke-width="1" opacity="0.8235294117647058" d="M 121.5 236 L 121 237.5 L 117.5 244 L 118 242.5 L 121.5 236 Z " /><path fill="rgb(142,133,65)" stroke="rgb(142,133,65)" stroke-width="1" opacity="0.8235294117647058" d="M 129.5 237 L 130.5 239 L 129.5 237 Z " /><path fill="rgb(142,133,65)" stroke="rgb(142,133,65)" stroke-width="1" opacity="0.8235294117647058" d="M 152.5 237 L 153 238.5 L 151.5 241 L 151 238.5 L 152.5 237 Z " /><path fill="rgb(142,133,65)" stroke="rgb(142,133,65)" stroke-width="1" opacity="0.8235294117647058" d="M 101.5 238 L 101 239.5 Q 101.9 242.5 97.5 241 L 97.5 240 L 101.5 238 Z " /><path fill="rgb(142,133,65)" stroke="rgb(142,133,65)" stroke-width="1" opacity="0.8235294117647058" d="M 114.5 238 L 115.5 240 L 114.5 238 Z " /><path fill="rgb(142,133,65)" stroke="rgb(142,133,65)" stroke-width="1" opacity="0.8235294117647058" d="M 128.5 239 L 129.5 241 L 128.5 239 Z " /><path fill="rgb(142,133,65)" stroke="rgb(142,133,65)" stroke-width="1" opacity="0.8235294117647058" d="M 113.5 240 Q 116.3 241.3 114 242.5 L 112.5 245 Q 109.7 243.8 112 242.5 L 113.5 240 Z " /><path fill="rgb(142,133,65)" stroke="rgb(142,133,65)" stroke-width="1" opacity="0.8235294117647058" d="M 123.5 241 L 123 242.5 L 115.5 256 L 114.5 254 L 116 254.5 L 123.5 241 Z " /><path fill="rgb(142,133,65)" stroke="rgb(142,133,65)" stroke-width="1" opacity="0.8235294117647058" d="M 127.5 241 Q 130.3 242.3 128 243.5 L 126.5 246 Q 123.7 244.8 126 243.5 L 127.5 241 Z " /><path fill="rgb(142,133,65)" stroke="rgb(142,133,65)" stroke-width="1" opacity="0.8235294117647058" d="M 21.5 242 L 29.5 242 L 31 243.5 L 29.5 243 L 21.5 243 L 21 243.5 L 21 325 L 28.5 325 L 29 324.5 L 29 260.5 L 30 260.5 L 30 324.5 L 28.5 326 Q 21.7 327.8 20 324.5 L 20 243.5 L 21.5 242 Z " /><path fill="rgb(142,133,65)" stroke="rgb(142,133,65)" stroke-width="1" opacity="0.8235294117647058" d="M 93.5 242 L 104 242 L 104 255.5 L 105 255.5 L 108.5 249 Q 111.2 250.3 109 251.5 L 105.5 257 L 104 257.5 L 104 281.5 L 105 281.5 L 107.5 277 Q 110.3 278.3 108 279.5 L 104 284.5 L 104 326 L 94.5 326 L 93.5 325 L 93 327 L 105 327 L 105 321.5 L 109.5 314 L 109 315.5 Q 104.8 319.7 106 328 L 92.5 328 L 92 325.5 L 93 324.5 L 93 297.5 L 91.5 291 L 86.5 300 L 87 298.5 L 91.5 290 L 93 289.5 L 93 281 L 91 281.5 L 91.5 283 L 90 283.5 L 90.5 285 Q 87.8 283.8 90 282.5 L 91.5 279 L 93 279.5 L 93.5 264 L 94 325 L 102.5 325 L 103 324.5 L 103 243 L 93.5 243 L 93 244.5 L 83.5 261 L 84 259.5 L 93.5 242 Z " /><path fill="rgb(142,133,65)" stroke="rgb(142,133,65)" stroke-width="1" opacity="0.8235294117647058" d="M 237.5 242 L 287 242.5 L 237.5 243 L 237.5 242 Z " /><path fill="rgb(142,133,65)" stroke="rgb(142,133,65)" stroke-width="1" opacity="0.8235294117647058" d="M 326.5 242 L 385 242.5 L 326.5 243 L 326.5 242 Z " /><path fill="rgb(142,133,65)" stroke="rgb(142,133,65)" stroke-width="1" opacity="0.8235294117647058" d="M 414.5 242 L 419.5 242 L 436 258.5 L 451 274.5 L 435 259.5 L 419.5 243 Q 414.1 242.4 414 243.5 L 414 323.5 L 414.5 325 L 413 324.5 L 413 243.5 L 414.5 242 Z " /><path fill="rgb(142,133,65)" stroke="rgb(142,133,65)" stroke-width="1" opacity="0.8235294117647058" d="M 482.5 242 Q 489.3 240.2 491 243.5 L 490.5 325 L 490 243 L 482.5 243 L 482 243.5 L 482 300.5 L 481 300.5 L 481 243.5 L 482.5 242 Z " /><path fill="rgb(142,133,65)" stroke="rgb(142,133,65)" stroke-width="1" opacity="0.8235294117647058" d="M 233.5 243 L 236 243.5 L 229 247.5 L 227.5 252 L 227 249.5 L 231.5 244 L 233.5 243 Z " /><path fill="rgb(142,133,65)" stroke="rgb(142,133,65)" stroke-width="1" opacity="0.8235294117647058" d="M 288.5 243 Q 293.3 243.3 295 246.5 L 292.5 245 L 288.5 244 L 288.5 243 Z " /><path fill="rgb(142,133,65)" stroke="rgb(142,133,65)" stroke-width="1" opacity="0.8235294117647058" d="M 322.5 243 L 325 243.5 L 318.5 247 L 320.5 244 L 322.5 243 Z " /><path fill="rgb(142,133,65)" stroke="rgb(142,133,65)" stroke-width="1" opacity="0.8235294117647058" d="M 386.5 243 L 389 243.5 L 386.5 244 L 386.5 243 Z " /><path fill="rgb(142,133,65)" stroke="rgb(142,133,65)" stroke-width="1" opacity="0.8235294117647058" d="M 390.5 244 Q 396.4 246.6 396 255.5 L 395 255.5 L 394 248.5 L 390.5 244 Z " /><path fill="rgb(142,133,65)" stroke="rgb(142,133,65)" stroke-width="1" opacity="0.8235294117647058" d="M 31.5 245 L 34 248.5 L 32 247.5 L 31.5 245 Z " /><path fill="rgb(142,133,65)" stroke="rgb(142,133,65)" stroke-width="1" opacity="0.8235294117647058" d="M 110.5 245 L 111.5 247 L 110.5 245 Z " /><path fill="rgb(142,133,65)" stroke="rgb(142,133,65)" stroke-width="1" opacity="0.8235294117647058" d="M 116.5 245 L 116 246.5 L 113.5 251 L 114 249.5 L 116.5 245 Z " /><path fill="rgb(142,133,65)" stroke="rgb(142,133,65)" stroke-width="1" opacity="0.8235294117647058" d="M 145.5 245 L 145 246.5 L 144.5 248 L 144 246.5 L 145.5 245 Z " /><path fill="rgb(142,133,65)" stroke="rgb(142,133,65)" stroke-width="1" opacity="0.8235294117647058" d="M 124.5 246 L 125.5 248 L 124.5 246 Z " /><path fill="rgb(142,133,65)" stroke="rgb(142,133,65)" stroke-width="1" opacity="0.8235294117647058" d="M 109.5 247 L 110.5 249 L 109.5 247 Z " /><path fill="rgb(142,133,65)" stroke="rgb(142,133,65)" stroke-width="1" opacity="0.8235294117647058" d="M 123.5 248 Q 126.2 249.2 124 250.5 L 121.5 255 L 120 255.5 L 120.5 257 Q 117.8 255.8 120 254.5 L 122.5 250 L 124 249.5 L 123.5 248 Z " /><path fill="rgb(142,133,65)" stroke="rgb(142,133,65)" stroke-width="1" opacity="0.8235294117647058" d="M 295.5 248 L 297 253.5 L 296 253.5 L 295.5 248 Z " /><path fill="rgb(142,133,65)" stroke="rgb(142,133,65)" stroke-width="1" opacity="0.8235294117647058" d="M 34.5 250 L 37 253.5 L 35 252.5 L 34.5 250 Z " /><path fill="rgb(142,133,65)" stroke="rgb(142,133,65)" stroke-width="1" opacity="0.8235294117647058" d="M 208.5 250 L 209 323.5 L 208 323.5 L 208.5 250 Z " /><path fill="rgb(142,133,65)" stroke="rgb(142,133,65)" stroke-width="1" opacity="0.8235294117647058" d="M 316.5 250 L 317 252.5 L 316 253.5 L 315.5 314 L 315 253.5 L 316.5 250 Z " /><path fill="rgb(142,133,65)" stroke="rgb(142,133,65)" stroke-width="1" opacity="0.8235294117647058" d="M 29.5 252 L 31 257.5 L 30 257.5 L 28 253.5 L 29.5 252 Z " /><path fill="rgb(142,133,65)" stroke="rgb(142,133,65)" stroke-width="1" opacity="0.8235294117647058" d="M 236.5 252 L 237 254.5 L 236 254.5 L 236.5 252 Z " /><path fill="rgb(142,133,65)" stroke="rgb(142,133,65)" stroke-width="1" opacity="0.8235294117647058" d="M 287.5 252 L 288 270 L 291 270.5 L 287 271 L 287.5 252 Z " /><path fill="rgb(142,133,65)" stroke="rgb(142,133,65)" stroke-width="1" opacity="0.8235294117647058" d="M 325.5 252 L 326 315 L 385.5 315 L 386.5 314 L 385.5 316 L 325 316 L 325.5 252 Z " /><path fill="rgb(142,133,65)" stroke="rgb(142,133,65)" stroke-width="1" opacity="0.8235294117647058" d="M 226.5 253 L 227 314.5 L 226 314.5 L 226.5 253 Z " /><path fill="rgb(142,133,65)" stroke="rgb(142,133,65)" stroke-width="1" opacity="0.8235294117647058" d="M 421 254 L 424 255.5 Q 424.7 258.5 421 257 L 421 254 Z " /><path fill="rgb(142,133,65)" stroke="rgb(142,133,65)" stroke-width="1" opacity="0.8235294117647058" d="M 37.5 255 L 43 263.5 L 41 262.5 L 37.5 255 Z " /><path fill="rgb(142,133,65)" stroke="rgb(142,133,65)" stroke-width="1" opacity="0.8235294117647058" d="M 297.5 255 L 298 267.5 L 296 268.5 L 297 267.5 L 297.5 255 Z " /><path fill="rgb(142,133,65)" stroke="rgb(142,133,65)" stroke-width="1" opacity="0.8235294117647058" d="M 93.5 256 Q 95.8 256.8 95 260.5 L 94 260.5 L 93.5 258 L 92.5 260 L 92 257.5 L 93.5 256 Z " /><path fill="rgb(142,133,65)" stroke="rgb(142,133,65)" stroke-width="1" opacity="0.8235294117647058" d="M 118.5 257 Q 121.3 258.2 119 259.5 L 116.5 264 L 115 264.5 L 115.5 266 Q 112.8 264.8 115 263.5 L 117.5 259 L 119 258.5 L 118.5 257 Z " /><path fill="rgb(142,133,65)" stroke="rgb(142,133,65)" stroke-width="1" opacity="0.8235294117647058" d="M 422.5 258 L 423 322.5 L 422 322.5 L 422.5 258 Z " /><path fill="rgb(142,133,65)" stroke="rgb(142,133,65)" stroke-width="1" opacity="0.8235294117647058" d="M 424.5 258 L 485 324.5 L 482 322.5 L 428 264.5 L 424.5 258 Z " /><path fill="rgb(142,133,65)" stroke="rgb(142,133,65)" stroke-width="1" opacity="0.8235294117647058" d="M 82.5 262 L 82 263.5 L 79.5 268 L 80 266.5 L 82.5 262 Z " /><path fill="rgb(142,133,65)" stroke="rgb(142,133,65)" stroke-width="1" opacity="0.8235294117647058" d="M 90.5 264 L 91 265.5 L 87.5 271 L 88 269.5 L 90.5 264 Z " /><path fill="rgb(142,133,65)" stroke="rgb(142,133,65)" stroke-width="1" opacity="0.8235294117647058" d="M 43.5 265 L 46 268.5 L 44 267.5 L 43.5 265 Z " /><path fill="rgb(142,133,65)" stroke="rgb(142,133,65)" stroke-width="1" opacity="0.8235294117647058" d="M 113.5 266 L 114.5 268 L 113.5 266 Z " /><path fill="rgb(142,133,65)" stroke="rgb(142,133,65)" stroke-width="1" opacity="0.8235294117647058" d="M 112.5 268 Q 115.2 269.3 113 270.5 L 111.5 273 Q 108.8 271.8 111 270.5 L 112.5 268 Z " /><path fill="rgb(142,133,65)" stroke="rgb(142,133,65)" stroke-width="1" opacity="0.8235294117647058" d="M 35.5 269 L 49 290.5 L 47 289.5 L 35.5 269 Z " /><path fill="rgb(142,133,65)" stroke="rgb(142,133,65)" stroke-width="1" opacity="0.8235294117647058" d="M 292.5 269 L 295 269.5 L 292.5 270 L 292.5 269 Z " /><path fill="rgb(142,133,65)" stroke="rgb(142,133,65)" stroke-width="1" opacity="0.8235294117647058" d="M 46.5 270 L 49 273.5 L 47 272.5 L 46.5 270 Z " /><path fill="rgb(142,133,65)" stroke="rgb(142,133,65)" stroke-width="1" opacity="0.8235294117647058" d="M 77.5 271 L 77 272.5 L 66.5 292 L 67 290.5 L 77.5 271 Z " /><path fill="rgb(142,133,65)" stroke="rgb(142,133,65)" stroke-width="1" opacity="0.8235294117647058" d="M 86.5 272 L 86 273.5 L 83.5 278 L 84 276.5 L 86.5 272 Z " /><path fill="rgb(142,133,65)" stroke="rgb(142,133,65)" stroke-width="1" opacity="0.8235294117647058" d="M 109.5 273 L 110.5 275 L 109.5 273 Z " /><path fill="rgb(142,133,65)" stroke="rgb(142,133,65)" stroke-width="1" opacity="0.8235294117647058" d="M 49.5 275 L 59 290.5 L 57 289.5 L 49.5 275 Z " /><path fill="rgb(142,133,65)" stroke="rgb(142,133,65)" stroke-width="1" opacity="0.8235294117647058" d="M 108.5 275 L 109.5 277 L 108.5 275 Z " /><path fill="rgb(142,133,65)" stroke="rgb(142,133,65)" stroke-width="1" opacity="0.8235294117647058" d="M 451.5 276 L 466.5 292 L 451.5 276 Z " /><path fill="rgb(142,133,65)" stroke="rgb(142,133,65)" stroke-width="1" opacity="0.8235294117647058" d="M 82.5 279 L 82 280.5 L 79.5 285 L 80 283.5 L 82.5 279 Z " /><path fill="rgb(142,133,65)" stroke="rgb(142,133,65)" stroke-width="1" opacity="0.8235294117647058" d="M 440.5 280 L 441.5 282 L 440.5 280 Z " /><path fill="rgb(142,133,65)" stroke="rgb(142,133,65)" stroke-width="1" opacity="0.8235294117647058" d="M 126.5 283 L 166 283 L 166 323.5 L 167.5 324 L 167.5 325 L 165 323.5 L 165 284 L 126 284 L 121.5 293 L 122 291.5 L 126.5 283 Z " /><path fill="rgb(142,133,65)" stroke="rgb(142,133,65)" stroke-width="1" opacity="0.8235294117647058" d="M 88.5 285 Q 91.3 286.2 89 287.5 L 86.5 292 L 85 292.5 L 85.5 294 Q 82.8 292.8 85 291.5 L 87.5 287 L 89 286.5 L 88.5 285 Z " /><path fill="rgb(142,133,65)" stroke="rgb(142,133,65)" stroke-width="1" opacity="0.8235294117647058" d="M 78.5 286 L 78 287.5 L 76.5 290 L 77 288.5 L 78.5 286 Z " /><path fill="rgb(142,133,65)" stroke="rgb(142,133,65)" stroke-width="1" opacity="0.8235294117647058" d="M 125.5 290 L 127 290.5 L 125 291.5 L 125.5 293 L 124 293.5 Q 126.5 295 123 296.5 L 122 300 L 120 299.5 L 125.5 290 Z " /><path fill="rgb(142,133,65)" stroke="rgb(142,133,65)" stroke-width="1" opacity="0.8235294117647058" d="M 75.5 291 L 75 292.5 L 72.5 297 L 73 295.5 L 75.5 291 Z " /><path fill="rgb(142,133,65)" stroke="rgb(142,133,65)" stroke-width="1" opacity="0.8235294117647058" d="M 49.5 292 L 52 295.5 L 50 294.5 L 49.5 292 Z " /><path fill="rgb(142,133,65)" stroke="rgb(142,133,65)" stroke-width="1" opacity="0.8235294117647058" d="M 59.5 292 L 62 295.5 L 60 294.5 L 59.5 292 Z " /><path fill="rgb(142,133,65)" stroke="rgb(142,133,65)" stroke-width="1" opacity="0.8235294117647058" d="M 65.5 293 L 65 294.5 L 64 298 L 62 297.5 L 65.5 293 Z " /><path fill="rgb(142,133,65)" stroke="rgb(142,133,65)" stroke-width="1" opacity="0.8235294117647058" d="M 467.5 293 L 479 305.5 L 476 303.5 L 467.5 293 Z " /><path fill="rgb(142,133,65)" stroke="rgb(142,133,65)" stroke-width="1" opacity="0.8235294117647058" d="M 83.5 294 L 84.5 296 L 83.5 294 Z " /><path fill="rgb(142,133,65)" stroke="rgb(142,133,65)" stroke-width="1" opacity="0.8235294117647058" d="M 120.5 294 L 120 295.5 L 116.5 302 L 117 300.5 L 120.5 294 Z " /><path fill="rgb(142,133,65)" stroke="rgb(142,133,65)" stroke-width="1" opacity="0.8235294117647058" d="M 288.5 294 L 288 295.5 L 288 314.5 L 286.5 316 L 236.5 316 L 236 314.5 L 237.5 315 L 287 315 L 287 295.5 L 288.5 294 Z " /><path fill="rgb(142,133,65)" stroke="rgb(142,133,65)" stroke-width="1" opacity="0.8235294117647058" d="M 290.5 295 L 293 295.5 L 290.5 296 L 290.5 295 Z " /><path fill="rgb(142,133,65)" stroke="rgb(142,133,65)" stroke-width="1" opacity="0.8235294117647058" d="M 82.5 296 Q 85.3 297.3 83 298.5 L 81.5 301 Q 78.8 299.8 81 298.5 L 82.5 296 Z " /><path fill="rgb(142,133,65)" stroke="rgb(142,133,65)" stroke-width="1" opacity="0.8235294117647058" d="M 294.5 296 L 298 297.5 L 297.5 313 L 297 297 Q 293.7 297.8 294.5 296 Z " /><path fill="rgb(142,133,65)" stroke="rgb(142,133,65)" stroke-width="1" opacity="0.8235294117647058" d="M 52.5 297 L 62 311.5 L 60 311.5 L 59.5 313 L 57 309.5 L 59 309.5 L 52.5 297 Z " /><path fill="rgb(142,133,65)" stroke="rgb(142,133,65)" stroke-width="1" opacity="0.8235294117647058" d="M 71.5 298 L 71 299.5 L 68.5 304 L 69 302.5 L 71.5 298 Z " /><path fill="rgb(142,133,65)" stroke="rgb(142,133,65)" stroke-width="1" opacity="0.8235294117647058" d="M 91.5 298 L 92 299.5 L 88.5 305 L 89 303.5 L 91.5 298 Z " /><path fill="rgb(142,133,65)" stroke="rgb(142,133,65)" stroke-width="1" opacity="0.8235294117647058" d="M 79.5 301 L 80.5 303 L 79.5 301 Z " /><path fill="rgb(142,133,65)" stroke="rgb(142,133,65)" stroke-width="1" opacity="0.8235294117647058" d="M 85.5 301 L 85 302.5 L 82.5 307 L 83 305.5 L 85.5 301 Z " /><path fill="rgb(142,133,65)" stroke="rgb(142,133,65)" stroke-width="1" opacity="0.8235294117647058" d="M 78.5 303 L 79.5 305 L 78.5 303 Z " /><path fill="rgb(142,133,65)" stroke="rgb(142,133,65)" stroke-width="1" opacity="0.8235294117647058" d="M 67.5 305 L 67 306.5 L 65.5 309 L 66 307.5 L 67.5 305 Z " /><path fill="rgb(142,133,65)" stroke="rgb(142,133,65)" stroke-width="1" opacity="0.8235294117647058" d="M 77.5 305 Q 80.3 306.3 78 307.5 L 76.5 310 Q 73.8 308.8 76 307.5 L 77.5 305 Z " /><path fill="rgb(142,133,65)" stroke="rgb(142,133,65)" stroke-width="1" opacity="0.8235294117647058" d="M 114.5 305 L 114 306.5 L 111.5 311 L 112 309.5 L 114.5 305 Z " /><path fill="rgb(142,133,65)" stroke="rgb(142,133,65)" stroke-width="1" opacity="0.8235294117647058" d="M 117.5 305 L 117 306.5 L 114.5 311 L 115 309.5 L 117.5 305 Z " /><path fill="rgb(142,133,65)" stroke="rgb(142,133,65)" stroke-width="1" opacity="0.8235294117647058" d="M 87.5 306 L 87 307.5 L 83.5 314 L 84 312.5 L 87.5 306 Z " /><path fill="rgb(142,133,65)" stroke="rgb(142,133,65)" stroke-width="1" opacity="0.8235294117647058" d="M 482.5 306 L 483 311.5 L 481 310.5 L 482.5 306 Z " /><path fill="rgb(142,133,65)" stroke="rgb(142,133,65)" stroke-width="1" opacity="0.8235294117647058" d="M 479.5 307 L 480.5 309 L 479.5 307 Z " /><path fill="rgb(142,133,65)" stroke="rgb(142,133,65)" stroke-width="1" opacity="0.8235294117647058" d="M 64.5 310 L 63.5 312 L 64.5 310 Z " /><path fill="rgb(142,133,65)" stroke="rgb(142,133,65)" stroke-width="1" opacity="0.8235294117647058" d="M 74.5 310 L 75.5 312 L 74.5 310 Z " /><path fill="rgb(142,133,65)" stroke="rgb(142,133,65)" stroke-width="1" opacity="0.8235294117647058" d="M 80.5 310 L 80 311.5 L 79.5 313 L 79 311.5 L 80.5 310 Z " /><path fill="rgb(142,133,65)" stroke="rgb(142,133,65)" stroke-width="1" opacity="0.8235294117647058" d="M 395.5 311 L 396 315.5 L 395 315.5 L 395.5 311 Z " /><path fill="rgb(142,133,65)" stroke="rgb(142,133,65)" stroke-width="1" opacity="0.8235294117647058" d="M 73.5 312 Q 76.5 313.5 73.5 315 L 72 314.5 L 74 313.5 L 73.5 312 Z " /><path fill="rgb(142,133,65)" stroke="rgb(142,133,65)" stroke-width="1" opacity="0.8235294117647058" d="M 239.5 312 L 283 312.5 L 239.5 313 L 239.5 312 Z " /><path fill="rgb(142,133,65)" stroke="rgb(142,133,65)" stroke-width="1" opacity="0.8235294117647058" d="M 329.5 312 L 383 312.5 L 329.5 313 L 329.5 312 Z " /><path fill="rgb(142,133,65)" stroke="rgb(142,133,65)" stroke-width="1" opacity="0.8235294117647058" d="M 58.5 314 L 58 315.5 L 55.5 320 L 56 318.5 L 58.5 314 Z " /><path fill="rgb(142,133,65)" stroke="rgb(142,133,65)" stroke-width="1" opacity="0.8235294117647058" d="M 79.5 314 Q 81.3 317.1 83 315.5 L 81.5 317 L 79.5 314 Z " /><path fill="rgb(142,133,65)" stroke="rgb(142,133,65)" stroke-width="1" opacity="0.8235294117647058" d="M 296.5 314 L 297 317.5 L 291.5 324 L 285.5 325 L 285.5 324 Q 293.4 324.9 295 319.5 L 296.5 314 Z " /><path fill="rgb(142,133,65)" stroke="rgb(142,133,65)" stroke-width="1" opacity="0.8235294117647058" d="M 316.5 315 Q 317.4 320.6 321.5 323 L 323 323.5 L 321.5 324 Q 315.9 321.4 316.5 315 Z " /><path fill="rgb(142,133,65)" stroke="rgb(142,133,65)" stroke-width="1" opacity="0.8235294117647058" d="M 53 316 L 55 316.5 L 53 317.5 L 53 316 Z " /><path fill="rgb(142,133,65)" stroke="rgb(142,133,65)" stroke-width="1" opacity="0.8235294117647058" d="M 394.5 317 L 395 318.5 L 391.5 323 L 393 320.5 L 394.5 317 Z " /><path fill="rgb(142,133,65)" stroke="rgb(142,133,65)" stroke-width="1" opacity="0.8235294117647058" d="M 110.5 318 L 112 318.5 L 107.5 325 L 107 323.5 L 110.5 318 Z " /><path fill="rgb(142,133,65)" stroke="rgb(142,133,65)" stroke-width="1" opacity="0.8235294117647058" d="M 228.5 319 L 230 322 L 239 324.5 L 234.5 325 L 229 321.5 L 228.5 319 Z " /><path fill="rgb(142,133,65)" stroke="rgb(142,133,65)" stroke-width="1" opacity="0.8235294117647058" d="M 54.5 321 L 54 322.5 Q 53.2 325.1 56.5 324 L 56.5 325 L 53 323.5 L 54.5 321 Z " /><path fill="rgb(142,133,65)" stroke="rgb(142,133,65)" stroke-width="1" opacity="0.8235294117647058" d="M 50.5 322 L 52 322.5 L 50 323 L 49 327 L 91 327.5 L 49.5 328 L 48 325.5 L 50.5 322 Z " /><path fill="rgb(142,133,65)" stroke="rgb(142,133,65)" stroke-width="1" opacity="0.8235294117647058" d="M 411.5 322 L 412 324.5 L 411 324.5 L 411.5 322 Z " /><path fill="rgb(142,133,65)" stroke="rgb(142,133,65)" stroke-width="1" opacity="0.8235294117647058" d="M 73.5 324 L 77 324.5 L 73.5 325 L 73.5 324 Z " /><path fill="rgb(142,133,65)" stroke="rgb(142,133,65)" stroke-width="1" opacity="0.8235294117647058" d="M 79.5 324 L 83 324.5 L 79.5 325 L 79.5 324 Z " /><path fill="rgb(142,133,65)" stroke="rgb(142,133,65)" stroke-width="1" opacity="0.8235294117647058" d="M 170.5 324 L 173 324.5 L 170.5 325 L 170.5 324 Z " /><path fill="rgb(142,133,65)" stroke="rgb(142,133,65)" stroke-width="1" opacity="0.8235294117647058" d="M 324.5 324 L 328 324.5 L 324.5 325 L 324.5 324 Z " /><path fill="rgb(142,133,65)" stroke="rgb(142,133,65)" stroke-width="1" opacity="0.8235294117647058" d="M 384.5 324 L 388 324.5 L 384.5 325 L 384.5 324 Z " /><path fill="rgb(142,133,65)" stroke="rgb(142,133,65)" stroke-width="1" opacity="0.8235294117647058" d="M 482.5 325 L 483.5 327 L 482.5 325 Z " /><path fill="rgb(142,133,65)" stroke="rgb(142,133,65)" stroke-width="1" opacity="0.8235294117647058" d="M 210.5 326 L 211 328 L 162 327.5 L 209.5 327 L 210.5 326 Z " /><path fill="rgb(142,133,65)" stroke="rgb(142,133,65)" stroke-width="1" opacity="0.8235294117647058" d="M 20.5 344 L 21 345.5 L 18.5 347 L 20.5 344 Z " /><path fill="rgb(142,133,65)" stroke="rgb(142,133,65)" stroke-width="1" opacity="0.8235294117647058" d="M 34.5 344 L 37 347.5 L 34 345.5 L 34.5 344 Z " /><path fill="rgb(142,133,65)" stroke="rgb(142,133,65)" stroke-width="1" opacity="0.8235294117647058" d="M 266.5 344 L 267.5 346 L 265.5 347 L 265 345.5 L 266.5 344 Z " /><path fill="rgb(142,133,65)" stroke="rgb(142,133,65)" stroke-width="1" opacity="0.8235294117647058" d="M 280.5 345 L 283 346.5 L 281.5 347 L 280.5 345 Z " /><path fill="rgb(142,133,65)" stroke="rgb(142,133,65)" stroke-width="1" opacity="0.8235294117647058" d="M 44 347 L 54.5 347 L 56 348.5 L 44 349 L 44 347 Z " /><path fill="rgb(142,133,65)" stroke="rgb(142,133,65)" stroke-width="1" opacity="0.8235294117647058" d="M 62 347 Q 66.1 345.7 65 349 Q 60.9 350.3 62 347 Z " /><path fill="rgb(142,133,65)" stroke="rgb(142,133,65)" stroke-width="1" opacity="0.8235294117647058" d="M 75 347 Q 78.8 346 80 348.5 Q 78.8 351.3 77.5 349 Q 73.8 350 75 347 Z " /><path fill="rgb(142,133,65)" stroke="rgb(142,133,65)" stroke-width="1" opacity="0.8235294117647058" d="M 86.5 347 L 95.5 347 L 96 349 L 85.5 349 L 83.5 350 L 84.5 348 L 86.5 347 Z " /><path fill="rgb(142,133,65)" stroke="rgb(142,133,65)" stroke-width="1" opacity="0.8235294117647058" d="M 101 347 L 116.5 347 L 117 348.5 L 117 350.5 L 116.5 352 L 116 349 L 101.5 349 L 101 347 Z " /><path fill="rgb(142,133,65)" stroke="rgb(142,133,65)" stroke-width="1" opacity="0.8235294117647058" d="M 120 347 L 131.5 347 L 133 348.5 L 120 349 L 120 347 Z " /><path fill="rgb(142,133,65)" stroke="rgb(142,133,65)" stroke-width="1" opacity="0.8235294117647058" d="M 139 347 Q 144.2 345.3 143 349 Q 137.8 350.7 139 347 Z " /><path fill="rgb(142,133,65)" stroke="rgb(142,133,65)" stroke-width="1" opacity="0.8235294117647058" d="M 151.5 347 Q 156.3 345.7 155 349 L 152 349 L 152 360.5 L 150 361 L 150 348.5 L 151.5 347 Z " /><path fill="rgb(142,133,65)" stroke="rgb(142,133,65)" stroke-width="1" opacity="0.8235294117647058" d="M 162.5 347 L 170.5 347 L 172 348.5 L 160.5 349 L 159.5 350 L 159 348 L 162.5 347 Z " /><path fill="rgb(142,133,65)" stroke="rgb(142,133,65)" stroke-width="1" opacity="0.8235294117647058" d="M 176 347 L 193 347.5 L 191.5 349 L 176 349 L 176 347 Z " /><path fill="rgb(142,133,65)" stroke="rgb(142,133,65)" stroke-width="1" opacity="0.8235294117647058" d="M 198.5 347 L 208.5 347 L 210 348.5 L 196 349 Q 197.1 351.7 194.5 351 L 195 349.5 Q 194.2 346.9 197.5 348 L 198.5 347 Z " /><path fill="rgb(142,133,65)" stroke="rgb(142,133,65)" stroke-width="1" opacity="0.8235294117647058" d="M 216 347 L 228.5 347 L 231 348 Q 232.1 350.7 229.5 350 L 228.5 349 L 217 349 L 216.5 365 L 215 363.5 L 215 349.5 L 216 347 Z " /><path fill="rgb(142,133,65)" stroke="rgb(142,133,65)" stroke-width="1" opacity="0.8235294117647058" d="M 240.5 347 L 244 348.5 L 243.5 350 L 240.5 349 L 238.5 352 L 238 350.5 L 240.5 347 Z " /><path fill="rgb(142,133,65)" stroke="rgb(142,133,65)" stroke-width="1" opacity="0.8235294117647058" d="M 293 347 Q 296.8 346 298 348.5 L 300 352.5 L 297 350.5 Q 297.8 347.9 294.5 349 L 291.5 351 L 293 348.5 L 293 347 Z " /><path fill="rgb(142,133,65)" stroke="rgb(142,133,65)" stroke-width="1" opacity="0.8235294117647058" d="M 306.5 347 Q 310.3 346.3 311 348.5 L 310.5 350 Q 306.5 349.5 306.5 347 Z " /><path fill="rgb(142,133,65)" stroke="rgb(142,133,65)" stroke-width="1" opacity="0.8235294117647058" d="M 321 347 L 325 347.5 L 321 349 L 321 347 Z " /><path fill="rgb(142,133,65)" stroke="rgb(142,133,65)" stroke-width="1" opacity="0.8235294117647058" d="M 334 347 L 338 347 L 338 348.5 L 340 351.5 L 339 351.5 L 337.5 349 Q 332.7 350.3 334 347 Z " /><path fill="rgb(142,133,65)" stroke="rgb(142,133,65)" stroke-width="1" opacity="0.8235294117647058" d="M 350.5 347 L 359.5 347 L 360 349 L 349.5 349 L 347.5 351 L 348 349.5 Q 347.3 347.3 349.5 348 L 350.5 347 Z " /><path fill="rgb(142,133,65)" stroke="rgb(142,133,65)" stroke-width="1" opacity="0.8235294117647058" d="M 369 347 L 380.5 347 L 383 348 L 382.5 350 L 381.5 349 L 369 349 L 369 347 Z " /><path fill="rgb(142,133,65)" stroke="rgb(142,133,65)" stroke-width="1" opacity="0.8235294117647058" d="M 387 347 Q 390.8 346 392 348.5 L 387 349 L 387 347 Z " /><path fill="rgb(142,133,65)" stroke="rgb(142,133,65)" stroke-width="1" opacity="0.8235294117647058" d="M 400.5 347 Q 405.3 345.7 404 349 Q 400.2 349.8 400.5 347 Z " /><path fill="rgb(142,133,65)" stroke="rgb(142,133,65)" stroke-width="1" opacity="0.8235294117647058" d="M 423 347 Q 430.6 345.3 434 348.5 L 423 349 L 423 347 Z " /><path fill="rgb(142,133,65)" stroke="rgb(142,133,65)" stroke-width="1" opacity="0.8235294117647058" d="M 454 347 Q 459.2 345.3 458 349 L 454 350.5 Q 454.8 352.8 452.5 352 L 453 350.5 L 454 347 Z " /><path fill="rgb(142,133,65)" stroke="rgb(142,133,65)" stroke-width="1" opacity="0.8235294117647058" d="M 480.5 347 L 489.5 347 L 491 348.5 L 479.5 349 L 478.5 350 L 478 348 L 480.5 347 Z " /><path fill="rgb(142,133,65)" stroke="rgb(142,133,65)" stroke-width="1" opacity="0.8235294117647058" d="M 367.5 348 L 368 350 L 366 349.5 L 367.5 348 Z " /><path fill="rgb(142,133,65)" stroke="rgb(142,133,65)" stroke-width="1" opacity="0.8235294117647058" d="M 24.5 349 L 32 349.5 L 24.5 350 L 24.5 349 Z " /><path fill="rgb(142,133,65)" stroke="rgb(142,133,65)" stroke-width="1" opacity="0.8235294117647058" d="M 41.5 349 L 42 351.5 L 41 351.5 L 41.5 349 Z " /><path fill="rgb(142,133,65)" stroke="rgb(142,133,65)" stroke-width="1" opacity="0.8235294117647058" d="M 57.5 349 L 58.5 351 Q 55.7 351.7 57.5 349 Z " /><path fill="rgb(142,133,65)" stroke="rgb(142,133,65)" stroke-width="1" opacity="0.8235294117647058" d="M 66.5 349 L 67.5 351 L 66.5 349 Z " /><path fill="rgb(142,133,65)" stroke="rgb(142,133,65)" stroke-width="1" opacity="0.8235294117647058" d="M 97.5 349 L 99 351.5 L 97 350.5 L 97.5 349 Z " /><path fill="rgb(142,133,65)" stroke="rgb(142,133,65)" stroke-width="1" opacity="0.8235294117647058" d="M 270.5 349 L 276 349.5 L 270.5 350 L 270.5 349 Z " /><path fill="rgb(142,133,65)" stroke="rgb(142,133,65)" stroke-width="1" opacity="0.8235294117647058" d="M 420.5 349 L 421 352 Q 418.3 353.1 419 350.5 L 420.5 349 Z " /><path fill="rgb(142,133,65)" stroke="rgb(142,133,65)" stroke-width="1" opacity="0.8235294117647058" d="M 134.5 350 Q 137 351 136 355.5 L 134 356.5 L 134.5 350 Z " /><path fill="rgb(142,133,65)" stroke="rgb(142,133,65)" stroke-width="1" opacity="0.8235294117647058" d="M 173 350 Q 176.3 348.7 175 353.5 L 172.5 355 L 173 353.5 L 173 350 Z " /><path fill="rgb(142,133,65)" stroke="rgb(142,133,65)" stroke-width="1" opacity="0.8235294117647058" d="M 211.5 350 L 212 363.5 L 210 364.5 L 211 362.5 L 211.5 350 Z " /><path fill="rgb(142,133,65)" stroke="rgb(142,133,65)" stroke-width="1" opacity="0.8235294117647058" d="M 458.5 350 L 461 351.5 L 459 352.5 L 458.5 350 Z " /><path fill="rgb(142,133,65)" stroke="rgb(142,133,65)" stroke-width="1" opacity="0.8235294117647058" d="M 32.5 351 L 33.5 353 Q 30.7 353.7 32.5 351 Z " /><path fill="rgb(142,133,65)" stroke="rgb(142,133,65)" stroke-width="1" opacity="0.8235294117647058" d="M 45.5 351 L 55 351.5 Q 52.2 354.3 46 353 L 46 360.5 L 44 361 L 44 352.5 L 45.5 351 Z " /><path fill="rgb(142,133,65)" stroke="rgb(142,133,65)" stroke-width="1" opacity="0.8235294117647058" d="M 130.5 351 Q 132.8 350.3 132 352.5 L 130.5 351 Z " /><path fill="rgb(142,133,65)" stroke="rgb(142,133,65)" stroke-width="1" opacity="0.8235294117647058" d="M 162 351 L 171 351 L 171 355 Q 167.9 355.8 168.5 353 L 162 353 L 162 351 Z " /><path fill="rgb(142,133,65)" stroke="rgb(142,133,65)" stroke-width="1" opacity="0.8235294117647058" d="M 182.5 351 L 183 363.5 L 184 364.5 L 182 365 L 182.5 351 Z " /><path fill="rgb(142,133,65)" stroke="rgb(142,133,65)" stroke-width="1" opacity="0.8235294117647058" d="M 186.5 351 L 187 365 L 185 364.5 L 185 352.5 L 186.5 351 Z " /><path fill="rgb(142,133,65)" stroke="rgb(142,133,65)" stroke-width="1" opacity="0.8235294117647058" d="M 198.5 351 L 207.5 351 L 209 352.5 L 208.5 361 L 208 353 L 200.5 353 L 198.5 351 Z " /><path fill="rgb(142,133,65)" stroke="rgb(142,133,65)" stroke-width="1" opacity="0.8235294117647058" d="M 219.5 351 Q 222 352.2 221 356 Q 216.9 357.2 219.5 351 Z " /><path fill="rgb(142,133,65)" stroke="rgb(142,133,65)" stroke-width="1" opacity="0.8235294117647058" d="M 244.5 351 L 246 353.5 L 244 352.5 L 244.5 351 Z " /><path fill="rgb(142,133,65)" stroke="rgb(142,133,65)" stroke-width="1" opacity="0.8235294117647058" d="M 277 351 L 280 352.5 L 277 353 L 277 351 Z " /><path fill="rgb(142,133,65)" stroke="rgb(142,133,65)" stroke-width="1" opacity="0.8235294117647058" d="M 281.5 351 L 282.5 353 L 281.5 351 Z " /><path fill="rgb(142,133,65)" stroke="rgb(142,133,65)" stroke-width="1" opacity="0.8235294117647058" d="M 319.5 351 L 318 353.5 Q 319.1 356.8 316.5 356 L 314.5 357 Q 311.5 355.5 314.5 354 L 315.5 356 L 319.5 351 Z " /><path fill="rgb(142,133,65)" stroke="rgb(142,133,65)" stroke-width="1" opacity="0.8235294117647058" d="M 333.5 351 L 332.5 353 L 333.5 351 Z " /><path fill="rgb(142,133,65)" stroke="rgb(142,133,65)" stroke-width="1" opacity="0.8235294117647058" d="M 351.5 351 L 358.5 351 L 359 353 L 352.5 353 L 351.5 351 Z " /><path fill="rgb(142,133,65)" stroke="rgb(142,133,65)" stroke-width="1" opacity="0.8235294117647058" d="M 370.5 351 L 380 351.5 Q 377.6 354.1 371.5 353 L 370.5 351 Z " /><path fill="rgb(142,133,65)" stroke="rgb(142,133,65)" stroke-width="1" opacity="0.8235294117647058" d="M 434.5 351 L 435 352.5 L 434 354.5 L 435 357.5 L 434 357.5 L 432.5 355 L 423 354.5 Q 425.7 351.7 432.5 353 L 434.5 351 Z " /><path fill="rgb(142,133,65)" stroke="rgb(142,133,65)" stroke-width="1" opacity="0.8235294117647058" d="M 481.5 351 L 482 353 L 487.5 353 L 488 351 L 489.5 351 L 492 352 L 493 355.5 L 491.5 356 L 490.5 355 L 481 354.5 L 481 352.5 L 481.5 351 Z " /><path fill="rgb(142,133,65)" stroke="rgb(142,133,65)" stroke-width="1" opacity="0.8235294117647058" d="M 69.5 352 L 70.5 354 L 69.5 352 Z " /><path fill="rgb(142,133,65)" stroke="rgb(142,133,65)" stroke-width="1" opacity="0.8235294117647058" d="M 96.5 352 L 99 356.5 L 96.5 355 L 87 354.5 L 88.5 353 Q 94.8 354.8 96.5 352 Z " /><path fill="rgb(142,133,65)" stroke="rgb(142,133,65)" stroke-width="1" opacity="0.8235294117647058" d="M 294 352 L 296 352.5 L 295.5 354 Q 297.8 353.3 297 355.5 L 298 358 L 296 358 Q 297.3 353.9 294 355 Q 295.3 359.1 292 358 L 294 352 Z " /><path fill="rgb(142,133,65)" stroke="rgb(142,133,65)" stroke-width="1" opacity="0.8235294117647058" d="M 336.5 352 L 339 356.5 L 337 355.5 L 336.5 354 L 335 358 L 333 357.5 L 336.5 352 Z " /><path fill="rgb(142,133,65)" stroke="rgb(142,133,65)" stroke-width="1" opacity="0.8235294117647058" d="M 455 352 Q 457.7 350.9 457 353.5 L 459 357.5 L 457 356.5 L 456.5 354 L 455 358 L 453 357.5 L 455 352 Z " /><path fill="rgb(142,133,65)" stroke="rgb(142,133,65)" stroke-width="1" opacity="0.8235294117647058" d="M 237.5 353 L 237 354.5 Q 236.8 359.3 233.5 361 L 234 359.5 L 237.5 353 Z " /><path fill="rgb(142,133,65)" stroke="rgb(142,133,65)" stroke-width="1" opacity="0.8235294117647058" d="M 340.5 353 L 342 355.5 L 340 354.5 L 340.5 353 Z " /><path fill="rgb(142,133,65)" stroke="rgb(142,133,65)" stroke-width="1" opacity="0.8235294117647058" d="M 395 353 L 398 354.5 L 395 355 L 395 353 Z " /><path fill="rgb(142,133,65)" stroke="rgb(142,133,65)" stroke-width="1" opacity="0.8235294117647058" d="M 451.5 353 Q 454.3 354.3 452 355.5 Q 452.7 358.1 450 357 L 451.5 353 Z " /><path fill="rgb(142,133,65)" stroke="rgb(142,133,65)" stroke-width="1" opacity="0.8235294117647058" d="M 65.5 354 Q 67.8 353.3 67 355.5 L 65.5 354 Z " /><path fill="rgb(142,133,65)" stroke="rgb(142,133,65)" stroke-width="1" opacity="0.8235294117647058" d="M 130 354 Q 133 353 132 356 Q 129 357 130 354 Z " /><path fill="rgb(142,133,65)" stroke="rgb(142,133,65)" stroke-width="1" opacity="0.8235294117647058" d="M 162.5 354 L 163 360.5 L 162 360.5 L 162.5 354 Z " /><path fill="rgb(142,133,65)" stroke="rgb(142,133,65)" stroke-width="1" opacity="0.8235294117647058" d="M 226.5 354 Q 228.8 353.3 228 355.5 L 226.5 354 Z " /><path fill="rgb(142,133,65)" stroke="rgb(142,133,65)" stroke-width="1" opacity="0.8235294117647058" d="M 290.5 354 L 291 355.5 L 289 356.5 L 290.5 354 Z " /><path fill="rgb(142,133,65)" stroke="rgb(142,133,65)" stroke-width="1" opacity="0.8235294117647058" d="M 299.5 354 Q 301.8 353.3 301 355.5 L 301.5 357 Q 299.3 357.8 300 355.5 L 299.5 354 Z " /><path fill="rgb(142,133,65)" stroke="rgb(142,133,65)" stroke-width="1" opacity="0.8235294117647058" d="M 320 354 L 322 354.5 L 322 365 L 320 365 L 320 358.5 L 318.5 358 L 318.5 357 Q 321.5 357.8 320 354 Z " /><path fill="rgb(142,133,65)" stroke="rgb(142,133,65)" stroke-width="1" opacity="0.8235294117647058" d="M 360.5 354 L 363 354.5 L 360.5 355 L 360.5 354 Z " /><path fill="rgb(142,133,65)" stroke="rgb(142,133,65)" stroke-width="1" opacity="0.8235294117647058" d="M 420.5 354 L 421 357 L 431.5 357 L 432 359 L 423.5 359 L 423 360.5 L 421 359.5 L 422 358.5 L 419 355.5 L 420.5 354 Z " /><path fill="rgb(142,133,65)" stroke="rgb(142,133,65)" stroke-width="1" opacity="0.8235294117647058" d="M 461.5 354 Q 464.5 355.5 461.5 357 L 461.5 354 Z " /><path fill="rgb(142,133,65)" stroke="rgb(142,133,65)" stroke-width="1" opacity="0.8235294117647058" d="M 32.5 355 L 36 356 L 35.5 358 L 32 357 L 32.5 355 Z " /><path fill="rgb(142,133,65)" stroke="rgb(142,133,65)" stroke-width="1" opacity="0.8235294117647058" d="M 71.5 355 L 76 357.5 L 74 358.5 L 72.5 356 L 71.5 355 Z " /><path fill="rgb(142,133,65)" stroke="rgb(142,133,65)" stroke-width="1" opacity="0.8235294117647058" d="M 277 355 L 280 356.5 Q 278.5 359.5 277 356.5 L 277 355 Z " /><path fill="rgb(142,133,65)" stroke="rgb(142,133,65)" stroke-width="1" opacity="0.8235294117647058" d="M 310.5 355 L 313 358.5 L 311 359 L 310.5 355 Z " /><path fill="rgb(142,133,65)" stroke="rgb(142,133,65)" stroke-width="1" opacity="0.8235294117647058" d="M 331.5 355 L 332 356.5 Q 328.8 358.5 329 363 L 327 362.5 L 331.5 355 Z " /><path fill="rgb(142,133,65)" stroke="rgb(142,133,65)" stroke-width="1" opacity="0.8235294117647058" d="M 391.5 355 L 394 356.5 L 392.5 356 L 391.5 355 Z " /><path fill="rgb(142,133,65)" stroke="rgb(142,133,65)" stroke-width="1" opacity="0.8235294117647058" d="M 68.5 356 L 70 358.5 L 68 357.5 L 68.5 356 Z " /><path fill="rgb(142,133,65)" stroke="rgb(142,133,65)" stroke-width="1" opacity="0.8235294117647058" d="M 84.5 356 L 85.5 357 L 95 357 L 94.5 359 L 86.5 359 L 84.5 360 L 84.5 359 L 86 358.5 L 83 357.5 L 84.5 356 Z " /><path fill="rgb(142,133,65)" stroke="rgb(142,133,65)" stroke-width="1" opacity="0.8235294117647058" d="M 242.5 356 Q 245.1 355.2 244 358.5 L 243 358.5 L 242.5 356 Z " /><path fill="rgb(142,133,65)" stroke="rgb(142,133,65)" stroke-width="1" opacity="0.8235294117647058" d="M 246.5 356 Q 248.8 355.3 248 357.5 L 248.5 359 L 246.5 356 Z " /><path fill="rgb(142,133,65)" stroke="rgb(142,133,65)" stroke-width="1" opacity="0.8235294117647058" d="M 398.5 356 L 401 357 L 400.5 359 L 398.5 356 Z " /><path fill="rgb(142,133,65)" stroke="rgb(142,133,65)" stroke-width="1" opacity="0.8235294117647058" d="M 478.5 356 L 479.5 357 L 488.5 357 L 490 358.5 L 478.5 360 L 478.5 359 L 480 358.5 L 478 358 L 478.5 356 Z " /><path fill="rgb(142,133,65)" stroke="rgb(142,133,65)" stroke-width="1" opacity="0.8235294117647058" d="M 169.5 357 L 171 361 Q 167.2 362.2 169.5 357 Z " /><path fill="rgb(142,133,65)" stroke="rgb(142,133,65)" stroke-width="1" opacity="0.8235294117647058" d="M 172.5 357 L 175 358 L 174 365 L 171 364.5 Q 173.8 363.8 173 359.5 L 172.5 357 Z " /><path fill="rgb(142,133,65)" stroke="rgb(142,133,65)" stroke-width="1" opacity="0.8235294117647058" d="M 230.5 357 L 231 359 L 227.5 360 L 226.5 358 L 230.5 357 Z " /><path fill="rgb(142,133,65)" stroke="rgb(142,133,65)" stroke-width="1" opacity="0.8235294117647058" d="M 361.5 357 L 362.5 359 Q 359.7 359.7 361.5 357 Z " /><path fill="rgb(142,133,65)" stroke="rgb(142,133,65)" stroke-width="1" opacity="0.8235294117647058" d="M 440.5 357 Q 444.9 355.5 444 358.5 L 445 362.5 L 444 362.5 Q 445.8 357.3 440.5 359 L 438.5 360 L 440.5 357 Z " /><path fill="rgb(142,133,65)" stroke="rgb(142,133,65)" stroke-width="1" opacity="0.8235294117647058" d="M 469.5 357 L 473 358.5 L 468.5 359 L 469.5 357 Z " /><path fill="rgb(142,133,65)" stroke="rgb(142,133,65)" stroke-width="1" opacity="0.8235294117647058" d="M 123.5 358 L 126 358.5 Q 123.9 361.8 123.5 358 Z " /><path fill="rgb(142,133,65)" stroke="rgb(142,133,65)" stroke-width="1" opacity="0.8235294117647058" d="M 130.5 358 L 133 358.5 L 132 359.5 L 133.5 362 L 130.5 358 Z " /><path fill="rgb(142,133,65)" stroke="rgb(142,133,65)" stroke-width="1" opacity="0.8235294117647058" d="M 219 358 L 223 358 L 223 359.5 L 221 359.5 Q 223 366.4 219 365 L 219 358 Z " /><path fill="rgb(142,133,65)" stroke="rgb(142,133,65)" stroke-width="1" opacity="0.8235294117647058" d="M 301 358 Q 303.7 356.9 303 359.5 L 303.5 361 L 301 359.5 L 301 358 Z " /><path fill="rgb(142,133,65)" stroke="rgb(142,133,65)" stroke-width="1" opacity="0.8235294117647058" d="M 342.5 358 Q 344.8 357.3 344 359.5 L 344.5 361 L 342.5 358 Z " /><path fill="rgb(142,133,65)" stroke="rgb(142,133,65)" stroke-width="1" opacity="0.8235294117647058" d="M 395.5 358 L 397 360.5 L 395 359.5 L 395.5 358 Z " /><path fill="rgb(142,133,65)" stroke="rgb(142,133,65)" stroke-width="1" opacity="0.8235294117647058" d="M 449 358 L 451 358.5 L 448.5 362 L 449 360.5 L 449 358 Z " /><path fill="rgb(142,133,65)" stroke="rgb(142,133,65)" stroke-width="1" opacity="0.8235294117647058" d="M 71.5 359 L 73 361.5 L 71 360.5 L 71.5 359 Z " /><path fill="rgb(142,133,65)" stroke="rgb(142,133,65)" stroke-width="1" opacity="0.8235294117647058" d="M 288.5 359 L 288 360.5 L 287.5 362 L 287 360.5 L 288.5 359 Z " /><path fill="rgb(142,133,65)" stroke="rgb(142,133,65)" stroke-width="1" opacity="0.8235294117647058" d="M 317 359 L 319 359.5 L 317 360.5 L 317 359 Z " /><path fill="rgb(142,133,65)" stroke="rgb(142,133,65)" stroke-width="1" opacity="0.8235294117647058" d="M 463 359 Q 466 358 465 361 Q 462 362 463 359 Z " /><path fill="rgb(142,133,65)" stroke="rgb(142,133,65)" stroke-width="1" opacity="0.8235294117647058" d="M 127.5 360 L 131.5 365 L 128 362.5 L 127.5 360 Z " /><path fill="rgb(142,133,65)" stroke="rgb(142,133,65)" stroke-width="1" opacity="0.8235294117647058" d="M 237 360 L 244.5 360 L 245 362 Q 238.4 360.3 236.5 364 L 236 362.5 L 237 360 Z " /><path fill="rgb(142,133,65)" stroke="rgb(142,133,65)" stroke-width="1" opacity="0.8235294117647058" d="M 248.5 360 Q 250.8 359.3 250 361.5 L 251 365 L 249 364.5 L 250 362.5 L 248.5 360 Z " /><path fill="rgb(142,133,65)" stroke="rgb(142,133,65)" stroke-width="1" opacity="0.8235294117647058" d="M 291 360 L 298.5 360 L 299 361.5 L 300 363.5 L 299 363.5 L 298.5 362 L 291 362 L 290.5 364 L 290 362.5 L 291 360 Z " /><path fill="rgb(142,133,65)" stroke="rgb(142,133,65)" stroke-width="1" opacity="0.8235294117647058" d="M 313.5 360 L 317 362.5 L 315.5 363 L 313 362 L 313.5 360 Z " /><path fill="rgb(142,133,65)" stroke="rgb(142,133,65)" stroke-width="1" opacity="0.8235294117647058" d="M 332 360 L 339.5 360 L 341 361.5 L 343 364.5 L 341.5 365 L 340 362 L 332.5 362 L 332 360 Z " /><path fill="rgb(142,133,65)" stroke="rgb(142,133,65)" stroke-width="1" opacity="0.8235294117647058" d="M 452 360 L 459.5 360 L 460 361.5 L 462 364.5 L 461 364.5 L 459.5 362 L 452.5 362 L 452 365 L 450.5 365 L 451 363.5 L 452 360 Z " /><path fill="rgb(142,133,65)" stroke="rgb(142,133,65)" stroke-width="1" opacity="0.8235294117647058" d="M 229.5 361 L 230.5 363 L 229.5 361 Z " /><path fill="rgb(142,133,65)" stroke="rgb(142,133,65)" stroke-width="1" opacity="0.8235294117647058" d="M 398.5 361 L 399.5 363 Q 396.7 363.7 398.5 361 Z " /><path fill="rgb(142,133,65)" stroke="rgb(142,133,65)" stroke-width="1" opacity="0.8235294117647058" d="M 434.5 361 L 435 363.5 L 433 364.5 L 434.5 361 Z " /><path fill="rgb(142,133,65)" stroke="rgb(142,133,65)" stroke-width="1" opacity="0.8235294117647058" d="M 18.5 362 L 21.5 364 L 21.5 365 L 18.5 362 Z " /><path fill="rgb(142,133,65)" stroke="rgb(142,133,65)" stroke-width="1" opacity="0.8235294117647058" d="M 35.5 362 L 36 363.5 L 34 364.5 L 35.5 362 Z " /><path fill="rgb(142,133,65)" stroke="rgb(142,133,65)" stroke-width="1" opacity="0.8235294117647058" d="M 57 362 L 59 362.5 L 58 365 L 56 364.5 L 57 362 Z " /><path fill="rgb(142,133,65)" stroke="rgb(142,133,65)" stroke-width="1" opacity="0.8235294117647058" d="M 98.5 362 L 96.5 365 L 98.5 362 Z " /><path fill="rgb(142,133,65)" stroke="rgb(142,133,65)" stroke-width="1" opacity="0.8235294117647058" d="M 153 362 Q 155.7 360.9 155 363.5 L 152.5 365 L 153 363.5 L 153 362 Z " /><path fill="rgb(142,133,65)" stroke="rgb(142,133,65)" stroke-width="1" opacity="0.8235294117647058" d="M 194.5 362 Q 196.8 361.3 196 363.5 L 196.5 365 Q 194.3 365.8 195 363.5 L 194.5 362 Z " /><path fill="rgb(142,133,65)" stroke="rgb(142,133,65)" stroke-width="1" opacity="0.8235294117647058" d="M 304.5 362 L 305 364 L 303 363.5 L 304.5 362 Z " /><path fill="rgb(142,133,65)" stroke="rgb(142,133,65)" stroke-width="1" opacity="0.8235294117647058" d="M 362.5 362 L 363 363.5 L 360.5 365 L 362.5 362 Z " /><path fill="rgb(142,133,65)" stroke="rgb(142,133,65)" stroke-width="1" opacity="0.8235294117647058" d="M 419 362 Q 421.7 360.9 421 363.5 L 421.5 365 L 419 363.5 L 419 362 Z " /><path fill="rgb(142,133,65)" stroke="rgb(142,133,65)" stroke-width="1" opacity="0.8235294117647058" d="M 74.5 363 Q 76.8 362.3 76 364.5 L 74.5 363 Z " /><path fill="rgb(142,133,65)" stroke="rgb(142,133,65)" stroke-width="1" opacity="0.8235294117647058" d="M 134.5 363 L 137 364.5 L 135.5 365 L 134.5 363 Z " /><path fill="rgb(142,133,65)" stroke="rgb(142,133,65)" stroke-width="1" opacity="0.8235294117647058" d="M 265.5 363 L 268 364.5 L 266.5 365 L 265.5 363 Z " /><path fill="rgb(142,133,65)" stroke="rgb(142,133,65)" stroke-width="1" opacity="0.8235294117647058" d="M 281.5 363 L 282 365 L 280 364.5 L 281.5 363 Z " /><path fill="rgb(142,133,65)" stroke="rgb(142,133,65)" stroke-width="1" opacity="0.8235294117647058" d="M 331.5 363 L 332 365 L 330 364.5 L 331.5 363 Z " /><path fill="rgb(142,133,65)" stroke="rgb(142,133,65)" stroke-width="1" opacity="0.8235294117647058" d="M 367.5 363 L 368.5 365 L 367.5 363 Z " /><path fill="rgb(142,133,65)" stroke="rgb(142,133,65)" stroke-width="1" opacity="0.8235294117647058" d="M 438.5 363 L 441 364.5 L 439.5 365 L 438.5 363 Z " /><path fill="rgb(142,133,65)" stroke="rgb(142,133,65)" stroke-width="1" opacity="0.8235294117647058" d="M 477.5 363 Q 479.8 362.3 479 364.5 L 477.5 363 Z " /><path fill="rgb(233,212,27)" stroke="rgb(233,212,27)" stroke-width="1" opacity="0.9098039215686274" d="M 29.5 135 L 84.5 135 L 91 139.5 Q 97.1 149.1 95 166 L 80 169 L 80 150 L 34 150 L 34 206.5 L 33 207.5 L 80 208 L 80 187.5 Q 80 186.5 84.5 187 L 95 190 Q 96.9 207.6 92 218 L 90 218 Q 91.1 220.7 88.5 220 L 85.5 222 Q 79.3 220.3 77.5 223 L 34.5 223 L 25.5 221 L 21 216.5 L 18 207.5 L 18 150.5 Q 20.3 149.2 19 144.5 L 23 138 L 29.5 135 Z M 33 137 L 27 139 L 21 147 L 21 211 L 23 216 L 30 220 Q 35 219 37 221 L 77 221 L 87 219 L 92 212 L 92 191 L 84 189 L 82 190 L 82 210 L 31 210 L 31 149 L 33 147 L 81 147 L 82 149 L 82 166 L 91 165 L 92 164 L 92 147 L 89 140 L 82 137 L 33 137 Z " /><path fill="rgb(233,212,27)" stroke="rgb(233,212,27)" stroke-width="1" opacity="0.9098039215686274" d="M 169.5 139 L 184.5 140 Q 194.5 143.5 200 151.5 L 206 162.5 L 208 170.5 L 208 235.5 L 206.5 237 L 166 237 L 166 208.5 L 164.5 208 L 144 246.5 L 144 249 L 208 249 L 208 324 L 166 324 L 166 283 L 126.5 283 L 105 321.5 L 105 327 L 93.5 327 L 93 325.5 L 91.5 324 L 54 324 L 60 311.5 L 56 307.5 L 43.5 287 L 42 287.5 L 42 285.5 L 32.5 269 L 32 328 L 19.5 328 L 19 326.5 L 18 325.5 L 18 241.5 L 19.5 240 L 30.5 240 L 31.5 239 Q 38.3 255.7 49 268.5 L 52 276.5 L 62.5 292 L 65 290.5 L 76 269.5 L 75.5 268 L 77 268.5 L 92 240.5 L 91.5 239 L 101 241 L 146 159.5 L 155.5 147 Q 161 141.5 169.5 139 Z M 170 156 L 159 163 L 147 179 L 105 256 L 104 256 L 104 242 L 94 242 L 63 297 L 30 242 L 22 242 L 20 244 L 20 325 L 22 326 Q 28 328 30 325 L 30 261 L 29 260 L 30 256 L 36 272 L 59 310 Q 59 312 64 312 L 89 270 L 93 259 L 94 259 L 93 280 L 92 279 L 72 315 L 74 315 L 92 282 L 93 282 L 93 290 L 92 290 L 79 312 Q 78 316 82 317 L 93 297 L 93 325 L 95 326 L 104 326 L 104 285 L 108 281 L 157 191 L 167 177 L 172 173 L 177 173 L 180 179 L 181 193 L 181 195 L 180 224 L 180 226 L 181 229 L 182 229 L 182 179 L 180 174 L 176 170 L 171 171 Q 162 178 156 189 L 105 282 L 104 282 L 104 258 L 106 257 L 108 255 L 148 181 L 159 166 L 171 158 Q 179 157 183 160 Q 190 164 192 174 Q 191 179 193 181 L 193 229 L 195 228 L 195 185 L 194 184 L 193 171 L 190 165 L 180 156 L 170 156 Z M 175 161 Q 166 163 162 169 L 165 173 L 174 167 L 181 169 L 184 174 L 186 181 L 185 184 L 186 186 L 190 185 L 190 178 L 186 168 L 182 163 L 175 161 Z M 151 182 L 139 204 L 139 207 L 143 208 L 155 187 L 154 184 Q 155 180 151 182 Z M 187 194 Q 184 195 186 197 L 185 199 L 186 201 L 186 224 L 186 226 Q 184 231 190 229 L 190 195 L 187 194 Z M 129 224 L 113 252 L 112 253 L 116 256 L 131 229 Q 132 225 129 224 Z " /><path fill="rgb(233,212,27)" stroke="rgb(233,212,27)" stroke-width="1" opacity="0.9098039215686274" d="M 235.5 239 L 236.5 240 L 289.5 240 L 297 245.5 Q 301.9 254.1 300 269.5 L 299 272 L 285 274 L 285 254 L 239 254 L 239 313 L 282.5 313 L 285 312.5 L 285.5 291 L 287.5 291 L 300 294 L 300 313.5 L 299 318.5 L 295 325 L 284.5 328 L 238.5 328 Q 237.3 325.8 232.5 327 L 231 327.5 L 231.5 326 L 229.5 325 L 228 325.5 L 229 324.5 L 226 321.5 L 224 314.5 L 224 252.5 L 228 243 L 235.5 239 Z M 238 242 L 232 244 Q 227 247 226 254 L 226 315 L 229 322 L 235 325 L 290 325 L 292 324 L 297 318 L 298 313 L 298 298 L 289 294 L 287 296 L 287 315 L 238 315 L 236 314 L 237 309 L 236 307 L 236 260 L 237 259 L 236 257 L 237 252 L 287 252 L 287 271 L 295 270 L 298 268 L 298 256 L 295 247 L 293 244 L 287 242 L 238 242 Z " /><path fill="rgb(233,212,27)" stroke="rgb(233,212,27)" stroke-width="1" opacity="0.9098039215686274" d="M 323.5 240 L 325.5 240 L 388.5 240 L 394 243.5 L 396 246.5 L 399 255.5 L 399 311.5 L 397 320.5 L 395 324 L 389.5 327 Q 384.8 325.8 383.5 328 L 327.5 328 L 320.5 326 L 316 322.5 L 313 313.5 L 313 311.5 L 313 254.5 L 316 245 Q 318.7 246.1 318 243.5 L 323.5 240 Z M 327 242 L 321 244 L 315 254 L 315 314 L 317 320 L 325 325 L 388 325 L 392 323 L 396 316 L 396 252 L 395 249 Q 392 243 385 242 L 327 242 Z " /><path fill="rgb(233,212,27)" stroke="rgb(233,212,27)" stroke-width="1" opacity="0.9098039215686274" d="M 411 240 L 421.5 240 L 422 242 L 423.5 242 L 426.5 246 L 429 247.5 L 430.5 250 Q 432.8 249.3 432 251.5 L 437 258 L 440 259.5 L 442.5 263 Q 444.8 262.3 444 264.5 L 447 266 L 457.5 279 Q 459.8 278.3 459 280.5 L 463 283 L 465 288 L 468 289.5 L 470 292.5 L 475 296.5 L 478.5 301 L 479 240 L 492.5 240 L 493 240.5 L 493 328 L 484.5 328 L 484 326.5 L 480 323.5 L 476 318.5 L 467 309.5 L 467 308 L 464 306.5 L 462.5 304 L 461 304.5 L 462 303.5 L 451 292.5 L 447 287.5 Q 444.5 289.3 442 284.5 L 442 282.5 L 440.5 280 L 438 278.5 L 429.5 269 Q 428.3 271.3 427 268.5 L 429 268.5 L 426.5 265 L 425 265.5 L 425 327.5 L 424.5 328 L 412.5 328 L 411 328.5 L 412 326.5 L 412 324.5 L 411 321.5 L 411 245.5 L 411 243.5 L 411 240 Z M 415 242 L 413 244 L 413 325 L 414 325 L 423 325 L 423 259 L 422 258 L 424 257 L 428 265 L 482 323 Q 484 327 491 325 L 491 244 L 490 242 Q 483 240 481 244 L 481 301 L 482 302 L 482 310 L 477 303 L 436 259 L 420 242 L 415 242 Z " /><path fill="rgb(233,212,27)" stroke="rgb(233,212,27)" stroke-width="1" opacity="0.9098039215686274" d="M 326 252 L 386 252 L 386 315 L 326 315 L 326 252 Z M 328 254 L 328 313 L 384 313 L 384 254 L 379 256 L 379 255 L 328 254 Z " /><path fill="rgb(233,212,27)" stroke="rgb(233,212,27)" stroke-width="1" opacity="0.9098039215686274" d="M 181.5 353 L 182 364.5 L 181 364.5 L 181.5 353 Z " /><path fill="rgb(233,212,27)" stroke="rgb(233,212,27)" stroke-width="1" opacity="0.9098039215686274" d="M 207.5 353 L 208 359.5 L 207 359.5 L 207.5 353 Z " /><path fill="rgb(233,212,27)" stroke="rgb(233,212,27)" stroke-width="1" opacity="0.9098039215686274" d="M 445.5 359 L 446 362.5 L 445 362.5 L 445.5 359 Z " /></svg>