<svg width="192" height="192" version="1.1" xmlns="http://www.w3.org/2000/svg" desc="Created with imagetracer.js version 1.2.6" ><path fill="rgb(17,17,21)" stroke="rgb(17,17,21)" stroke-width="1" opacity="0.6509803921568628" d="M 64.5 44 L 66 44.5 L 57 50.5 L 55.5 53 L 56 51.5 L 60.5 46 L 64.5 44 Z " /><path fill="rgb(17,17,21)" stroke="rgb(17,17,21)" stroke-width="1" opacity="0.6509803921568628" d="M 69.5 45 L 76 48.5 L 79 54.5 L 78 54.5 Q 76.6 48.4 71.5 46 Q 68.5 46.5 69.5 45 Z " /><path fill="rgb(17,17,21)" stroke="rgb(17,17,21)" stroke-width="1" opacity="0.6509803921568628" d="M 12.5 46 L 31.5 46 L 34 47 L 35 54.5 L 32 56 L 32 49 L 12 49 L 12 76 L 32 76 L 32.5 67 L 35 68 Q 36.1 74.8 32.5 78 L 11.5 78 L 10 76.5 L 9 74.5 L 9 50.5 L 10 47 L 12.5 46 Z " /><path fill="rgb(17,17,21)" stroke="rgb(17,17,21)" stroke-width="1" opacity="0.6509803921568628" d="M 64.5 56 L 70 57 L 71 60.5 L 70 60.5 L 67.5 57 Q 63.3 56.3 62.5 59 L 64.5 56 Z " /><path fill="rgb(17,17,21)" stroke="rgb(17,17,21)" stroke-width="1" opacity="0.6509803921568628" d="M 49.5 64 L 49 65.5 L 42.5 78 L 43 76.5 L 49.5 64 Z " /><path fill="rgb(17,17,21)" stroke="rgb(17,17,21)" stroke-width="1" opacity="0.6509803921568628" d="M 61.5 78 L 62 79.5 L 60 80.5 L 61.5 78 Z " /><path fill="rgb(17,17,21)" stroke="rgb(17,17,21)" stroke-width="1" opacity="0.6509803921568628" d="M 48.5 82 L 49 83.5 L 44.5 92 L 44 90.5 L 48.5 82 Z " /><path fill="rgb(17,17,21)" stroke="rgb(17,17,21)" stroke-width="1" opacity="0.6509803921568628" d="M 38.5 85 L 37.5 87 L 38.5 85 Z " /><path fill="rgb(17,17,21)" stroke="rgb(17,17,21)" stroke-width="1" opacity="0.6509803921568628" d="M 57.5 86 L 58 87.5 L 56.5 90 L 56 88.5 L 57.5 86 Z " /><path fill="rgb(17,17,21)" stroke="rgb(17,17,21)" stroke-width="1" opacity="0.6509803921568628" d="M 62.5 86 L 80 86.5 L 62.5 87 L 62.5 86 Z " /><path fill="rgb(17,17,21)" stroke="rgb(17,17,21)" stroke-width="1" opacity="0.6509803921568628" d="M 9 89 Q 12.8 87.5 12 90.5 L 24.5 111 L 36.5 89 L 39 89.5 L 39 121 L 37 120.5 L 37 94.5 L 35 94 L 34 98.5 L 24.5 116 Q 16.9 105.8 13 93 L 11 93.5 L 11 120.5 L 9 121 L 9 89 Z " /><path fill="rgb(17,17,21)" stroke="rgb(17,17,21)" stroke-width="1" opacity="0.6509803921568628" d="M 88.5 89 L 109.5 89 L 111 90.5 L 112 97.5 L 109 99 L 109 92.5 L 107.5 91 L 90.5 91 L 89 92.5 L 89 117.5 L 90.5 119 L 107.5 119 L 109 117.5 L 109.5 110 L 112 111 L 111 119.5 L 109.5 121 L 88.5 121 L 87 119.5 L 86 117.5 L 86 92.5 L 88.5 89 Z " /><path fill="rgb(17,17,21)" stroke="rgb(17,17,21)" stroke-width="1" opacity="0.6509803921568628" d="M 122.5 89 L 146.5 89 L 148 90.5 L 149 92.5 L 149 117.5 L 146.5 121 L 122.5 121 L 120 118.5 L 120 91.5 L 122.5 89 Z M 124 91 L 122 93 L 122 118 L 124 119 L 145 119 L 146 118 L 146 93 L 145 91 L 124 91 Z " /><path fill="rgb(17,17,21)" stroke="rgb(17,17,21)" stroke-width="1" opacity="0.6509803921568628" d="M 157.5 89 L 181.5 117 Q 184.3 115.8 182 114.5 L 182 89.5 L 184 89 L 184 120.5 L 182 121 L 159.5 93 Q 156.9 92.2 158 95.5 L 159 96.5 L 159 121 L 157 120.5 L 157.5 89 Z " /><path fill="rgb(17,17,21)" stroke="rgb(17,17,21)" stroke-width="1" opacity="0.6509803921568628" d="M 48.5 106 L 48 107.5 L 46.5 111 L 46 109.5 L 48.5 106 Z " /><path fill="rgb(17,17,21)" stroke="rgb(17,17,21)" stroke-width="1" opacity="0.6509803921568628" d="M 21.5 117 L 22 118.5 L 20 121.5 L 35 122.5 L 19 123 L 21.5 117 Z " /><path fill="rgb(17,17,21)" stroke="rgb(17,17,21)" stroke-width="1" opacity="0.6509803921568628" d="M 79.5 121 L 80 123 L 62 122.5 L 78.5 122 L 79.5 121 Z " /><path fill="rgb(17,17,21)" stroke="rgb(17,17,21)" stroke-width="1" opacity="0.6509803921568628" d="M 8 130 Q 13.4 128.5 15 131.5 Q 15.8 133.8 13.5 133 L 10 132 Q 8.1 137.6 13 136 L 13.5 134 L 15 136.5 Q 13.4 139.5 8 138 L 8 130 Z " /><path fill="rgb(17,17,21)" stroke="rgb(17,17,21)" stroke-width="1" opacity="0.6509803921568628" d="M 100 130 L 107 130 L 107 133 L 102 132 Q 100.1 137.6 105 136 L 105.5 134 L 107 138 L 100 138 L 100 130 Z " /><path fill="rgb(17,17,21)" stroke="rgb(17,17,21)" stroke-width="1" opacity="0.6509803921568628" d="M 17.5 131 L 20.5 132 Q 21.8 129.8 23 132.5 L 23 138 L 16 138 Q 14.5 132.6 17.5 131 Z M 18 133 Q 17 138 21 136 Q 23 132 18 133 Z " /><path fill="rgb(17,17,21)" stroke="rgb(17,17,21)" stroke-width="1" opacity="0.6509803921568628" d="M 24 131 L 28.5 134 L 29.5 131 Q 32.5 132.6 31 138 Q 27.3 139.5 28 136.5 L 25.5 135 L 24.5 138 L 24 131 Z " /><path fill="rgb(17,17,21)" stroke="rgb(17,17,21)" stroke-width="1" opacity="0.6509803921568628" d="M 32 131 L 35.5 132 Q 36.8 129.8 38 132.5 L 38 134.5 L 38 138 L 32 138 Q 30.9 135.3 33.5 136 L 37 134.5 L 33.5 134 L 32 134.5 L 32 131 Z " /><path fill="rgb(17,17,21)" stroke="rgb(17,17,21)" stroke-width="1" opacity="0.6509803921568628" d="M 39.5 131 L 41.5 131 L 45 132.5 L 43 133 L 43 138 L 41 138 L 41 133.5 L 39 133 L 39.5 131 Z " /><path fill="rgb(17,17,21)" stroke="rgb(17,17,21)" stroke-width="1" opacity="0.6509803921568628" d="M 46 131 Q 50.6 129.8 52 132.5 L 51 136.5 L 51.5 138 L 47.5 136 L 46.5 138 L 46 131 Z M 48 133 L 48 134 L 50 134 L 48 133 Z " /><path fill="rgb(17,17,21)" stroke="rgb(17,17,21)" stroke-width="1" opacity="0.6509803921568628" d="M 53 131 Q 55.7 129.9 55 132.5 L 54 136 L 57 136 Q 55.3 130.8 59 132 L 59 138 L 53 138 L 53 131 Z " /><path fill="rgb(17,17,21)" stroke="rgb(17,17,21)" stroke-width="1" opacity="0.6509803921568628" d="M 61.5 131 L 63.5 132 L 66 131 L 65.5 134 L 62 133 Q 60.3 137.1 64.5 136 L 66 135.5 L 65.5 138 Q 57.3 140.8 60 132.5 L 61.5 131 Z " /><path fill="rgb(17,17,21)" stroke="rgb(17,17,21)" stroke-width="1" opacity="0.6509803921568628" d="M 67.5 131 L 69.5 131 L 71.5 132 L 73 131.5 Q 73.7 134.1 71 133 L 71 138 L 69 138 L 69 133.5 L 67 133 L 67.5 131 Z " /><path fill="rgb(17,17,21)" stroke="rgb(17,17,21)" stroke-width="1" opacity="0.6509803921568628" d="M 74.5 131 L 78.5 132 L 80 131.5 L 81 136.5 Q 79.4 139.5 74 138 L 74.5 131 Z M 77 133 L 75 135 L 75 136 L 80 136 Q 82 132 77 133 Z " /><path fill="rgb(17,17,21)" stroke="rgb(17,17,21)" stroke-width="1" opacity="0.6509803921568628" d="M 82 131 L 85.5 132 Q 86.8 129.8 88 132.5 L 87 135.5 L 87.5 137 L 91.5 131 L 95 138 L 90.5 137 L 85 138 Q 86 135 83 136 L 82.5 138 L 82 131 Z " /><path fill="rgb(17,17,21)" stroke="rgb(17,17,21)" stroke-width="1" opacity="0.6509803921568628" d="M 111.5 131 L 115 138 L 110.5 137 L 108 138 L 111.5 131 Z " /><path fill="rgb(17,17,21)" stroke="rgb(17,17,21)" stroke-width="1" opacity="0.6509803921568628" d="M 116.5 131 L 120 133.5 L 121.5 131 L 123 136.5 L 121 137.5 L 120.5 136 L 118.5 137 L 117 136.5 L 116.5 138 L 116.5 131 Z " /><path fill="rgb(17,17,21)" stroke="rgb(17,17,21)" stroke-width="1" opacity="0.6509803921568628" d="M 126 131 Q 128.7 129.9 128 132.5 L 130 138 L 125.5 137 L 124 137.5 L 126 131 Z " /><path fill="rgb(17,17,21)" stroke="rgb(17,17,21)" stroke-width="1" opacity="0.6509803921568628" d="M 132.5 131 L 134.5 132 L 137 131 Q 138.5 134.7 135.5 134 L 133 133 Q 131.5 136.7 134.5 136 L 137 135 L 137 138 L 131 138 Q 129.5 132.6 132.5 131 Z " /><path fill="rgb(17,17,21)" stroke="rgb(17,17,21)" stroke-width="1" opacity="0.6509803921568628" d="M 138 131 L 142.5 132 Q 143.8 129.8 145 132.5 L 144 135.5 Q 146.3 136.7 143.5 138 L 138 138 L 138 131 Z M 140 133 Q 139 138 143 136 Q 145 132 140 133 Z " /><path fill="rgb(17,17,21)" stroke="rgb(17,17,21)" stroke-width="1" opacity="0.6509803921568628" d="M 147.5 131 L 151 133.5 L 151.5 131 L 152 138 L 149 136.5 L 148.5 135 L 148 138 Q 144 139.4 146 132.5 L 147.5 131 Z " /><path fill="rgb(17,17,21)" stroke="rgb(17,17,21)" stroke-width="1" opacity="0.6509803921568628" d="M 159.5 131 L 161.5 132 L 164 131 L 163 133.5 L 164 138 L 158 138 L 158 136 L 163 134.5 L 159.5 134 L 158 134.5 L 159.5 131 Z " /><path fill="rgb(17,17,21)" stroke="rgb(17,17,21)" stroke-width="1" opacity="0.6509803921568628" d="M 171 131 Q 173.7 129.9 173 132.5 L 175.5 137 L 176 135 Q 179.3 133.9 178 138 L 170.5 137 L 169 137.5 L 171 131 Z " /><path fill="rgb(17,17,21)" stroke="rgb(17,17,21)" stroke-width="1" opacity="0.6509803921568628" d="M 180 131 L 183.5 132 Q 184.8 129.8 186 132.5 L 181 134.5 L 185 135 L 185 138 L 180 138 L 181 135.5 L 180 131 Z " /><path fill="rgb(17,17,21)" stroke="rgb(17,17,21)" stroke-width="1" opacity="0.6509803921568628" d="M 165 135 L 168 136.5 Q 168.7 139.5 165 138 L 165 135 Z " /><path fill="rgb(0,0,0)" stroke="rgb(0,0,0)" stroke-width="1" opacity="0" d="M 0 0 L 192 0 L 192 192 L 0 192 L 0 0 Z M 11 44 L 7 49 L 7 77 L 8 79 L 13 81 L 33 81 Q 39 78 37 66 L 35 65 L 30 65 L 30 74 L 14 74 L 14 51 L 30 51 L 30 59 L 37 57 L 36 47 L 34 44 L 11 44 Z M 63 44 L 62 46 L 58 49 Q 54 48 56 52 L 55 52 L 55 54 L 45 71 L 39 85 L 36 87 L 32 92 L 25 108 L 12 86 Q 8 85 7 88 L 7 124 L 8 124 L 13 124 L 14 101 L 22 116 L 19 123 L 35 123 L 41 124 L 41 122 L 50 106 L 62 106 L 62 123 L 80 123 L 80 90 L 57 90 L 60 82 L 62 81 L 62 87 L 80 87 L 80 58 L 76 49 L 72 45 L 69 45 L 67 45 L 65 44 L 63 44 Z M 91 86 L 88 87 L 85 90 L 84 94 L 84 117 L 85 121 L 91 124 L 108 124 L 111 123 L 113 121 L 114 109 L 112 108 L 107 108 L 107 116 L 93 116 L 91 117 L 91 94 L 107 94 L 107 101 L 109 102 L 114 100 L 113 90 L 109 86 L 91 86 Z M 124 86 L 121 87 L 118 91 L 118 120 L 119 122 L 124 124 L 145 124 L 148 123 L 150 121 L 151 117 L 151 94 L 150 90 L 145 86 L 124 86 Z M 156 86 L 154 88 L 154 123 Q 156 125 161 124 L 162 99 L 180 122 Q 181 125 186 124 L 187 123 L 187 88 Q 185 85 180 86 L 180 111 L 161 89 L 156 86 Z M 9 129 L 8 138 Q 13 139 15 137 L 14 135 L 15 130 L 9 129 Z M 101 129 L 100 138 L 107 138 L 106 135 L 107 130 L 101 129 Z M 17 130 L 16 133 L 16 138 L 23 138 L 25 138 L 26 135 L 28 136 L 29 139 L 31 138 L 31 130 L 29 134 L 25 130 L 24 134 L 23 133 L 17 130 Z M 34 130 L 32 132 L 32 138 Q 37 139 39 137 L 38 135 L 38 133 L 37 131 L 36 131 L 34 130 Z M 39 130 L 39 132 Q 38 134 41 133 L 41 138 L 43 138 L 43 134 L 45 133 L 45 131 L 44 131 L 39 130 Z M 46 130 L 47 138 L 48 136 L 50 139 L 52 138 L 51 136 L 52 133 Q 50 128 49 131 L 46 130 Z M 58 130 L 56 132 L 57 136 L 54 136 L 55 133 Q 56 130 53 131 L 53 138 L 59 138 L 60 132 L 58 130 Z M 63 130 Q 59 132 60 138 L 67 138 L 67 136 Q 65 134 68 133 L 69 133 L 69 138 L 71 138 L 71 133 L 73 133 L 74 133 Q 71 141 80 138 L 82 138 L 85 136 L 85 138 L 92 138 L 93 137 L 95 138 L 92 130 L 89 135 Q 90 137 88 136 L 87 134 L 88 132 Q 87 129 83 130 L 81 133 L 80 130 L 74 131 L 71 130 L 67 132 L 63 130 Z M 116 130 L 117 138 L 118 136 L 121 138 L 124 137 L 126 137 L 130 138 L 128 133 Q 129 129 126 130 L 124 136 L 122 132 L 123 130 Q 120 129 121 132 Q 120 134 119 132 L 116 130 Z M 133 130 L 130 132 L 131 138 L 138 137 Q 139 139 144 138 Q 146 137 144 136 L 145 133 L 144 131 L 142 130 L 138 131 L 138 133 L 137 132 Q 136 129 133 130 Z M 147 130 L 146 138 L 148 138 L 149 135 L 149 137 L 152 138 L 152 131 L 151 134 L 147 130 Z M 163 130 L 160 131 L 157 138 L 164 138 L 164 132 L 163 130 Z M 171 130 L 170 134 Q 171 136 169 135 L 169 137 L 170 138 L 178 138 Q 179 134 176 135 L 176 137 L 173 133 Q 174 129 171 130 Z M 181 130 Q 178 131 180 133 Q 178 141 185 138 L 186 133 L 185 131 L 184 131 L 181 130 Z M 112 131 L 108 136 L 108 138 L 113 137 L 115 138 Q 116 135 113 134 Q 114 130 112 131 Z M 167 134 L 165 136 Q 164 140 168 138 L 167 134 Z " /><path fill="rgb(0,0,0)" stroke="rgb(0,0,0)" stroke-width="1" opacity="0" d="M 125 94 L 144 94 L 144 116.5 L 142.5 116 L 125 116 L 125 94 Z " /><path fill="rgb(0,0,0)" stroke="rgb(0,0,0)" stroke-width="1" opacity="0" d="M 10 132 L 13 132.5 L 13 134.5 Q 13.7 137.5 10 136 L 10 132 Z " /><path fill="rgb(0,0,0)" stroke="rgb(0,0,0)" stroke-width="1" opacity="0" d="M 102 132 L 105 132.5 L 105 134.5 Q 105.7 137.5 102 136 L 102 132 Z " /><path fill="rgb(0,0,0)" stroke="rgb(0,0,0)" stroke-width="1" opacity="0" d="M 47.5 133 L 50 133.5 L 47.5 134 L 47.5 133 Z " /><path fill="rgb(0,0,0)" stroke="rgb(0,0,0)" stroke-width="1" opacity="0" d="M 133.5 133 L 135 136 Q 131.5 137.1 133.5 133 Z " /><path fill="rgb(0,0,0)" stroke="rgb(0,0,0)" stroke-width="1" opacity="0" d="M 19.5 134 Q 22.1 133.3 21 136 L 18 135.5 L 19.5 134 Z " /><path fill="rgb(0,0,0)" stroke="rgb(0,0,0)" stroke-width="1" opacity="0" d="M 62.5 134 L 65 134.5 Q 62.9 137.8 62.5 134 Z " /><path fill="rgb(0,0,0)" stroke="rgb(0,0,0)" stroke-width="1" opacity="0" d="M 75 134 Q 79.1 132.7 78 136 Q 73.9 137.3 75 134 Z " /><path fill="rgb(0,0,0)" stroke="rgb(0,0,0)" stroke-width="1" opacity="0" d="M 140 134 Q 144.1 132.7 143 136 Q 138.9 137.3 140 134 Z " /><path fill="rgb(137,127,48)" stroke="rgb(137,127,48)" stroke-width="1" opacity="0.8627450980392157" d="M 11.5 45 L 32.5 45 L 35 47.5 L 36 55.5 Q 34.8 58 31 57 L 31 50 L 13 50 L 13 75 L 31 75 L 31 67.5 L 32.5 66 L 36 68.5 Q 37.1 76.1 33.5 79 L 11.5 79 L 9 76.5 L 9.5 75 L 11.5 78 L 32.5 78 L 34 76.5 L 35 68 L 32.5 67 L 32 76 L 12 76 L 12 49 L 31.5 49 L 32 49.5 L 32 56 L 33.5 56 Q 35.8 55.3 35 51.5 L 34 47 L 31.5 46 L 12.5 46 L 10 47 L 9.5 50 L 9 47.5 L 11.5 45 Z " /><path fill="rgb(137,127,48)" stroke="rgb(137,127,48)" stroke-width="1" opacity="0.8627450980392157" d="M 64.5 45 Q 74.3 44.7 77 51.5 L 80 59.5 L 80 86 L 78 85.5 L 78 83.5 L 78 55.5 L 71.5 47 L 64.5 46 L 58 50.5 L 46.5 72 L 45.5 70 L 47 70.5 L 55 53.5 L 54.5 52 Q 55.8 54.3 57 51.5 L 56 49.5 Q 58.2 51.2 60.5 47 L 64.5 45 Z " /><path fill="rgb(137,127,48)" stroke="rgb(137,127,48)" stroke-width="1" opacity="0.8627450980392157" d="M 8.5 51 L 9 73.5 L 8 73.5 L 8.5 51 Z " /><path fill="rgb(137,127,48)" stroke="rgb(137,127,48)" stroke-width="1" opacity="0.8627450980392157" d="M 63.5 53 Q 70 52 72 55.5 L 74 59.5 L 74 81.5 L 73 81.5 L 72.5 64 L 70 65 L 71 59.5 L 69 60.5 L 68.5 82 L 68 61.5 L 66.5 60 L 61 64.5 L 40 105.5 L 40 118.5 L 42 117.5 L 45.5 110 L 46 111.5 L 40.5 123 L 36 122 L 35.5 124 L 35 122 L 20 121.5 L 23 115.5 L 12.5 96 L 12 122 L 8 121.5 L 8 88 L 13 88 L 13 89.5 L 24.5 110 L 35 88 L 39 85.5 L 43.5 77 L 43 78.5 L 39 87.5 L 40.5 92 L 60.5 55 L 63.5 53 Z M 65 54 L 65 55 L 69 56 L 70 56 Q 69 53 65 54 Z M 63 55 L 56 65 L 58 64 L 60 65 L 61 63 L 63 61 L 62 58 L 64 56 L 63 55 Z M 65 56 L 65 57 L 68 57 L 65 56 Z M 69 57 L 70 59 Q 71 56 69 57 Z M 73 59 L 72 63 L 73 63 L 73 59 Z M 53 71 L 48 80 Q 47 82 50 81 L 51 84 L 55 76 Q 56 73 53 74 L 53 71 Z M 48 81 L 47 83 L 49 84 L 48 81 Z M 47 83 L 46 85 L 48 86 L 47 83 Z M 46 85 L 45 87 L 47 88 L 46 85 Z M 45 87 L 44 89 L 46 90 L 45 87 Z M 9 89 L 9 121 L 11 121 L 11 94 L 13 93 Q 17 106 25 116 L 28 109 L 30 108 L 26 116 L 23 117 L 22 120 L 23 121 L 36 121 L 36 112 L 33 117 L 30 118 L 30 116 L 29 118 L 28 118 L 36 103 L 36 97 L 33 103 L 31 104 L 35 94 L 37 95 L 37 121 L 39 121 L 39 90 L 37 89 L 25 111 L 12 91 Q 13 87 9 89 Z M 44 89 L 40 95 L 41 103 L 45 95 L 43 92 L 46 93 L 44 89 Z M 34 109 Q 32 112 35 111 L 34 109 Z M 33 111 Q 31 114 34 113 L 33 111 Z M 32 113 Q 30 116 33 115 L 32 113 Z " /><path fill="rgb(137,127,48)" stroke="rgb(137,127,48)" stroke-width="1" opacity="0.8627450980392157" d="M 71.5 68 L 72 80.5 L 71.5 83 L 70 81.5 L 70 69.5 L 71.5 68 Z " /><path fill="rgb(137,127,48)" stroke="rgb(137,127,48)" stroke-width="1" opacity="0.8627450980392157" d="M 62.5 74 L 63 85.5 L 62 85.5 L 61.5 78 L 56 90 L 78.5 90 L 80 91.5 L 80 120.5 L 78.5 122 L 62 122 L 62 106 L 48.5 106 L 47 106.5 L 48.5 105 L 60.5 105 L 61.5 104 L 63 105.5 L 63 121 L 77.5 121 L 79 119.5 L 78 118.5 L 78 93.5 Q 80.3 92.3 77.5 91 L 55.5 91 L 55 88.5 L 62.5 74 Z " /><path fill="rgb(137,127,48)" stroke="rgb(137,127,48)" stroke-width="1" opacity="0.8627450980392157" d="M 88.5 88 L 109.5 88 L 112 90.5 L 113 98.5 Q 111.8 101 108 100 L 108 92 L 90 92 L 90 118 L 108 118 L 108 109.5 L 109.5 109 L 113 110 Q 114.8 119 109.5 122 L 88.5 122 L 86 119.5 L 85 117.5 L 85 93.5 L 86 93.5 L 86 117.5 L 88.5 121 L 109.5 121 L 111 119.5 L 112 111 L 109.5 110 L 109 117.5 L 107.5 119 L 90.5 119 L 89 117.5 L 89 92.5 L 90.5 91 L 107.5 91 L 109 92.5 Q 107.5 99.5 110.5 99 Q 112.8 98.3 112 94.5 L 109.5 89 L 88.5 89 L 87 90.5 L 86.5 92 L 86 90.5 L 88.5 88 Z " /><path fill="rgb(137,127,48)" stroke="rgb(137,127,48)" stroke-width="1" opacity="0.8627450980392157" d="M 121.5 88 L 146.5 88 L 149 90.5 L 148.5 92 L 146.5 89 L 122.5 89 L 120 91.5 L 120 118.5 L 122.5 121 L 146.5 121 L 148 119.5 L 148.5 118 L 149 119.5 L 146.5 122 L 121.5 122 L 119 119.5 L 119 91.5 L 121.5 88 Z " /><path fill="rgb(137,127,48)" stroke="rgb(137,127,48)" stroke-width="1" opacity="0.8627450980392157" d="M 156 88 Q 160.7 87.3 162 91.5 L 180.5 114 L 181 88 L 185 88.5 L 185 122 Q 180.3 122.8 179 118.5 L 160.5 96 L 160 122 L 156 121.5 L 156 88 Z M 158 89 L 157 121 L 159 121 L 159 97 L 158 96 Q 157 92 160 93 L 182 121 L 184 121 L 184 89 L 182 90 L 182 115 Q 184 116 182 117 L 158 89 Z " /><path fill="rgb(137,127,48)" stroke="rgb(137,127,48)" stroke-width="1" opacity="0.8627450980392157" d="M 123.5 91 L 144.5 91 L 146 92.5 L 146 117.5 L 144.5 119 L 123.5 119 L 122 117.5 L 122 92.5 L 123.5 91 Z M 125 92 L 123 94 L 123 117 L 125 118 L 145 118 L 145 92 L 125 92 Z " /><path fill="rgb(137,127,48)" stroke="rgb(137,127,48)" stroke-width="1" opacity="0.8627450980392157" d="M 149.5 93 L 150 116.5 L 149 116.5 L 149.5 93 Z " /><path fill="rgb(137,127,48)" stroke="rgb(137,127,48)" stroke-width="1" opacity="0.8627450980392157" d="M 17.5 130 L 21 131.5 L 18.5 132 L 17.5 130 Z " /><path fill="rgb(137,127,48)" stroke="rgb(137,127,48)" stroke-width="1" opacity="0.8627450980392157" d="M 33.5 130 L 35.5 131 L 37 130.5 L 34.5 132 L 33.5 130 Z " /><path fill="rgb(137,127,48)" stroke="rgb(137,127,48)" stroke-width="1" opacity="0.8627450980392157" d="M 38.5 130 L 43.5 131 L 45 130.5 Q 45.8 132.8 43.5 132 L 41.5 131 L 39.5 131 L 38.5 130 Z " /><path fill="rgb(137,127,48)" stroke="rgb(137,127,48)" stroke-width="1" opacity="0.8627450980392157" d="M 57 130 L 60 131.5 L 57 132 L 56.5 135 L 56 132.5 L 57 130 Z " /><path fill="rgb(137,127,48)" stroke="rgb(137,127,48)" stroke-width="1" opacity="0.8627450980392157" d="M 62 130 L 65 130.5 L 62 132 L 62 130 Z " /><path fill="rgb(137,127,48)" stroke="rgb(137,127,48)" stroke-width="1" opacity="0.8627450980392157" d="M 69.5 130 L 72 131.5 L 70.5 131 L 68.5 132 L 69.5 130 Z " /><path fill="rgb(137,127,48)" stroke="rgb(137,127,48)" stroke-width="1" opacity="0.8627450980392157" d="M 75 130 Q 80.2 128.3 79 132 Q 73.8 133.7 75 130 Z " /><path fill="rgb(137,127,48)" stroke="rgb(137,127,48)" stroke-width="1" opacity="0.8627450980392157" d="M 82.5 130 Q 87 129 88 131.5 L 84.5 131 L 82 131 L 82 137.5 L 81 137.5 Q 79.5 131.5 82.5 130 Z " /><path fill="rgb(137,127,48)" stroke="rgb(137,127,48)" stroke-width="1" opacity="0.8627450980392157" d="M 91.5 130 L 90.5 132 L 91.5 130 Z " /><path fill="rgb(137,127,48)" stroke="rgb(137,127,48)" stroke-width="1" opacity="0.8627450980392157" d="M 132.5 130 L 136 130.5 L 133.5 132 L 131.5 132 L 130 131.5 L 132.5 130 Z " /><path fill="rgb(137,127,48)" stroke="rgb(137,127,48)" stroke-width="1" opacity="0.8627450980392157" d="M 140 130 L 142.5 131 L 144 130.5 L 140 132 L 140 130 Z " /><path fill="rgb(137,127,48)" stroke="rgb(137,127,48)" stroke-width="1" opacity="0.8627450980392157" d="M 162.5 130 L 161.5 132 L 162.5 130 Z " /><path fill="rgb(137,127,48)" stroke="rgb(137,127,48)" stroke-width="1" opacity="0.8627450980392157" d="M 66.5 132 L 67 133.5 L 67 135.5 L 66.5 138 L 64 135.5 L 64.5 133 L 66 133.5 L 66.5 132 Z " /><path fill="rgb(137,127,48)" stroke="rgb(137,127,48)" stroke-width="1" opacity="0.8627450980392157" d="M 118.5 132 L 119.5 134 L 118.5 132 Z " /><path fill="rgb(137,127,48)" stroke="rgb(137,127,48)" stroke-width="1" opacity="0.8627450980392157" d="M 18 133 L 20 133.5 L 18 134.5 L 18 133 Z " /><path fill="rgb(137,127,48)" stroke="rgb(137,127,48)" stroke-width="1" opacity="0.8627450980392157" d="M 78.5 133 Q 81.5 132.2 80 136 L 78 135.5 L 78.5 133 Z " /><path fill="rgb(137,127,48)" stroke="rgb(137,127,48)" stroke-width="1" opacity="0.8627450980392157" d="M 134.5 133 L 137 134.5 L 135.5 135 L 134.5 133 Z " /><path fill="rgb(137,127,48)" stroke="rgb(137,127,48)" stroke-width="1" opacity="0.8627450980392157" d="M 163.5 133 L 162.5 135 L 158.5 136 L 159.5 134 L 163.5 133 Z " /><path fill="rgb(137,127,48)" stroke="rgb(137,127,48)" stroke-width="1" opacity="0.8627450980392157" d="M 184.5 133 L 185 135 L 180.5 136 L 181.5 134 L 184.5 133 Z " /><path fill="rgb(137,127,48)" stroke="rgb(137,127,48)" stroke-width="1" opacity="0.8627450980392157" d="M 23.5 134 L 24 136.5 L 23 136.5 L 23.5 134 Z " /><path fill="rgb(137,127,48)" stroke="rgb(137,127,48)" stroke-width="1" opacity="0.8627450980392157" d="M 33.5 134 L 37 134.5 L 33.5 136 L 32 135.5 L 33.5 134 Z " /><path fill="rgb(137,127,48)" stroke="rgb(137,127,48)" stroke-width="1" opacity="0.8627450980392157" d="M 170.5 137 L 173 137.5 L 170.5 138 L 170.5 137 Z " /><path fill="rgb(235,217,45)" stroke="rgb(235,217,45)" stroke-width="1" opacity="0.6862745098039216" d="M 10.5 44 L 33.5 44 L 34.5 45 Q 35.8 42.8 37 45.5 L 36 48.5 Q 38.8 50.2 37 56.5 L 30 59 L 30 51 L 14 51 L 14 74 L 30 74 L 30 65 L 34.5 65 L 37 66 Q 39.3 77.5 32.5 81 L 12.5 81 L 8 78.5 L 7 76.5 L 7 48.5 L 10.5 44 Z M 12 45 L 9 48 L 8 52 L 8 74 L 9 77 L 12 79 L 34 79 Q 37 76 36 69 L 33 66 L 31 68 L 31 75 L 13 75 L 13 50 L 31 50 L 31 57 Q 35 58 36 56 L 35 48 L 33 45 L 12 45 Z " /><path fill="rgb(235,217,45)" stroke="rgb(235,217,45)" stroke-width="1" opacity="0.6862745098039216" d="M 64.5 46 Q 73.4 45.6 76 51.5 L 78 55.5 L 78 83.5 L 79 84.5 L 77.5 86 L 63 86 L 62.5 74 L 55 88.5 L 55 91 L 77.5 91 L 79 92.5 L 78 93.5 L 78 118.5 Q 80.3 119.8 77.5 121 L 63 121 L 63 105.5 Q 61.8 102.8 60.5 105 L 48.5 105 L 47 106.5 L 40.5 119 L 40 105.5 L 41 103.5 L 40 102.5 L 40 94.5 L 41 92.5 L 39 86.5 L 56 53.5 L 60.5 48 L 64.5 46 Z M 64 53 L 63 55 L 69 54 L 64 53 Z M 70 54 L 72 57 L 72 56 L 70 54 Z M 61 55 L 59 58 L 62 56 L 61 55 Z M 65 55 Q 61 56 62 60 L 65 58 L 61 63 L 62 64 L 67 60 L 68 62 L 69 82 L 69 61 L 68 58 Q 71 60 70 65 L 73 64 L 73 82 L 74 82 L 74 59 L 73 63 L 71 58 Q 70 54 65 55 Z M 59 58 L 56 62 L 57 63 L 59 60 L 59 58 Z M 58 64 L 53 72 Q 52 75 55 74 L 56 72 L 57 74 L 61 65 L 60 65 L 58 64 Z M 72 68 L 70 70 L 70 82 L 72 83 L 72 68 Z M 48 79 L 42 89 L 43 90 L 48 81 L 48 79 Z M 48 81 L 43 93 Q 46 94 45 92 L 47 91 L 43 98 L 44 99 L 49 89 L 47 89 L 50 84 Q 51 80 48 81 Z " /><path fill="rgb(235,217,45)" stroke="rgb(235,217,45)" stroke-width="1" opacity="0.6862745098039216" d="M 8.5 86 Q 13.3 85.3 14 88.5 L 24.5 108 L 32 91.5 L 35.5 87 L 37 87.5 L 35 88 L 24.5 110 L 13 88 L 8 88.5 L 8 122 L 12 121.5 L 12 96.5 L 13 96.5 L 23 115.5 L 21 114.5 L 13.5 101 L 13 124 L 7.5 124 L 7 123.5 L 7 87.5 L 8.5 86 Z " /><path fill="rgb(235,217,45)" stroke="rgb(235,217,45)" stroke-width="1" opacity="0.6862745098039216" d="M 90.5 86 L 108.5 86 L 113 89.5 L 114 99.5 L 108.5 102 L 107 100.5 L 107 94 L 91 94 L 91 116.5 L 92.5 116 L 107 116 L 107 108 L 111.5 108 L 114 109 L 113.5 117 L 113 110 L 108 109 L 108 118 L 90 118 L 90 92 L 108 92 L 108 100 L 111.5 100 Q 114.3 98.8 113 93.5 L 109.5 88 L 88.5 88 L 86 90.5 L 85 93.5 L 84.5 117 L 84 93.5 L 85 89.5 L 87.5 87 L 90.5 86 Z " /><path fill="rgb(235,217,45)" stroke="rgb(235,217,45)" stroke-width="1" opacity="0.6862745098039216" d="M 123.5 86 L 144.5 86 L 150 89.5 L 151 93.5 L 151 116.5 L 150 120.5 L 147.5 123 L 144.5 124 L 123.5 124 L 119 121.5 L 118 119.5 L 118 90.5 L 120.5 87 L 123.5 86 Z M 122 88 L 119 92 L 119 120 L 122 122 L 147 122 L 150 117 L 150 94 L 149 91 L 147 88 L 122 88 Z " /><path fill="rgb(235,217,45)" stroke="rgb(235,217,45)" stroke-width="1" opacity="0.6862745098039216" d="M 155.5 86 L 161 88.5 L 169.5 99 Q 171.2 96.3 173 100.5 L 172 102.5 L 179.5 111 L 180 86 Q 185.4 84.5 187 87.5 L 187 122.5 L 185.5 124 Q 180.8 124.8 180 121.5 L 161.5 99 L 161 124 Q 155.6 125.5 154 122.5 L 154 87.5 L 155.5 86 Z M 156 88 L 156 122 L 160 122 L 161 96 L 179 119 Q 180 123 185 122 L 185 89 L 181 88 L 181 114 L 162 92 Q 161 87 156 88 Z " /><path fill="rgb(235,217,45)" stroke="rgb(235,217,45)" stroke-width="1" opacity="0.6862745098039216" d="M 124.5 92 L 145 92 L 145 118 L 124.5 118 L 123 116.5 L 123 93.5 L 124.5 92 Z M 125 94 L 125 116 L 143 116 L 144 117 L 144 94 L 125 94 Z " /><path fill="rgb(235,217,45)" stroke="rgb(235,217,45)" stroke-width="1" opacity="0.6862745098039216" d="M 35.5 97 L 36 102.5 L 29 115.5 L 31 114.5 L 35.5 106 L 35 107.5 L 30 118 L 33 116.5 L 35.5 112 L 36 121 L 22.5 121 L 22 119.5 L 23 117 L 26 115.5 L 35.5 97 Z " /><path fill="rgb(235,217,45)" stroke="rgb(235,217,45)" stroke-width="1" opacity="0.6862745098039216" d="M 85.5 118 L 88.5 122 L 109.5 122 L 112 119.5 L 112.5 118 L 113 120.5 L 107.5 124 L 90.5 124 L 85 120.5 L 85.5 118 Z " /><path fill="rgb(235,217,45)" stroke="rgb(235,217,45)" stroke-width="1" opacity="0.6862745098039216" d="M 36 122 Q 39.8 121 41 123.5 L 36 124 L 36 122 Z " /><path fill="rgb(235,217,45)" stroke="rgb(235,217,45)" stroke-width="1" opacity="0.6862745098039216" d="M 180.5 130 L 179.5 132 L 180.5 130 Z " /></svg>