<svg width="192" height="192" version="1.1" xmlns="http://www.w3.org/2000/svg" desc="Created with imagetracer.js version 1.2.6" ><path fill="rgb(35,36,43)" stroke="rgb(35,36,43)" stroke-width="1" opacity="0.20784313725490197" d="M 58.5 41 L 60 41.5 L 52.5 48 L 58.5 41 Z " /><path fill="rgb(35,36,43)" stroke="rgb(35,36,43)" stroke-width="1" opacity="0.20784313725490197" d="M 67.5 41 L 74 45.5 L 70.5 43 Q 66.7 42.8 67.5 41 Z " /><path fill="rgb(35,36,43)" stroke="rgb(35,36,43)" stroke-width="1" opacity="0.20784313725490197" d="M 74.5 47 L 76 49.5 L 75 49.5 L 74.5 47 Z " /><path fill="rgb(35,36,43)" stroke="rgb(35,36,43)" stroke-width="1" opacity="0.20784313725490197" d="M 77.5 54 L 78 84.5 L 77 84.5 L 77.5 54 Z " /><path fill="rgb(35,36,43)" stroke="rgb(35,36,43)" stroke-width="1" opacity="0.20784313725490197" d="M 58.5 78 L 58 79.5 L 57.5 81 L 57 79.5 L 58.5 78 Z " /><path fill="rgb(35,36,43)" stroke="rgb(35,36,43)" stroke-width="1" opacity="0.20784313725490197" d="M 77.5 89 L 78 123.5 L 77 123.5 L 77.5 89 Z " /><path fill="rgb(35,36,43)" stroke="rgb(35,36,43)" stroke-width="1" opacity="0.20784313725490197" d="M 58.5 108 L 59 126 L 76.5 126 L 77.5 125 L 78 127 L 58 127 L 58.5 108 Z " /><path fill="rgb(35,36,43)" stroke="rgb(35,36,43)" stroke-width="1" opacity="0.20784313725490197" d="M 38.5 121 L 39 122.5 L 36.5 127 L 36 125.5 L 38.5 121 Z " /><path fill="rgb(35,36,43)" stroke="rgb(35,36,43)" stroke-width="1" opacity="0.20784313725490197" d="M 13.5 125 L 14.5 126 L 31 126.5 L 13 127 L 13.5 125 Z " /><path fill="rgb(35,36,43)" stroke="rgb(35,36,43)" stroke-width="1" opacity="0.20784313725490197" d="M 2 133 L 4 133.5 L 2 134.5 L 2 133 Z " /><path fill="rgb(35,36,43)" stroke="rgb(35,36,43)" stroke-width="1" opacity="0.20784313725490197" d="M 7.5 133 L 8.5 135 L 7.5 133 Z " /><path fill="rgb(35,36,43)" stroke="rgb(35,36,43)" stroke-width="1" opacity="0.20784313725490197" d="M 99 133 L 101 133.5 L 98 135.5 L 99 133 Z " /><path fill="rgb(35,36,43)" stroke="rgb(35,36,43)" stroke-width="1" opacity="0.20784313725490197" d="M 104.5 133 L 105.5 135 L 104.5 133 Z " /><path fill="rgb(35,36,43)" stroke="rgb(35,36,43)" stroke-width="1" opacity="0.20784313725490197" d="M 4.5 135 L 7 135.5 L 4 136 L 3.5 138 L 3 136.5 L 4.5 135 Z " /><path fill="rgb(35,36,43)" stroke="rgb(35,36,43)" stroke-width="1" opacity="0.20784313725490197" d="M 11.5 135 L 11 136.5 Q 9.7 141.3 12 142.5 L 10 141.5 Q 8.8 136.3 11.5 135 Z " /><path fill="rgb(35,36,43)" stroke="rgb(35,36,43)" stroke-width="1" opacity="0.20784313725490197" d="M 16.5 135 L 18 135.5 L 18 143 L 16 142.5 Q 18.2 141.3 17 136.5 L 16.5 135 Z " /><path fill="rgb(35,36,43)" stroke="rgb(35,36,43)" stroke-width="1" opacity="0.20784313725490197" d="M 19.5 135 L 23 137.5 L 20.5 136 L 19.5 135 Z " /><path fill="rgb(35,36,43)" stroke="rgb(35,36,43)" stroke-width="1" opacity="0.20784313725490197" d="M 24.5 135 L 26 135.5 L 26 143 L 20 138.5 L 24 139.5 Q 21.7 140.8 24.5 142 L 25 136.5 L 24.5 135 Z " /><path fill="rgb(35,36,43)" stroke="rgb(35,36,43)" stroke-width="1" opacity="0.20784313725490197" d="M 27 135 L 29 135.5 L 27 136.5 L 27 135 Z " /><path fill="rgb(35,36,43)" stroke="rgb(35,36,43)" stroke-width="1" opacity="0.20784313725490197" d="M 32.5 135 L 35 135.5 Q 31.5 137 34 138.5 L 33.5 140 L 32 137.5 L 32.5 135 Z " /><path fill="rgb(35,36,43)" stroke="rgb(35,36,43)" stroke-width="1" opacity="0.20784313725490197" d="M 40 135 L 43 135.5 L 40.5 137 L 40 135 Z " /><path fill="rgb(35,36,43)" stroke="rgb(35,36,43)" stroke-width="1" opacity="0.20784313725490197" d="M 46.5 135 Q 49.9 134.1 48 139.5 L 48 141.5 Q 48.8 144.1 45.5 143 L 45.5 142 L 47 141.5 L 47 139.5 L 46.5 135 Z " /><path fill="rgb(35,36,43)" stroke="rgb(35,36,43)" stroke-width="1" opacity="0.20784313725490197" d="M 53.5 135 L 54 140.5 L 53 140.5 L 53.5 135 Z " /><path fill="rgb(35,36,43)" stroke="rgb(35,36,43)" stroke-width="1" opacity="0.20784313725490197" d="M 55.5 135 L 56 143 L 54 142.5 L 55.5 135 Z " /><path fill="rgb(35,36,43)" stroke="rgb(35,36,43)" stroke-width="1" opacity="0.20784313725490197" d="M 69.5 135 Q 72.8 133.9 72 136.5 L 70.5 136 L 69.5 135 Z " /><path fill="rgb(35,36,43)" stroke="rgb(35,36,43)" stroke-width="1" opacity="0.20784313725490197" d="M 79.5 135 L 80.5 142 L 81.5 140 L 82 143 L 79 143 L 79.5 135 Z " /><path fill="rgb(35,36,43)" stroke="rgb(35,36,43)" stroke-width="1" opacity="0.20784313725490197" d="M 84.5 135 L 85.5 137 L 84.5 135 Z " /><path fill="rgb(35,36,43)" stroke="rgb(35,36,43)" stroke-width="1" opacity="0.20784313725490197" d="M 90.5 135 L 92 138.5 L 91 138.5 L 90.5 135 Z " /><path fill="rgb(35,36,43)" stroke="rgb(35,36,43)" stroke-width="1" opacity="0.20784313725490197" d="M 101.5 135 L 104 135.5 L 101.5 136 L 101.5 135 Z " /><path fill="rgb(35,36,43)" stroke="rgb(35,36,43)" stroke-width="1" opacity="0.20784313725490197" d="M 115.5 135 L 118 136.5 L 118.5 138 L 120 135 L 123 135.5 L 120 137.5 L 122 142.5 L 120.5 143 L 116 139.5 L 118.5 141 L 120 139.5 L 117 137.5 Q 117.8 135.3 115.5 136 L 115.5 135 Z " /><path fill="rgb(35,36,43)" stroke="rgb(35,36,43)" stroke-width="1" opacity="0.20784313725490197" d="M 126.5 135 L 129 136.5 L 128 140 Q 125.3 141.1 126 138.5 L 125 138.5 L 124.5 140 L 124 138.5 L 126.5 135 Z M 126 136 Q 125 139 128 138 Q 129 135 126 136 Z " /><path fill="rgb(35,36,43)" stroke="rgb(35,36,43)" stroke-width="1" opacity="0.20784313725490197" d="M 131 135 L 133 135.5 L 131 136.5 L 131 135 Z " /><path fill="rgb(35,36,43)" stroke="rgb(35,36,43)" stroke-width="1" opacity="0.20784313725490197" d="M 136.5 135 L 138.5 136 L 140 135.5 L 137 139.5 L 139.5 143 L 137.5 142 L 136 142.5 L 137 140.5 L 135 137.5 L 137 137.5 L 136.5 135 Z " /><path fill="rgb(35,36,43)" stroke="rgb(35,36,43)" stroke-width="1" opacity="0.20784313725490197" d="M 144.5 135 Q 146.8 134.3 146 136.5 L 144.5 135 Z " /><path fill="rgb(35,36,43)" stroke="rgb(35,36,43)" stroke-width="1" opacity="0.20784313725490197" d="M 147.5 135 L 151 137.5 L 148.5 136 L 147.5 135 Z " /><path fill="rgb(35,36,43)" stroke="rgb(35,36,43)" stroke-width="1" opacity="0.20784313725490197" d="M 160.5 135 L 160 136.5 L 161 140.5 L 160.5 143 Q 157.9 143.8 159 140.5 L 159 138.5 L 160.5 135 Z " /><path fill="rgb(35,36,43)" stroke="rgb(35,36,43)" stroke-width="1" opacity="0.20784313725490197" d="M 164.5 135 Q 167.9 134.1 166 139.5 L 166 141.5 L 165.5 143 L 164 140.5 L 165 138.5 L 164.5 135 Z " /><path fill="rgb(35,36,43)" stroke="rgb(35,36,43)" stroke-width="1" opacity="0.20784313725490197" d="M 173.5 135 L 176 136.5 L 177 139.5 L 176 139.5 L 175.5 138 L 175 140 Q 172.3 141.1 173 138.5 L 172 136.5 L 173.5 135 Z M 173 136 Q 172 139 175 138 Q 176 135 173 136 Z " /><path fill="rgb(35,36,43)" stroke="rgb(35,36,43)" stroke-width="1" opacity="0.20784313725490197" d="M 182 135 L 184 135.5 L 182 136.5 L 182 135 Z " /><path fill="rgb(35,36,43)" stroke="rgb(35,36,43)" stroke-width="1" opacity="0.20784313725490197" d="M 187.5 135 L 189 138.5 L 188.5 140 L 187 137.5 L 187.5 135 Z " /><path fill="rgb(35,36,43)" stroke="rgb(35,36,43)" stroke-width="1" opacity="0.20784313725490197" d="M 105.5 136 L 106 138 Q 103 136.8 104 140.5 L 103 140.5 Q 102.5 136.5 105.5 136 Z " /><path fill="rgb(35,36,43)" stroke="rgb(35,36,43)" stroke-width="1" opacity="0.20784313725490197" d="M 12.5 137 L 13 140.5 L 12 140.5 L 12.5 137 Z " /><path fill="rgb(35,36,43)" stroke="rgb(35,36,43)" stroke-width="1" opacity="0.20784313725490197" d="M 38.5 137 L 39 142.5 L 38 142.5 L 38.5 137 Z " /><path fill="rgb(35,36,43)" stroke="rgb(35,36,43)" stroke-width="1" opacity="0.20784313725490197" d="M 58.5 137 L 59 140.5 L 58 140.5 L 58.5 137 Z " /><path fill="rgb(35,36,43)" stroke="rgb(35,36,43)" stroke-width="1" opacity="0.20784313725490197" d="M 61.5 137 L 63 139.5 L 61 140.5 L 61.5 137 Z " /><path fill="rgb(35,36,43)" stroke="rgb(35,36,43)" stroke-width="1" opacity="0.20784313725490197" d="M 66.5 137 L 67 140.5 L 66 140.5 L 66.5 137 Z " /><path fill="rgb(35,36,43)" stroke="rgb(35,36,43)" stroke-width="1" opacity="0.20784313725490197" d="M 76.5 137 L 77 140.5 L 76 140.5 L 76.5 137 Z " /><path fill="rgb(35,36,43)" stroke="rgb(35,36,43)" stroke-width="1" opacity="0.20784313725490197" d="M 112.5 137 L 114 140.5 L 113 140.5 L 112.5 139 L 110 140 L 110.5 138 L 112 138.5 L 112.5 137 Z " /><path fill="rgb(35,36,43)" stroke="rgb(35,36,43)" stroke-width="1" opacity="0.20784313725490197" d="M 27.5 138 L 29 140.5 L 27 141 L 27.5 138 Z " /><path fill="rgb(35,36,43)" stroke="rgb(35,36,43)" stroke-width="1" opacity="0.20784313725490197" d="M 108.5 138 L 109 139.5 L 108 141.5 L 109.5 141 L 115 142.5 L 112.5 143 L 109.5 142 L 107 143 L 108.5 138 Z " /><path fill="rgb(35,36,43)" stroke="rgb(35,36,43)" stroke-width="1" opacity="0.20784313725490197" d="M 182.5 138 L 184 140.5 L 182.5 143 L 182.5 138 Z " /><path fill="rgb(35,36,43)" stroke="rgb(35,36,43)" stroke-width="1" opacity="0.20784313725490197" d="M 85.5 139 L 87.5 142 L 90.5 141 L 94 142.5 L 91.5 143 L 88.5 142 L 85 143 L 84 140.5 L 85.5 139 Z " /><path fill="rgb(35,36,43)" stroke="rgb(35,36,43)" stroke-width="1" opacity="0.20784313725490197" d="M 129.5 139 L 130 141 Q 133 140 132 143 L 125.5 142 L 123 143 L 123.5 141 L 125.5 141 Q 130 142.3 129.5 139 Z " /><path fill="rgb(35,36,43)" stroke="rgb(35,36,43)" stroke-width="1" opacity="0.20784313725490197" d="M 148 139 L 150.5 140 L 152 139.5 L 151 140.5 L 152.5 143 L 149 140.5 Q 150.1 143.8 147.5 143 L 148 141.5 L 148 139 Z " /><path fill="rgb(35,36,43)" stroke="rgb(35,36,43)" stroke-width="1" opacity="0.20784313725490197" d="M 167 139 Q 170.7 137.5 170 140.5 L 171 140.5 L 171.5 139 L 172 141 L 176.5 142 L 178 139 Q 181.7 137.5 181 140.5 L 178 141.5 L 178.5 143 L 173.5 142 L 171.5 143 L 169 142.5 L 168.5 140 L 167.5 143 L 167 139 Z " /><path fill="rgb(35,36,43)" stroke="rgb(35,36,43)" stroke-width="1" opacity="0.20784313725490197" d="M 33.5 141 L 32.5 143 L 33.5 141 Z " /><path fill="rgb(35,36,43)" stroke="rgb(35,36,43)" stroke-width="1" opacity="0.20784313725490197" d="M 98.5 141 L 99.5 143 L 98.5 141 Z " /><path fill="rgb(35,36,43)" stroke="rgb(35,36,43)" stroke-width="1" opacity="0.20784313725490197" d="M 105.5 141 L 106 143 L 104 142.5 L 105.5 141 Z " /><path fill="rgb(35,36,43)" stroke="rgb(35,36,43)" stroke-width="1" opacity="0.20784313725490197" d="M 145.5 141 L 146 143 L 144 142.5 L 145.5 141 Z " /><path fill="rgb(35,36,43)" stroke="rgb(35,36,43)" stroke-width="1" opacity="0.20784313725490197" d="M 188.5 141 L 189 143 L 187 142.5 L 188.5 141 Z " /><path fill="rgb(0,0,0)" stroke="rgb(0,0,0)" stroke-width="1" opacity="0" d="M 0 0 L 192 0 L 192 192 L 0 192 L 0 0 Z M 7 40 L 5 41 L 2 44 L 2 77 L 7 80 L 28 80 L 30 79 Q 34 76 32 66 L 28 63 L 26 64 L 26 73 L 8 73 L 8 47 L 26 47 L 26 56 L 32 55 L 32 45 L 30 41 L 28 40 L 7 40 Z M 62 40 L 59 41 L 52 48 L 33 86 Q 34 88 30 87 L 20 110 L 8 89 Q 7 86 2 87 L 2 127 L 7 127 L 8 101 L 17 119 L 13 126 L 14 127 L 37 127 L 45 108 L 58 108 L 58 127 L 78 127 L 77 125 L 78 124 L 78 90 L 77 90 L 55 90 L 53 89 L 55 88 L 59 79 L 59 87 L 77 87 L 78 88 L 78 87 L 78 85 L 78 54 L 75 47 Q 72 42 66 40 L 64 41 L 62 40 Z M 87 87 L 84 88 L 82 94 L 82 120 L 83 124 L 89 127 L 107 127 L 110 126 Q 115 122 113 111 L 110 110 L 106 110 L 106 119 L 89 119 L 89 94 L 106 94 L 106 103 L 113 101 L 112 90 L 109 87 L 87 87 Z M 122 87 L 118 91 L 117 95 L 117 120 L 118 124 L 124 127 L 146 127 L 149 126 L 151 124 L 152 120 L 152 94 L 150 88 L 148 87 L 122 87 Z M 156 87 L 156 127 L 157 127 L 162 127 L 163 99 L 182 124 Q 183 128 189 127 L 189 88 L 189 87 L 183 87 L 183 114 L 162 89 Q 161 86 156 87 Z M 2 133 L 2 143 L 9 143 L 8 139 L 9 135 Q 8 132 7 134 L 2 133 Z M 99 133 L 98 136 L 99 141 Q 97 142 100 143 Q 106 144 106 142 L 106 140 L 105 139 L 105 138 Q 107 139 106 137 L 106 135 Q 105 132 104 134 L 99 133 Z M 12 135 L 10 137 L 10 143 L 18 143 L 18 135 L 12 135 Z M 19 135 L 20 142 L 20 140 L 23 142 Q 22 145 26 143 L 26 136 L 24 135 L 24 138 L 19 135 Z M 27 135 L 27 137 L 27 139 L 27 143 L 34 143 L 33 141 L 34 139 L 34 137 Q 32 133 27 135 Z M 35 135 L 37 139 L 37 143 L 39 143 L 39 137 L 42 136 L 43 143 L 43 141 Q 46 140 45 143 Q 49 144 48 142 L 48 140 Q 48 135 48 135 L 35 135 Z M 49 135 L 49 143 L 56 143 L 56 135 L 53 135 L 53 141 L 51 141 L 51 135 L 49 135 Z M 57 135 L 57 143 Q 62 144 64 142 L 63 140 L 65 137 L 66 138 L 66 143 L 68 143 L 68 137 L 71 136 L 71 143 L 78 143 L 78 135 L 65 135 L 64 136 L 57 135 Z M 79 135 L 79 143 L 82 143 L 83 141 L 83 143 L 89 142 L 92 143 L 94 143 L 91 137 Q 92 133 88 135 L 86 141 L 85 139 L 86 137 L 86 135 L 79 135 Z M 109 135 L 107 143 L 110 142 L 113 143 L 115 143 L 112 137 Q 113 133 109 135 Z M 115 135 L 116 142 L 117 140 L 122 143 L 122 137 L 123 136 L 120 135 L 119 138 L 118 137 L 115 135 Z M 127 135 L 123 143 L 126 142 L 129 143 L 146 143 L 145 141 L 146 137 L 146 135 L 139 135 L 137 135 Q 130 134 131 137 L 131 139 L 132 141 L 130 141 L 129 137 L 127 135 Z M 147 135 L 147 143 Q 150 144 149 141 L 151 142 Q 150 144 153 143 L 153 137 L 154 136 L 152 135 L 152 139 L 151 138 L 147 135 Z M 161 135 L 159 139 L 159 141 L 159 143 L 166 143 L 166 135 L 161 135 Z M 174 135 L 171 141 L 170 141 Q 171 138 167 139 Q 165 144 170 143 L 172 143 L 174 142 L 176 143 Q 183 145 181 139 Q 177 137 178 141 L 179 142 L 176 137 L 174 135 Z M 182 135 L 182 137 L 182 139 L 182 143 L 189 143 L 188 141 L 189 139 L 189 137 Q 187 133 182 135 Z " /><path fill="rgb(0,0,0)" stroke="rgb(0,0,0)" stroke-width="1" opacity="0" d="M 124 94 L 145 94 L 145 119 L 124 119 L 124 94 Z " /><path fill="rgb(0,0,0)" stroke="rgb(0,0,0)" stroke-width="1" opacity="0" d="M 4 136 L 7 136.5 L 7 138.5 Q 8.1 142.7 4 141 L 4 136 Z " /><path fill="rgb(0,0,0)" stroke="rgb(0,0,0)" stroke-width="1" opacity="0" d="M 100 136 L 103 136 L 103 141 L 100 139.5 L 100 136 Z " /><path fill="rgb(0,0,0)" stroke="rgb(0,0,0)" stroke-width="1" opacity="0" d="M 43 137 L 46 137.5 L 43 139 L 43 137 Z " /><path fill="rgb(0,0,0)" stroke="rgb(0,0,0)" stroke-width="1" opacity="0" d="M 82 137 L 84 137.5 L 82 138.5 L 82 137 Z " /><path fill="rgb(0,0,0)" stroke="rgb(0,0,0)" stroke-width="1" opacity="0" d="M 138.5 137 L 139 140.5 L 137 139.5 L 138.5 137 Z " /><path fill="rgb(0,0,0)" stroke="rgb(0,0,0)" stroke-width="1" opacity="0" d="M 13 138 Q 17.5 136.5 16 141 Q 11.5 142.5 13 138 Z " /><path fill="rgb(0,0,0)" stroke="rgb(0,0,0)" stroke-width="1" opacity="0" d="M 59 138 Q 62.3 136.9 61 141 Q 57.7 142.1 59 138 Z " /><path fill="rgb(0,0,0)" stroke="rgb(0,0,0)" stroke-width="1" opacity="0" d="M 73 138 Q 77.5 136.5 76 141 Q 71.5 142.5 73 138 Z " /><path fill="rgb(0,0,0)" stroke="rgb(0,0,0)" stroke-width="1" opacity="0" d="M 133 138 Q 137.5 136.5 136 141 Q 131.5 142.5 133 138 Z " /><path fill="rgb(0,0,0)" stroke="rgb(0,0,0)" stroke-width="1" opacity="0" d="M 140 138 Q 145.6 136.1 144 141 Q 138.4 142.9 140 138 Z " /><path fill="rgb(0,0,0)" stroke="rgb(0,0,0)" stroke-width="1" opacity="0" d="M 184.5 140 L 187 140.5 L 184.5 141 L 184.5 140 Z " /><path fill="rgb(16,15,13)" stroke="rgb(16,15,13)" stroke-width="1" opacity="0.9215686274509803" d="M 60.5 41 L 66.5 41 L 74 46.5 L 75 48.5 L 73 47.5 L 70.5 44 Q 67.5 41 60.5 42 L 53 48.5 L 33.5 87 L 34 85.5 L 52 48.5 L 58.5 42 L 60.5 41 Z " /><path fill="rgb(16,15,13)" stroke="rgb(16,15,13)" stroke-width="1" opacity="0.9215686274509803" d="M 6.5 42 L 26.5 42 L 30 44.5 L 30 52.5 L 28.5 54 L 27 53.5 L 27 46.5 L 25.5 45 L 7.5 45 L 6 46.5 L 6 73.5 L 7.5 75 L 27 75 L 27.5 65 L 30 66 L 30 75.5 L 27.5 78 L 6.5 78 L 4 77 L 3 73.5 L 3 46.5 L 6.5 42 Z " /><path fill="rgb(16,15,13)" stroke="rgb(16,15,13)" stroke-width="1" opacity="0.9215686274509803" d="M 61.5 53 L 67 54 Q 69.6 56.3 69 62.5 L 68 62.5 Q 68.8 56.7 65.5 55 L 62.5 54 L 59 56.5 L 61.5 53 Z " /><path fill="rgb(16,15,13)" stroke="rgb(16,15,13)" stroke-width="1" opacity="0.9215686274509803" d="M 54.5 62 L 55 63.5 L 50.5 72 L 50 70.5 L 54.5 62 Z " /><path fill="rgb(16,15,13)" stroke="rgb(16,15,13)" stroke-width="1" opacity="0.9215686274509803" d="M 68.5 67 L 69 81.5 L 68 81.5 L 68.5 67 Z " /><path fill="rgb(16,15,13)" stroke="rgb(16,15,13)" stroke-width="1" opacity="0.9215686274509803" d="M 58.5 76 L 59 77.5 L 57 78.5 L 58.5 76 Z " /><path fill="rgb(16,15,13)" stroke="rgb(16,15,13)" stroke-width="1" opacity="0.9215686274509803" d="M 56.5 80 L 57 81.5 L 55.5 84 L 55 82.5 L 56.5 80 Z " /><path fill="rgb(16,15,13)" stroke="rgb(16,15,13)" stroke-width="1" opacity="0.9215686274509803" d="M 45.5 81 L 45 82.5 L 41 93 L 39 92.5 L 45.5 81 Z " /><path fill="rgb(16,15,13)" stroke="rgb(16,15,13)" stroke-width="1" opacity="0.9215686274509803" d="M 59.5 86 L 77 86.5 L 59.5 87 L 59.5 86 Z " /><path fill="rgb(16,15,13)" stroke="rgb(16,15,13)" stroke-width="1" opacity="0.9215686274509803" d="M 3 89 L 7 90.5 L 17 110.5 L 19.5 113 L 31 89 L 35 89.5 L 35 125 L 32 124.5 L 32 95.5 L 30 96.5 L 19.5 119 Q 11.2 107.8 6.5 93 Q 3.7 94.3 6 95.5 L 6 124.5 L 3 125 L 3 89 Z " /><path fill="rgb(16,15,13)" stroke="rgb(16,15,13)" stroke-width="1" opacity="0.9215686274509803" d="M 52.5 89 L 53.5 90 L 77 90.5 L 52 91 L 52.5 89 Z " /><path fill="rgb(16,15,13)" stroke="rgb(16,15,13)" stroke-width="1" opacity="0.9215686274509803" d="M 86.5 89 L 108.5 89 L 111 91.5 L 111 100 L 108 100 L 108 92 L 87 92 L 87 121 L 108 121 L 108 112.5 L 109.5 112 L 111 113.5 L 111 121.5 L 110 124 L 106.5 125 L 88.5 125 L 84 121.5 L 84 92.5 L 86.5 89 Z " /><path fill="rgb(16,15,13)" stroke="rgb(16,15,13)" stroke-width="1" opacity="0.9215686274509803" d="M 121.5 89 L 147.5 89 L 149 90.5 L 150 92.5 L 150 120.5 L 147.5 124 L 145.5 125 L 123.5 125 L 120 122.5 L 119 120.5 L 119 92.5 L 121.5 89 Z M 124 92 L 122 94 L 122 121 L 147 121 L 147 92 L 124 92 Z " /><path fill="rgb(16,15,13)" stroke="rgb(16,15,13)" stroke-width="1" opacity="0.9215686274509803" d="M 158 89 L 164 93.5 L 184.5 119 L 185 114.5 L 184 113.5 L 184 89 L 187 89.5 L 187 124.5 L 181 119.5 L 160.5 93 L 160 101.5 L 161 102.5 L 161 123.5 L 158 125 L 158 89 Z " /><path fill="rgb(16,15,13)" stroke="rgb(16,15,13)" stroke-width="1" opacity="0.9215686274509803" d="M 44 107 L 59 107.5 L 45.5 108 L 44 109.5 L 38.5 121 L 38 119.5 L 44 107 Z " /><path fill="rgb(16,15,13)" stroke="rgb(16,15,13)" stroke-width="1" opacity="0.9215686274509803" d="M 29.5 113 L 30 114.5 L 26.5 121 L 26 119.5 L 29.5 113 Z " /><path fill="rgb(16,15,13)" stroke="rgb(16,15,13)" stroke-width="1" opacity="0.9215686274509803" d="M 16.5 120 L 17 121.5 L 15 124.5 L 30 125.5 L 14 126 L 16.5 120 Z " /><path fill="rgb(16,15,13)" stroke="rgb(16,15,13)" stroke-width="1" opacity="0.9215686274509803" d="M 59.5 125 L 77 125.5 L 59.5 126 L 59.5 125 Z " /><path fill="rgb(16,15,13)" stroke="rgb(16,15,13)" stroke-width="1" opacity="0.9215686274509803" d="M 3.5 134 Q 8 133 9 135.5 Q 9.7 138.1 7 137 Q 8.3 134 4.5 135 L 3 137.5 L 4.5 141 L 8.5 140 L 8 141.5 Q 8.9 144.9 3.5 143 Q 0.5 141.5 2 135.5 L 3.5 134 Z " /><path fill="rgb(16,15,13)" stroke="rgb(16,15,13)" stroke-width="1" opacity="0.9215686274509803" d="M 100.5 134 Q 106.3 131.9 105 136.5 L 104 136.5 Q 104.8 133.9 101.5 135 Q 99.3 135.8 100 139.5 L 104 141 L 104.5 139 L 105 141.5 Q 104.3 143.8 100.5 143 Q 97.5 141.5 99 135.5 L 100.5 134 Z " /><path fill="rgb(16,15,13)" stroke="rgb(16,15,13)" stroke-width="1" opacity="0.9215686274509803" d="M 11 136 L 17 136 L 17 141.5 Q 16.3 143.8 12.5 143 Q 9.5 141.4 11 136 Z M 12 137 Q 10 143 16 141 Q 18 135 12 137 Z " /><path fill="rgb(16,15,13)" stroke="rgb(16,15,13)" stroke-width="1" opacity="0.9215686274509803" d="M 19 136 L 23 138.5 L 23.5 140 L 24.5 136 L 25 141.5 L 20 138.5 L 19.5 142 L 19 136 Z " /><path fill="rgb(16,15,13)" stroke="rgb(16,15,13)" stroke-width="1" opacity="0.9215686274509803" d="M 28 136 L 33 136.5 L 29 137.5 L 33 139.5 L 31.5 143 Q 27.8 143.8 27 141.5 L 32 140.5 L 28 140 L 28 136 Z " /><path fill="rgb(16,15,13)" stroke="rgb(16,15,13)" stroke-width="1" opacity="0.9215686274509803" d="M 35.5 136 L 40 136.5 L 38 137 L 37.5 143 L 37 137 L 35.5 136 Z " /><path fill="rgb(16,15,13)" stroke="rgb(16,15,13)" stroke-width="1" opacity="0.9215686274509803" d="M 42 136 L 47 136 L 47 139.5 L 46.5 142 Q 43.9 142.7 45 140 L 43 140 L 42.5 143 L 42 136 Z M 43 137 Q 42 140 46 139 Q 47 136 43 137 Z " /><path fill="rgb(16,15,13)" stroke="rgb(16,15,13)" stroke-width="1" opacity="0.9215686274509803" d="M 49 136 L 51 136 L 51 141 L 54 141 L 54.5 136 L 55 141.5 Q 54.3 143.8 50.5 143 Q 47.5 141.4 49 136 Z " /><path fill="rgb(16,15,13)" stroke="rgb(16,15,13)" stroke-width="1" opacity="0.9215686274509803" d="M 57 136 L 62.5 136 L 63 137.5 L 61.5 137 Q 55.8 135.4 58 141 L 62.5 140 L 63 141.5 Q 62.3 143.8 58.5 143 Q 55.5 141.4 57 136 Z " /><path fill="rgb(16,15,13)" stroke="rgb(16,15,13)" stroke-width="1" opacity="0.9215686274509803" d="M 64.5 136 L 70 136.5 L 68 137 L 68 142 L 66.5 142 L 67 140.5 Q 68.7 135.7 64.5 137 L 64.5 136 Z " /><path fill="rgb(16,15,13)" stroke="rgb(16,15,13)" stroke-width="1" opacity="0.9215686274509803" d="M 72.5 136 Q 80.8 133.3 78 141.5 Q 76.6 144.3 72 143 L 71 137.5 L 72.5 136 Z M 73 137 Q 71 143 77 141 Q 79 135 73 137 Z " /><path fill="rgb(16,15,13)" stroke="rgb(16,15,13)" stroke-width="1" opacity="0.9215686274509803" d="M 80 136 L 85 136 L 85 139.5 L 85 141.5 L 84.5 143 L 81 140.5 L 80.5 142 L 80 136 Z M 81 137 Q 80 140 84 139 Q 85 136 81 137 Z " /><path fill="rgb(16,15,13)" stroke="rgb(16,15,13)" stroke-width="1" opacity="0.9215686274509803" d="M 89.5 136 L 93 141.5 L 91.5 142 L 88.5 141 L 87 141.5 L 89.5 136 Z " /><path fill="rgb(16,15,13)" stroke="rgb(16,15,13)" stroke-width="1" opacity="0.9215686274509803" d="M 110.5 136 Q 113.1 135.2 112 138.5 L 114 141.5 L 112.5 142 L 109.5 141 L 108 141.5 L 110.5 136 Z M 111 138 Q 109 141 112 140 L 111 138 Z " /><path fill="rgb(16,15,13)" stroke="rgb(16,15,13)" stroke-width="1" opacity="0.9215686274509803" d="M 115 136 Q 117.7 134.9 117 137.5 L 120 139 L 121.5 136 L 122 141.5 L 121 141.5 L 120.5 139 L 118.5 141 L 116 139.5 L 115.5 142 L 115 136 Z " /><path fill="rgb(16,15,13)" stroke="rgb(16,15,13)" stroke-width="1" opacity="0.9215686274509803" d="M 126 136 Q 128.7 134.9 128 137.5 L 130 141.5 L 128.5 141 L 124.5 142 L 124 140.5 L 126 136 Z M 126 138 Q 125 141 128 140 Q 129 137 126 138 Z " /><path fill="rgb(16,15,13)" stroke="rgb(16,15,13)" stroke-width="1" opacity="0.9215686274509803" d="M 132 136 L 137 136 L 137 137.5 L 135.5 137 Q 130.9 135.8 133 141 L 136.5 140 L 137 141.5 Q 135.8 144 132 143 L 131 138.5 L 132 136 Z " /><path fill="rgb(16,15,13)" stroke="rgb(16,15,13)" stroke-width="1" opacity="0.9215686274509803" d="M 139 136 L 145 136 L 145 141.5 Q 144.3 143.8 140.5 143 Q 137.5 141.4 139 136 Z M 140 137 Q 138 143 144 141 Q 146 135 140 137 Z " /><path fill="rgb(16,15,13)" stroke="rgb(16,15,13)" stroke-width="1" opacity="0.9215686274509803" d="M 147 136 L 151 138.5 L 151.5 140 L 152.5 136 L 153 141.5 L 149.5 139 Q 146.9 138.2 148 141.5 L 147 141.5 L 147 136 Z " /><path fill="rgb(16,15,13)" stroke="rgb(16,15,13)" stroke-width="1" opacity="0.9215686274509803" d="M 160 136 L 165 136.5 L 161 137.5 L 165 138 L 166 140.5 L 165 143 Q 161.2 144 160 141.5 L 165 140.5 L 160 138.5 L 160 136 Z " /><path fill="rgb(16,15,13)" stroke="rgb(16,15,13)" stroke-width="1" opacity="0.9215686274509803" d="M 173 136 Q 175.7 134.9 175 137.5 L 177 141.5 L 175.5 141 L 171.5 142 L 172 140.5 L 173 136 Z M 173 138 Q 172 141 175 140 Q 176 137 173 138 Z " /><path fill="rgb(16,15,13)" stroke="rgb(16,15,13)" stroke-width="1" opacity="0.9215686274509803" d="M 183 136 L 188 136.5 L 184 137.5 L 188 139.5 L 186.5 143 Q 181.7 144.3 183 141 L 187 140.5 L 183 138.5 L 183 136 Z " /><path fill="rgb(16,15,13)" stroke="rgb(16,15,13)" stroke-width="1" opacity="0.9215686274509803" d="M 168.5 140 L 169 142.5 L 168 142.5 L 168.5 140 Z " /><path fill="rgb(16,15,13)" stroke="rgb(16,15,13)" stroke-width="1" opacity="0.9215686274509803" d="M 179.5 140 Q 182.5 141.5 179.5 143 L 179.5 140 Z " /><path fill="rgb(228,209,40)" stroke="rgb(228,209,40)" stroke-width="1" opacity="0.796078431372549" d="M 6.5 40 L 27.5 40 L 30 41 L 32 44.5 L 32 55 L 26 56 L 26 47 L 8 47 L 8 73 L 26 73 L 26 63.5 L 27.5 63 L 32 65.5 Q 34.1 75.6 29.5 79 L 27.5 80 L 6.5 80 L 2 76.5 L 2 43.5 L 4.5 41 L 6.5 40 Z M 8 41 L 3 45 L 3 76 L 4 78 L 7 79 L 27 79 L 29 78 L 31 75 L 31 65 L 27 65 L 27 74 L 7 74 L 7 46 L 26 46 L 27 48 L 28 55 L 31 54 L 30 44 L 26 41 L 8 41 Z " /><path fill="rgb(228,209,40)" stroke="rgb(228,209,40)" stroke-width="1" opacity="0.796078431372549" d="M 62.5 42 Q 70 42.5 73 47.5 L 76 54.5 L 76 86 L 60 86 L 60 73.5 L 58 74.5 L 51 92 L 76 92 L 76 124 L 60 124 L 60 106 L 44 106 L 36.5 122 L 36 106.5 L 37 104.5 L 36 103.5 L 36 95.5 L 43 80.5 L 42 80.5 L 36.5 92 L 36 88 L 34 87.5 L 53 49.5 L 59.5 43 L 62.5 42 Z M 61 50 L 60 52 L 62 51 Q 66 50 68 53 L 68 51 Q 66 49 61 50 Z M 57 52 L 57 54 L 59 53 L 57 52 Z M 63 52 L 58 56 Q 57 58 60 57 L 61 59 L 65 58 L 64 56 L 62 57 L 63 55 Q 66 55 67 58 Q 65 64 69 63 L 68 56 Q 67 52 63 52 Z M 70 54 L 70 58 L 70 82 L 71 82 L 71 57 L 70 54 Z M 56 55 L 54 58 L 56 57 L 56 55 Z M 66 58 L 65 82 L 66 82 L 66 58 Z M 60 59 L 58 62 L 60 61 L 60 59 Z M 55 61 L 49 72 Q 48 74 51 73 L 54 66 L 56 65 L 48 80 L 49 82 L 58 63 Q 56 64 55 61 Z M 67 67 L 67 82 L 69 83 L 69 68 L 67 67 Z M 45 76 L 43 80 L 45 79 L 45 76 Z M 46 80 L 39 92 Q 38 95 41 94 L 46 84 L 46 80 Z " /><path fill="rgb(228,209,40)" stroke="rgb(228,209,40)" stroke-width="1" opacity="0.796078431372549" d="M 2 87 Q 6.6 85.8 8 88.5 L 19.5 110 L 30 87 L 33 87.5 L 30 89.5 L 19.5 112 L 7 88 L 2.5 89 L 2 87 Z " /><path fill="rgb(228,209,40)" stroke="rgb(228,209,40)" stroke-width="1" opacity="0.796078431372549" d="M 86.5 87 L 108.5 87 L 112 89.5 L 113 100.5 L 106 103 L 106 94 L 89 94 L 89 119 L 106 119 L 106 110 L 109.5 110 L 113 111 Q 114.9 121.7 109.5 126 L 106.5 127 L 88.5 127 L 83 123.5 L 82 119.5 L 82 93.5 L 84 88 L 86.5 87 Z M 88 88 L 86 89 L 83 94 L 83 120 L 84 123 L 87 125 L 110 125 Q 114 121 112 112 L 109 111 L 107 113 L 107 120 L 88 120 L 88 93 L 107 93 L 107 101 Q 111 102 112 100 L 111 91 L 109 88 L 88 88 Z " /><path fill="rgb(228,209,40)" stroke="rgb(228,209,40)" stroke-width="1" opacity="0.796078431372549" d="M 121.5 87 L 147.5 87 L 150 88 L 152 93.5 L 152 119.5 L 151 123.5 L 148.5 126 L 145.5 127 L 123.5 127 L 118 123.5 L 117 119.5 L 117 94.5 L 118 90.5 L 121.5 87 Z M 123 88 L 121 89 L 118 95 L 118 119 L 119 123 L 122 125 L 148 125 L 151 120 L 151 95 L 150 91 L 147 88 L 123 88 Z " /><path fill="rgb(228,209,40)" stroke="rgb(228,209,40)" stroke-width="1" opacity="0.796078431372549" d="M 156 87 Q 160.6 85.8 162 88.5 L 182.5 114 L 183 87 L 188.5 87 L 189 87.5 L 189 127 Q 183.4 128 182 123.5 L 162.5 99 L 162 127 L 156.5 127 L 156 126.5 L 156 87 Z M 157 88 L 157 125 L 161 125 L 162 96 L 180 120 L 186 125 L 188 125 L 188 89 L 184 88 L 184 117 L 164 93 L 160 88 L 157 88 Z " /><path fill="rgb(228,209,40)" stroke="rgb(228,209,40)" stroke-width="1" opacity="0.796078431372549" d="M 123 93 L 146 93 L 146 120 L 123 120 L 123 93 Z M 124 94 L 124 119 L 145 119 L 145 94 L 124 94 Z " /><path fill="rgb(228,209,40)" stroke="rgb(228,209,40)" stroke-width="1" opacity="0.796078431372549" d="M 6.5 97 L 17 117.5 L 16 117.5 L 7.5 101 L 6 101.5 L 6 99.5 L 6.5 97 Z " /><path fill="rgb(228,209,40)" stroke="rgb(228,209,40)" stroke-width="1" opacity="0.796078431372549" d="M 30.5 98 L 31 104.5 L 30 106.5 L 31 109.5 Q 26.6 113.1 26 120.5 L 28 119.5 L 30.5 114 L 31 124 L 16 123.5 L 18 119 L 21 117.5 L 30.5 98 Z " /><path fill="rgb(228,209,40)" stroke="rgb(228,209,40)" stroke-width="1" opacity="0.796078431372549" d="M 6.5 121 L 7 127 L 2 127 L 2 125.5 L 3.5 126 L 6 126 L 6.5 121 Z " /><path fill="rgb(228,209,40)" stroke="rgb(228,209,40)" stroke-width="1" opacity="0.796078431372549" d="M 31.5 126 L 36 126.5 L 31.5 127 L 31.5 126 Z " /><path fill="rgb(228,209,40)" stroke="rgb(228,209,40)" stroke-width="1" opacity="0.796078431372549" d="M 6.5 137 L 7.5 139 L 6.5 137 Z " /><path fill="rgb(148,137,50)" stroke="rgb(148,137,50)" stroke-width="1" opacity="0.9607843137254902" d="M 7.5 41 L 26 41.5 L 7.5 42 L 7.5 41 Z " /><path fill="rgb(148,137,50)" stroke="rgb(148,137,50)" stroke-width="1" opacity="0.9607843137254902" d="M 5.5 42 L 4 44.5 L 3.5 46 L 3 44.5 L 5.5 42 Z " /><path fill="rgb(148,137,50)" stroke="rgb(148,137,50)" stroke-width="1" opacity="0.9607843137254902" d="M 27.5 42 L 30 43.5 L 28.5 43 L 27.5 42 Z " /><path fill="rgb(148,137,50)" stroke="rgb(148,137,50)" stroke-width="1" opacity="0.9607843137254902" d="M 64.5 42 L 67 42.5 L 64.5 43 L 64.5 42 Z " /><path fill="rgb(148,137,50)" stroke="rgb(148,137,50)" stroke-width="1" opacity="0.9607843137254902" d="M 58.5 43 L 53.5 49 L 58.5 43 Z " /><path fill="rgb(148,137,50)" stroke="rgb(148,137,50)" stroke-width="1" opacity="0.9607843137254902" d="M 70.5 44 L 72.5 47 L 70.5 44 Z " /><path fill="rgb(148,137,50)" stroke="rgb(148,137,50)" stroke-width="1" opacity="0.9607843137254902" d="M 7.5 45 L 25.5 45 L 27 46.5 L 25.5 46 L 7 46 L 7 74 L 27 74.5 L 7.5 75 L 6 73.5 L 6 46.5 L 7.5 45 Z " /><path fill="rgb(148,137,50)" stroke="rgb(148,137,50)" stroke-width="1" opacity="0.9607843137254902" d="M 30.5 45 L 31 54 L 29 53.5 L 30.5 45 Z " /><path fill="rgb(148,137,50)" stroke="rgb(148,137,50)" stroke-width="1" opacity="0.9607843137254902" d="M 73.5 48 L 75.5 51 L 77 50.5 L 75.5 54 L 73.5 48 Z " /><path fill="rgb(148,137,50)" stroke="rgb(148,137,50)" stroke-width="1" opacity="0.9607843137254902" d="M 60.5 50 Q 65.9 49.4 68 51 L 71 56.5 L 71 81.5 L 70 81.5 L 69.5 57 Q 66.9 58.4 67.5 63 L 67 58.5 L 69 54.5 L 65.5 52 L 65.5 54 L 62 52.5 L 65 51.5 L 61.5 51 L 56 55.5 L 52 63.5 L 55 63.5 L 54 61.5 L 56.5 63 L 58 61.5 L 62.5 54 L 64 54.5 L 62 55.5 L 66 58.5 L 65.5 82 L 65 58 Q 61.2 57 60 59.5 L 36 106.5 L 36 121.5 L 37 121.5 L 37.5 120 L 38 121.5 L 35.5 126 L 15 124.5 L 31 124 L 31 114.5 L 29.5 113 L 29 114.5 L 29.5 116 L 28 115.5 L 29 117.5 L 27 116.5 L 26.5 115 L 23.5 121 L 23 119.5 L 31 104.5 L 31 98.5 L 30 96.5 L 32 95.5 L 32 124.5 L 35 125 L 35 89.5 L 31 89 L 30.5 91 L 30 89.5 L 34.5 86 L 34.5 88 Q 37.5 87.1 36 91.5 L 37 91.5 L 57 52 L 60.5 50 Z M 54 64 L 53 66 L 55 67 L 54 64 Z M 51 66 L 43 81 L 45 84 L 45 83 Q 43 81 46 80 L 45 82 L 47 84 L 51 75 L 49 72 L 52 73 L 50 70 L 53 71 L 51 66 Z M 53 66 L 52 68 L 54 69 L 53 66 Z M 43 83 L 42 85 L 44 86 L 43 83 Z M 42 85 L 41 87 L 43 88 L 42 85 Z M 41 87 L 41 90 L 39 90 L 40 92 L 39 91 L 36 96 L 37 104 L 41 94 L 39 94 L 41 93 L 42 94 L 41 92 L 43 92 L 41 87 Z M 31 107 L 29 111 L 31 110 L 31 107 Z " /><path fill="rgb(148,137,50)" stroke="rgb(148,137,50)" stroke-width="1" opacity="0.9607843137254902" d="M 60.5 53 L 59 55.5 L 58.5 57 L 58 55.5 L 60.5 53 Z " /><path fill="rgb(148,137,50)" stroke="rgb(148,137,50)" stroke-width="1" opacity="0.9607843137254902" d="M 65.5 55 L 68 55.5 Q 65.9 58.8 65.5 55 Z " /><path fill="rgb(148,137,50)" stroke="rgb(148,137,50)" stroke-width="1" opacity="0.9607843137254902" d="M 76.5 55 L 77 85.5 L 76 85.5 L 76.5 55 Z " /><path fill="rgb(148,137,50)" stroke="rgb(148,137,50)" stroke-width="1" opacity="0.9607843137254902" d="M 28.5 65 L 31 65.5 L 31 74.5 L 30 74.5 L 30 66.5 L 28.5 66 L 28.5 65 Z " /><path fill="rgb(148,137,50)" stroke="rgb(148,137,50)" stroke-width="1" opacity="0.9607843137254902" d="M 67.5 67 L 68 81.5 L 69 82.5 L 67 81.5 L 67.5 67 Z " /><path fill="rgb(148,137,50)" stroke="rgb(148,137,50)" stroke-width="1" opacity="0.9607843137254902" d="M 59.5 73 L 60 85.5 L 59 85.5 L 58.5 76 L 57.5 78 L 57 76.5 L 59.5 73 Z " /><path fill="rgb(148,137,50)" stroke="rgb(148,137,50)" stroke-width="1" opacity="0.9607843137254902" d="M 29.5 76 L 28.5 78 L 29.5 76 Z " /><path fill="rgb(148,137,50)" stroke="rgb(148,137,50)" stroke-width="1" opacity="0.9607843137254902" d="M 4.5 77 L 6.5 78 L 27 78.5 L 6.5 79 L 4.5 77 Z " /><path fill="rgb(148,137,50)" stroke="rgb(148,137,50)" stroke-width="1" opacity="0.9607843137254902" d="M 54.5 83 L 55 84.5 L 52.5 89 L 52 87.5 L 54.5 83 Z " /><path fill="rgb(148,137,50)" stroke="rgb(148,137,50)" stroke-width="1" opacity="0.9607843137254902" d="M 3.5 88 Q 7.9 86.5 7 89.5 L 9 92.5 L 7 91.5 L 5.5 89 L 3 89.5 L 3 125 L 6 125.5 L 3.5 126 L 2 124.5 L 2 89.5 L 3.5 88 Z " /><path fill="rgb(148,137,50)" stroke="rgb(148,137,50)" stroke-width="1" opacity="0.9607843137254902" d="M 87.5 88 L 108.5 88 L 111 90.5 L 108.5 89 L 87.5 89 L 87.5 88 Z " /><path fill="rgb(148,137,50)" stroke="rgb(148,137,50)" stroke-width="1" opacity="0.9607843137254902" d="M 122.5 88 L 147 88.5 L 122.5 89 L 122.5 88 Z " /><path fill="rgb(148,137,50)" stroke="rgb(148,137,50)" stroke-width="1" opacity="0.9607843137254902" d="M 157 88 L 159.5 88 L 164 92.5 L 159.5 89 L 158 89.5 L 158 124.5 L 157 124.5 L 157 88 Z " /><path fill="rgb(148,137,50)" stroke="rgb(148,137,50)" stroke-width="1" opacity="0.9607843137254902" d="M 184.5 88 L 188 88.5 L 188 124.5 L 187 124.5 L 187 89.5 L 184.5 89 L 184.5 88 Z " /><path fill="rgb(148,137,50)" stroke="rgb(148,137,50)" stroke-width="1" opacity="0.9607843137254902" d="M 85.5 89 L 85 90.5 L 84.5 92 L 84 90.5 L 85.5 89 Z " /><path fill="rgb(148,137,50)" stroke="rgb(148,137,50)" stroke-width="1" opacity="0.9607843137254902" d="M 120.5 89 L 120 90.5 L 119.5 92 L 119 90.5 L 120.5 89 Z " /><path fill="rgb(148,137,50)" stroke="rgb(148,137,50)" stroke-width="1" opacity="0.9607843137254902" d="M 148.5 89 L 150 91.5 L 149 91.5 L 148.5 89 Z " /><path fill="rgb(148,137,50)" stroke="rgb(148,137,50)" stroke-width="1" opacity="0.9607843137254902" d="M 51.5 90 L 52.5 91 L 77 91 L 77 125 L 59 125 L 59 107 L 44.5 107 L 44.5 106 L 60 106 L 60 124 L 76 124 L 76 92 L 51.5 92 L 51.5 90 Z " /><path fill="rgb(148,137,50)" stroke="rgb(148,137,50)" stroke-width="1" opacity="0.9607843137254902" d="M 87 92 L 108 92 L 108 100 L 111 100 L 111.5 92 L 112 99.5 Q 110.8 102 107 101 L 107 93 L 88 93 L 88 120 L 107 120 L 107 112.5 L 108.5 111 L 108 112.5 L 108 121 L 87 121 L 87 92 Z " /><path fill="rgb(148,137,50)" stroke="rgb(148,137,50)" stroke-width="1" opacity="0.9607843137254902" d="M 123.5 92 L 147 92 L 147 121 L 122 121 L 122 93.5 L 123.5 92 Z M 123 93 L 123 120 L 146 120 L 146 93 L 123 93 Z " /><path fill="rgb(148,137,50)" stroke="rgb(148,137,50)" stroke-width="1" opacity="0.9607843137254902" d="M 6.5 93 L 11 103.5 L 9 102.5 L 5 94.5 L 6.5 93 Z " /><path fill="rgb(148,137,50)" stroke="rgb(148,137,50)" stroke-width="1" opacity="0.9607843137254902" d="M 83.5 93 L 84 119.5 L 83 119.5 L 83.5 93 Z " /><path fill="rgb(148,137,50)" stroke="rgb(148,137,50)" stroke-width="1" opacity="0.9607843137254902" d="M 160.5 93 L 171 106.5 L 166 102.5 L 161.5 96 L 160.5 102 L 160.5 93 Z " /><path fill="rgb(148,137,50)" stroke="rgb(148,137,50)" stroke-width="1" opacity="0.9607843137254902" d="M 118.5 94 L 119 118.5 L 118 118.5 L 118.5 94 Z " /><path fill="rgb(148,137,50)" stroke="rgb(148,137,50)" stroke-width="1" opacity="0.9607843137254902" d="M 150.5 94 L 151 119.5 L 150 119.5 L 150.5 94 Z " /><path fill="rgb(148,137,50)" stroke="rgb(148,137,50)" stroke-width="1" opacity="0.9607843137254902" d="M 164.5 94 L 168.5 99 L 164.5 94 Z " /><path fill="rgb(148,137,50)" stroke="rgb(148,137,50)" stroke-width="1" opacity="0.9607843137254902" d="M 29.5 99 L 30 100.5 L 26.5 106 L 27 104.5 L 29.5 99 Z " /><path fill="rgb(148,137,50)" stroke="rgb(148,137,50)" stroke-width="1" opacity="0.9607843137254902" d="M 12.5 100 L 19.5 112 L 22.5 106 L 23 107.5 L 19.5 113 L 17 110.5 L 12.5 100 Z " /><path fill="rgb(148,137,50)" stroke="rgb(148,137,50)" stroke-width="1" opacity="0.9607843137254902" d="M 169.5 100 L 173.5 105 L 169.5 100 Z " /><path fill="rgb(148,137,50)" stroke="rgb(148,137,50)" stroke-width="1" opacity="0.9607843137254902" d="M 6.5 102 L 7 120.5 L 6 120.5 L 6.5 102 Z " /><path fill="rgb(148,137,50)" stroke="rgb(148,137,50)" stroke-width="1" opacity="0.9607843137254902" d="M 174.5 106 L 178.5 111 L 174.5 106 Z " /><path fill="rgb(148,137,50)" stroke="rgb(148,137,50)" stroke-width="1" opacity="0.9607843137254902" d="M 171.5 108 L 175.5 113 L 171.5 108 Z " /><path fill="rgb(148,137,50)" stroke="rgb(148,137,50)" stroke-width="1" opacity="0.9607843137254902" d="M 14.5 111 L 19 118.5 L 17.5 121 Q 17.2 114 14.5 111 Z " /><path fill="rgb(148,137,50)" stroke="rgb(148,137,50)" stroke-width="1" opacity="0.9607843137254902" d="M 110.5 112 L 112 112.5 L 112 120.5 L 111 120.5 Q 111.6 113.8 110.5 112 Z " /><path fill="rgb(148,137,50)" stroke="rgb(148,137,50)" stroke-width="1" opacity="0.9607843137254902" d="M 179.5 112 L 183.5 117 L 184.5 114 L 185 118.5 L 182 116.5 L 179.5 112 Z " /><path fill="rgb(148,137,50)" stroke="rgb(148,137,50)" stroke-width="1" opacity="0.9607843137254902" d="M 176.5 114 L 186 124.5 L 180 119.5 L 176.5 114 Z " /><path fill="rgb(148,137,50)" stroke="rgb(148,137,50)" stroke-width="1" opacity="0.9607843137254902" d="M 26.5 118 L 27.5 120 L 26.5 118 Z " /><path fill="rgb(148,137,50)" stroke="rgb(148,137,50)" stroke-width="1" opacity="0.9607843137254902" d="M 119.5 121 L 121.5 124 L 123 124.5 L 121.5 125 Q 117.9 123.9 119.5 121 Z " /><path fill="rgb(148,137,50)" stroke="rgb(148,137,50)" stroke-width="1" opacity="0.9607843137254902" d="M 149.5 121 L 150 122.5 L 146.5 125 L 146.5 124 L 149 122.5 L 149.5 121 Z " /><path fill="rgb(148,137,50)" stroke="rgb(148,137,50)" stroke-width="1" opacity="0.9607843137254902" d="M 84.5 122 L 88 124.5 L 86.5 125 L 84.5 122 Z " /><path fill="rgb(148,137,50)" stroke="rgb(148,137,50)" stroke-width="1" opacity="0.9607843137254902" d="M 110.5 122 L 111 123.5 L 107.5 125 L 107.5 124 Q 111 125 110.5 122 Z " /><path fill="rgb(148,137,50)" stroke="rgb(148,137,50)" stroke-width="1" opacity="0.9607843137254902" d="M 12.5 135 L 16 135.5 L 12.5 136 L 12.5 135 Z " /><path fill="rgb(148,137,50)" stroke="rgb(148,137,50)" stroke-width="1" opacity="0.9607843137254902" d="M 29.5 135 L 32 135.5 L 29.5 136 L 29.5 135 Z " /><path fill="rgb(148,137,50)" stroke="rgb(148,137,50)" stroke-width="1" opacity="0.9607843137254902" d="M 35.5 135 L 40 135.5 L 35.5 136 L 35.5 135 Z " /><path fill="rgb(148,137,50)" stroke="rgb(148,137,50)" stroke-width="1" opacity="0.9607843137254902" d="M 43.5 135 L 46 135.5 L 43.5 136 L 43.5 135 Z " /><path fill="rgb(148,137,50)" stroke="rgb(148,137,50)" stroke-width="1" opacity="0.9607843137254902" d="M 58.5 135 L 61 135.5 L 58.5 136 L 58.5 135 Z " /><path fill="rgb(148,137,50)" stroke="rgb(148,137,50)" stroke-width="1" opacity="0.9607843137254902" d="M 65.5 135 L 69 135.5 L 65.5 136 L 65.5 135 Z " /><path fill="rgb(148,137,50)" stroke="rgb(148,137,50)" stroke-width="1" opacity="0.9607843137254902" d="M 72.5 135 L 76 135.5 L 72.5 136 L 72.5 135 Z " /><path fill="rgb(148,137,50)" stroke="rgb(148,137,50)" stroke-width="1" opacity="0.9607843137254902" d="M 80.5 135 L 84 135.5 L 80.5 136 L 80.5 135 Z " /><path fill="rgb(148,137,50)" stroke="rgb(148,137,50)" stroke-width="1" opacity="0.9607843137254902" d="M 133.5 135 L 136 135.5 L 133.5 136 L 133.5 135 Z " /><path fill="rgb(148,137,50)" stroke="rgb(148,137,50)" stroke-width="1" opacity="0.9607843137254902" d="M 140.5 135 L 144 135.5 L 140.5 136 L 140.5 135 Z " /><path fill="rgb(148,137,50)" stroke="rgb(148,137,50)" stroke-width="1" opacity="0.9607843137254902" d="M 161.5 135 L 164 135.5 L 161.5 136 L 161.5 135 Z " /><path fill="rgb(148,137,50)" stroke="rgb(148,137,50)" stroke-width="1" opacity="0.9607843137254902" d="M 184.5 135 L 187 135.5 L 184.5 136 L 184.5 135 Z " /></svg>