<?xml version="1.0" standalone="no"?>
<!DOCTYPE svg PUBLIC "-//W3C//DTD SVG 20010904//EN"
 "http://www.w3.org/TR/2001/REC-SVG-20010904/DTD/svg10.dtd">
<svg version="1.0" xmlns="http://www.w3.org/2000/svg"
 width="192.000000pt" height="192.000000pt" viewBox="0 0 192.000000 192.000000"
 preserveAspectRatio="xMidYMid meet">

<g transform="translate(0.000000,192.000000) scale(0.100000,-0.100000)"
fill="#000000" stroke="none">
<path d="M980 1880 c41 -4 68 -7 59 -8 -23 -3 -55 -42 -69 -84 l-12 -38 -64 0
c-51 0 -64 3 -64 15 0 29 28 82 51 99 44 30 4 16 -46 -17 -28 -18 -64 -54 -82
-82 -18 -28 -42 -54 -53 -59 -28 -13 -25 -26 10 -39 44 -16 39 -42 -7 -45
-122 -8 -418 -70 -567 -119 l-79 -26 6 -151 c4 -117 11 -173 30 -248 32 -122
75 -221 93 -214 7 3 16 1 19 -4 4 -6 -1 -10 -9 -10 -8 0 -31 -14 -51 -31 l-35
-31 0 -124 0 -124 47 -30 c38 -24 53 -29 85 -24 44 8 50 -7 17 -42 l-21 -22
56 -38 c50 -33 59 -36 82 -26 34 16 48 15 74 -6 22 -18 22 -19 5 -46 -21 -31
-24 -27 42 -60 59 -30 80 -32 107 -11 11 8 26 15 35 15 8 0 79 -27 158 -60 80
-33 151 -60 158 -60 7 0 78 27 158 60 79 33 150 60 158 60 8 0 25 -7 38 -16
26 -19 71 -10 129 26 34 21 34 21 16 47 -16 26 -16 27 6 45 26 21 40 22 74 7
22 -10 32 -7 75 21 53 34 61 49 36 70 -8 7 -15 19 -15 28 0 11 8 13 36 9 27
-5 49 0 85 19 l49 24 0 152 c0 172 -2 177 -80 178 -33 1 -40 4 -25 9 11 5 26
6 33 4 17 -7 59 90 89 207 18 71 26 133 30 246 6 142 5 151 -13 158 -132 52
-379 114 -527 131 -28 4 -45 10 -41 16 3 6 -2 39 -12 75 -20 74 -52 112 -135
156 -48 25 -63 28 -134 26 l-80 -2 75 -6z m157 -41 c24 -12 55 -36 68 -53 26
-34 47 -105 28 -93 -6 4 -13 19 -16 35 -3 15 -15 39 -27 53 -19 22 -20 22 -11
2 6 -12 11 -29 11 -37 0 -23 -56 -21 -69 2 -10 16 -10 16 -11 -2 0 -14 -5 -17
-22 -12 -13 3 -29 6 -37 6 -8 0 -11 6 -7 16 3 8 2 12 -4 9 -24 -15 9 50 34 67
7 5 7 8 -2 8 -16 0 -54 -61 -47 -77 2 -8 -4 -13 -16 -13 -18 0 -20 4 -15 28 8
31 59 82 83 82 9 0 36 -9 60 -21z m-310 -46 c-16 -56 -31 -68 -24 -20 5 35 25
73 33 64 2 -1 -2 -21 -9 -44z m-39 -23 c-10 -31 -25 -46 -35 -37 -5 6 34 67
42 67 2 0 -1 -14 -7 -30z m290 -45 c85 -15 164 -44 176 -64 10 -16 2 -14 -37
9 -50 30 -264 63 -362 57 -46 -3 -69 -1 -55 3 42 13 190 11 278 -5z m-63 -35
c4 -6 -32 -10 -100 -10 -68 0 -104 4 -100 10 3 6 48 10 100 10 52 0 97 -4 100
-10z m-167 -29 c10 -6 6 -10 -15 -14 -15 -3 -36 -9 -45 -12 -12 -5 -18 -2 -18
8 0 24 50 36 78 18z m72 5 c0 -3 -4 -8 -10 -11 -5 -3 -10 -1 -10 4 0 6 5 11
10 11 6 0 10 -2 10 -4z m120 -6 c11 -7 7 -10 -17 -10 -18 0 -44 -5 -58 -12
-30 -13 -43 -5 -25 17 14 17 77 20 100 5z m-73 -79 c32 -16 98 -14 113 4 9 11
16 13 24 5 5 -5 18 -10 28 -10 12 0 15 -5 11 -16 -10 -26 20 -12 33 15 8 16
13 19 17 9 3 -7 6 -3 6 10 1 26 -7 28 -37 7 -18 -13 -21 -14 -16 -1 6 15 42
28 56 20 32 -20 -22 -101 -62 -91 -15 4 -24 -2 -35 -23 -24 -46 -172 -93 -239
-76 -30 8 -73 68 -78 110 -3 28 -1 30 36 34 22 2 36 0 32 -6 -3 -5 5 -14 17
-21 18 -10 29 -9 52 1 l30 12 -42 4 c-24 2 -43 5 -43 8 0 3 7 19 16 36 l16 31
21 -26 c12 -14 32 -30 44 -36z m276 22 c-5 -13 -2 -15 16 -10 18 4 20 3 11 -8
-21 -25 -8 -60 23 -63 15 -2 27 -7 27 -11 0 -11 -133 -81 -153 -81 -47 0 -39
62 13 107 17 14 37 38 46 54 16 31 27 40 17 12z m-464 -71 c5 -23 21 -55 35
-72 14 -18 26 -39 26 -49 0 -26 -48 -56 -124 -80 -75 -23 -90 -26 -63 -10 13
8 17 23 17 69 0 64 -6 70 -45 44 -21 -14 -25 -24 -25 -69 0 -43 3 -54 18 -57
14 -3 13 -5 -6 -10 -12 -3 -20 -3 -17 2 3 4 -2 10 -10 13 -11 5 -13 23 -10 92
3 51 0 85 -5 85 -6 0 -10 7 -10 16 0 12 -7 14 -32 9 -83 -18 -93 -33 -86 -125
3 -48 2 -50 -22 -49 -17 1 -19 3 -7 6 21 6 21 9 -2 32 -11 11 -29 17 -45 16
-24 -3 -26 -1 -21 25 10 56 24 78 56 89 17 6 40 11 50 11 11 0 19 4 19 9 0 14
115 49 194 60 37 5 71 12 74 15 9 10 31 -29 41 -72z m578 53 c14 -5 12 -9 -11
-20 -32 -17 -76 -20 -76 -6 0 15 41 40 56 35 8 -2 22 -6 31 -9z m111 -35 c35
-22 46 -25 38 -11 -6 10 161 -38 239 -68 l50 -19 -2 -134 c0 -73 -6 -144 -11
-158 -10 -24 -11 -23 -11 12 -1 20 -5 40 -11 43 -15 9 -12 82 5 98 8 8 12 17
10 19 -8 7 -75 -4 -75 -13 0 -5 6 -6 14 -3 8 3 17 1 21 -5 3 -7 -2 -11 -14
-11 -10 0 -21 -5 -23 -12 -9 -27 -26 5 -22 42 2 23 0 40 -6 40 -6 0 -10 -26
-11 -57 0 -32 -3 -53 -6 -46 -3 10 -7 10 -18 0 -8 -8 -9 -14 -2 -19 7 -4 4
-12 -6 -23 -16 -15 -17 -12 -17 49 0 58 -3 67 -24 81 -18 12 -33 14 -57 8 -52
-14 -59 -36 -26 -93 15 -28 27 -60 26 -73 -1 -21 -1 -21 -8 3 -13 41 -37 84
-60 104 -14 12 -19 27 -16 40 3 12 2 16 -1 9 -4 -9 -13 -9 -37 2 -18 8 -52 20
-77 26 l-45 11 68 35 c72 36 97 34 97 -8 0 -16 8 -19 45 -19 45 0 105 22 105
39 0 10 -81 93 -86 88 -2 -2 14 -22 36 -45 24 -24 35 -44 29 -47 -6 -4 -12 -5
-13 -4 -1 2 -15 21 -30 41 -25 34 -30 36 -52 26 -21 -10 -33 -8 -70 12 -49 27
-52 34 -26 49 25 15 43 13 80 -9z m-1033 -9 c-6 -5 -23 -12 -40 -15 l-30 -6
30 14 c35 18 54 20 40 7z m-95 -31 c-14 -11 -37 -22 -52 -25 -42 -10 -34 -25
9 -18 l36 6 -6 -71 c-6 -55 -4 -72 5 -73 7 0 2 -5 -11 -10 -41 -16 -16 -20 29
-4 76 27 150 12 135 -27 -17 -42 -160 -71 -199 -39 -15 13 -15 15 0 32 19 21
6 27 -14 7 -21 -21 -13 -41 48 -121 33 -42 60 -80 60 -84 0 -3 -12 -22 -27
-42 l-26 -36 36 34 c26 24 37 30 37 19 0 -8 -7 -21 -15 -28 -10 -8 -15 -31
-15 -71 0 -48 -3 -59 -16 -59 -10 0 -14 -6 -10 -15 3 -8 2 -15 -3 -15 -5 0
-16 18 -25 40 -12 32 -13 45 -4 67 6 16 12 30 12 33 1 3 11 20 24 38 l23 32
-22 31 c-17 24 -24 28 -31 17 -8 -10 -9 -9 -5 3 3 9 -10 38 -29 64 -42 60 -42
77 -3 108 18 14 29 29 25 35 -9 16 -44 3 -49 -19 -3 -13 -11 -17 -21 -13 -18
7 -22 24 -6 24 11 0 14 40 3 41 -45 4 -83 3 -83 -3 0 -5 5 -8 10 -8 11 0 14
-83 3 -94 -4 -4 -7 -19 -8 -34 0 -40 -31 -41 -39 -1 -11 58 -7 217 7 226 14 8
217 72 232 72 6 0 -1 -8 -15 -19z m1049 1 c13 -8 8 -31 -7 -31 -17 1 -34 19
-28 29 9 13 16 14 35 2z m-278 -108 c-34 -29 -39 -13 -14 49 l18 43 5 -40 c4
-28 2 -44 -9 -52z m144 44 c-95 -54 -407 -208 -412 -203 -5 5 424 225 442 225
6 1 -8 -9 -30 -22z m-381 -36 c3 -5 22 -12 42 -16 24 -4 38 -13 41 -26 7 -26
11 -25 55 18 37 36 49 32 28 -8 -12 -22 -119 -79 -149 -79 -41 0 -50 9 -40 42
5 17 6 42 3 55 -6 22 9 33 20 14z m426 -35 c0 -2 -21 -16 -46 -31 -56 -33
-132 -133 -140 -186 l-7 -39 -48 0 c-27 0 -49 4 -49 9 0 20 45 87 84 125 58
58 206 145 206 122z m-1090 -26 c0 -5 -4 -10 -10 -10 -5 0 -10 5 -10 10 0 6 5
10 10 10 6 0 10 -4 10 -10z m1246 -64 c30 -33 44 -59 53 -98 6 -29 13 -58 14
-64 2 -6 10 -19 20 -28 25 -25 22 -26 -20 -5 -76 37 -192 43 -278 14 -12 -4
-8 2 10 14 l30 21 -32 -4 c-39 -5 -40 -2 -12 44 l21 35 -32 -30 c-32 -30 -32
-30 -26 -5 19 71 40 112 67 131 69 49 124 42 185 -25z m-940 19 c19 -25 30
-33 38 -25 19 19 29 10 11 -10 -24 -27 -30 -25 -45 10 -7 17 -22 37 -34 45
-11 8 -15 15 -9 15 7 0 24 -16 39 -35z m221 -17 c-14 -24 -30 -60 -37 -80 -7
-25 -21 -42 -42 -53 -17 -8 -32 -15 -33 -15 -2 0 1 16 5 35 16 70 80 155 118
155 9 0 5 -13 -11 -42z m143 -3 c0 -8 -64 -34 -69 -29 -3 4 -1 9 5 11 7 2 10
13 7 23 -5 18 -3 19 26 9 17 -6 31 -12 31 -14z m-272 -44 c-25 -37 -36 -47
-45 -39 -22 18 -14 45 20 67 52 34 60 25 25 -28z m-35 -94 c37 -72 67 -136 67
-141 0 -4 -12 -1 -26 8 -14 10 -44 20 -67 24 -38 7 -47 15 -102 89 -35 48 -67
82 -78 83 -14 0 -10 -11 22 -57 22 -32 50 -71 62 -86 22 -29 22 -29 1 -25 -12
2 -48 39 -86 88 l-66 85 59 7 c58 6 113 28 126 48 3 5 9 10 13 10 4 0 37 -60
75 -133z m307 68 c45 -15 103 -104 93 -143 -4 -17 -2 -23 6 -18 6 4 11 14 11
22 0 8 5 14 10 14 6 0 10 -9 10 -19 0 -25 -37 -69 -47 -56 -5 6 -25 10 -46 11
-23 0 -48 9 -65 22 -46 37 -132 74 -158 69 -28 -5 -32 8 -5 22 12 7 30 7 52 1
19 -6 41 -10 49 -9 23 1 -41 28 -68 29 -14 0 -21 4 -16 11 4 7 27 9 63 6 l56
-6 -50 13 c-38 10 -46 15 -32 21 9 4 37 2 62 -4 24 -6 50 -11 57 -10 22 1 -45
28 -72 29 -20 0 -22 2 -10 10 15 9 38 6 100 -15z m300 -60 c-6 -30 -8 -33 -9
-13 -1 25 8 62 14 56 2 -2 -1 -21 -5 -43z m385 -45 c9 -16 13 -30 11 -30 -3 0
-12 14 -21 30 -9 17 -13 30 -11 30 3 0 12 -13 21 -30z m-496 -6 c17 -4 31 -11
31 -16 0 -12 -60 -2 -74 12 -12 12 -2 13 43 4z m373 -14 c31 -9 38 -17 52 -57
9 -26 13 -49 9 -52 -5 -3 -13 -15 -19 -26 -22 -39 -151 -46 -264 -14 -109 30
-123 37 -116 55 3 9 6 25 6 36 0 18 5 20 43 16 23 -3 83 -2 132 2 83 6 85 7
28 8 -35 1 -63 6 -63 11 0 26 123 40 192 21z m-354 -35 c11 -10 11 -19 -2 -49
-14 -34 -17 -36 -32 -22 -18 19 -31 20 -36 4 -2 -6 -10 -8 -16 -4 -9 6 -9 13
3 29 8 12 15 32 15 44 0 20 4 23 28 17 15 -4 33 -12 40 -19z m-418 -19 c-1
-21 -1 -21 -15 -2 -19 25 -19 37 0 30 8 -4 15 -16 15 -28z m175 -14 c11 -6 14
-12 8 -12 -7 0 -25 12 -41 28 -15 15 -19 20 -7 11 11 -9 29 -21 40 -27z m742
26 c-3 -8 -6 -5 -6 6 -1 11 2 17 5 13 3 -3 4 -12 1 -19z m-39 -100 c-2 -32 -7
-61 -11 -65 -8 -7 -31 -7 -147 1 -41 3 -115 6 -165 7 -49 0 -84 3 -76 6 10 4
8 9 -10 20 -18 11 -19 13 -4 8 44 -14 134 -25 211 -25 45 0 96 -5 113 -11 48
-17 62 3 69 92 4 60 7 69 14 49 5 -14 8 -51 6 -82z m-1048 72 c81 0 113 -14
63 -27 -15 -4 -56 -7 -90 -8 -38 0 -62 -4 -59 -10 4 -14 114 -11 170 5 32 9
50 10 57 3 15 -15 -108 -46 -165 -42 -45 4 -62 -6 -31 -17 8 -4 15 -12 15 -20
0 -8 11 -15 28 -15 l27 -2 -28 -4 c-54 -8 -120 102 -86 143 8 10 15 12 17 5 2
-7 34 -11 82 -11z m1073 -10 c-3 -12 -8 -19 -11 -16 -5 6 5 36 12 36 2 0 2 -9
-1 -20z m-6 -52 c-3 -8 -6 -5 -6 6 -1 11 2 17 5 13 3 -3 4 -12 1 -19z m-948
-28 c-8 -5 -40 -11 -70 -14 l-54 -6 55 14 c71 17 91 19 69 6z m948 -12 c-3 -8
-6 -5 -6 6 -1 11 2 17 5 13 3 -3 4 -12 1 -19z m-867 -9 c0 -5 -4 -9 -10 -9 -5
0 -10 7 -10 16 0 8 5 12 10 9 6 -3 10 -10 10 -16z m-45 1 c-3 -5 -14 -10 -23
-10 -15 0 -15 2 -2 10 20 13 33 13 25 0z m436 -17 c13 -17 13 -17 -6 -3 -11 8
-22 16 -24 17 -2 2 0 3 6 3 6 0 17 -8 24 -17z m557 -28 c4 -5 -1 -5 -11 -2
-10 4 -34 7 -53 7 -19 0 -34 4 -34 8 0 11 87 -1 98 -13z m-1263 5 c-3 -5 -12
-10 -18 -10 -7 0 -6 4 3 10 19 12 23 12 15 0z m314 -34 c11 -25 24 -47 29 -50
5 -3 19 17 32 44 22 47 26 50 62 50 l38 0 0 -110 0 -110 -35 0 -35 0 0 53 -1
52 -20 -37 c-25 -48 -52 -50 -76 -5 l-18 32 -3 -52 -3 -53 -35 0 -34 0 0 109
0 110 33 4 c17 2 35 5 38 5 4 1 16 -18 28 -42z m356 27 c15 -36 65 -187 65
-195 0 -4 -15 -8 -34 -8 -28 0 -35 4 -40 25 -5 21 -12 25 -41 25 -28 0 -38 -5
-47 -25 -9 -20 -19 -25 -46 -25 -23 0 -33 4 -30 13 3 6 20 56 37 110 l33 97
48 0 c36 0 50 -4 55 -17z m208 11 c31 -6 37 -11 37 -30 0 -22 -4 -24 -42 -22
l-43 3 0 -60 0 -60 43 -3 c37 -3 42 -6 42 -28 0 -20 -5 -24 -32 -24 -52 0
-106 19 -123 43 -20 28 -20 125 0 154 13 19 30 27 70 32 6 0 27 -2 48 -5z
m-1010 -11 c-7 -2 -19 -2 -25 0 -7 3 -2 5 12 5 14 0 19 -2 13 -5z m1227 -15
c25 -16 34 -45 34 -121 1 -47 -3 -61 -18 -73 -26 -18 -99 -18 -136 1 -36 18
-42 40 -38 125 3 57 6 66 28 78 29 15 98 9 130 -10z m-937 -92 c19 -58 33
-107 29 -110 -3 -3 -19 -6 -35 -6 -20 0 -30 6 -34 20 -8 31 -79 29 -89 -2 -4
-13 -12 -26 -18 -30 -17 -12 -56 -9 -56 3 0 6 17 60 37 120 l37 109 47 0 47 0
35 -104z m-221 89 c3 -3 3 -16 1 -30 -4 -20 -12 -24 -47 -27 l-41 -3 0 -65 0
-65 43 3 c36 3 42 1 42 -17 0 -26 -8 -30 -78 -37 -57 -6 -61 -5 -77 20 -24 35
-17 157 10 186 26 29 129 53 147 35z m1323 -58 l30 -57 3 55 3 55 34 0 c34 0
35 -1 35 -37 0 -21 3 -75 7 -121 l6 -83 -39 3 c-36 3 -41 7 -69 60 -16 32 -33
58 -37 58 -5 0 -8 -22 -8 -50 0 -48 -1 -50 -29 -50 -38 0 -41 11 -41 131 l0
100 37 -3 c34 -3 40 -8 68 -61z m-821 -244 c20 -32 36 -61 36 -65 0 -12 -48
-10 -55 2 -3 6 -24 10 -46 10 -21 0 -39 -4 -39 -10 0 -5 -14 -10 -31 -10 l-30
0 32 60 c28 49 38 60 64 63 16 2 31 5 32 5 1 1 18 -24 37 -55z m199 48 c55
-21 28 -81 -37 -81 -25 0 -35 -5 -39 -20 -3 -14 -14 -20 -31 -20 -25 0 -26 2
-26 65 l0 65 54 0 c30 0 66 -4 79 -9z m194 -7 c27 -5 40 -41 21 -60 -8 -8 -31
-15 -52 -16 -29 -1 -40 -6 -44 -20 -3 -14 -12 -18 -31 -16 -24 3 -26 8 -29 52
-5 73 -1 78 60 71 29 -4 63 -8 75 -11z m-613 -43 c7 -10 -122 -20 -139 -11 -5
3 17 8 50 11 33 3 65 6 72 7 6 1 14 -2 17 -7z m845 -7 c2 -2 -30 -4 -72 -4
-45 0 -77 4 -77 10 0 9 138 3 149 -6z m-927 -101 c113 -57 300 -143 364 -168
l72 -27 128 55 c71 30 154 69 184 86 30 17 63 31 72 31 10 0 53 29 97 64 69
56 83 64 107 57 26 -7 22 -10 -67 -67 -124 -80 -219 -131 -360 -193 -153 -67
-161 -69 -245 -36 -118 46 -334 157 -439 225 -95 62 -98 65 -70 71 25 4 37 -1
72 -35 23 -23 61 -51 85 -63z m83 77 c-3 -5 -32 -10 -63 -9 -44 1 -51 3 -32 9
37 12 102 12 95 0z m805 0 c11 -7 -1 -10 -42 -10 -31 0 -60 5 -63 10 -8 13 85
13 105 0z m227 -84 c-2 -5 -19 -18 -38 -29 -34 -20 -36 -20 -60 -3 -22 16 -22
17 -3 12 16 -5 28 1 45 22 20 23 27 27 42 18 9 -6 16 -15 14 -20z m-1296 -16
c13 -7 25 -7 38 0 11 5 26 10 33 10 7 0 -6 -10 -29 -22 l-41 -21 -36 23 c-29
17 -34 25 -25 36 9 11 13 11 26 -1 8 -8 23 -20 34 -25z m413 -24 c-2 -22 22
-20 46 4 25 25 120 29 120 5 0 -8 -12 -18 -26 -21 -19 -5 -22 -9 -12 -15 10
-7 10 -9 -2 -9 -8 0 -22 5 -30 10 -11 7 -22 2 -40 -15 l-25 -24 -52 24 c-47
22 -89 57 -50 42 9 -3 18 -1 21 6 3 8 10 5 21 -8 17 -20 17 -20 10 4 -5 17 -4
22 6 19 8 -3 13 -13 13 -22z m256 9 c6 -8 15 -14 18 -13 4 1 25 -2 47 -7 l40
-8 -40 -7 c-22 -4 -47 -9 -55 -11 -8 -2 -14 1 -13 8 4 20 -36 26 -62 9 -36
-24 -52 -19 -27 7 12 13 19 27 15 30 -3 4 10 7 29 7 20 0 41 -7 48 -15z m135
5 c9 -14 45 -12 45 3 1 12 20 -16 21 -30 1 -8 -52 -6 -83 3 -25 7 -31 34 -8
34 10 0 22 -4 25 -10z m295 -109 c0 -3 -20 -14 -45 -24 -44 -19 -45 -19 -71 2
-15 12 -23 21 -19 21 5 0 17 -7 27 -17 17 -15 20 -15 43 7 14 13 25 30 25 38
0 12 4 12 20 -3 11 -10 20 -21 20 -24z m-898 -22 c15 -8 24 -7 36 4 9 8 24 17
32 21 8 4 2 -4 -15 -18 -36 -31 -36 -31 -87 -5 -29 15 -37 23 -28 29 8 5 19 2
27 -6 8 -8 24 -19 35 -25z m328 -79 c0 -5 -2 -10 -4 -10 -3 0 -8 5 -11 10 -3
6 -1 10 4 10 6 0 11 -4 11 -10z m185 0 c-3 -5 -10 -10 -16 -10 -5 0 -9 5 -9
10 0 6 7 10 16 10 8 0 12 -4 9 -10z"/>
<path d="M1060 1545 c-20 -24 -6 -28 15 -5 10 11 13 20 8 20 -6 0 -16 -7 -23
-15z"/>
<path d="M970 1530 c-20 -6 -21 -8 -5 -8 11 0 29 3 40 8 25 11 -1 11 -35 0z"/>
<path d="M698 1428 c-7 -19 3 -88 12 -88 4 0 11 11 14 24 6 26 -18 86 -26 64z"/>
<path d="M382 1313 c-12 -2 -19 -9 -16 -15 4 -6 -1 -8 -13 -4 -27 9 -64 -30
-43 -45 33 -22 160 14 160 45 0 23 -31 30 -88 19z m52 -12 c4 -5 -3 -7 -14 -4
-23 6 -26 13 -6 13 8 0 17 -4 20 -9z m-54 -34 c19 -3 15 -5 -12 -6 -36 -1 -47
7 -31 22 4 4 9 3 12 -2 3 -5 17 -11 31 -14z"/>
<path d="M1497 1129 c7 -7 15 -10 18 -7 3 3 -2 9 -12 12 -14 6 -15 5 -6 -5z"/>
<path d="M986 789 c-9 -46 -8 -49 15 -49 19 0 21 4 15 31 -3 17 -6 35 -6 40 0
23 -18 6 -24 -22z"/>
<path d="M1397 814 c-14 -14 -7 -111 8 -124 25 -21 36 1 33 66 -2 44 -7 60
-18 62 -9 1 -19 0 -23 -4z"/>
<path d="M443 761 c-11 -40 -10 -41 13 -41 21 0 24 3 18 28 -13 52 -21 56 -31
13z"/>
<path d="M745 530 c-3 -5 3 -10 15 -10 12 0 18 5 15 10 -3 6 -10 10 -15 10 -5
0 -12 -4 -15 -10z"/>
<path d="M950 555 c0 -8 9 -15 19 -15 26 0 35 16 15 24 -25 10 -34 7 -34 -9z"/>
<path d="M1140 551 c0 -15 16 -22 34 -15 25 9 19 24 -9 24 -14 0 -25 -4 -25
-9z"/>
<path d="M63 1503 c-41 -14 -43 -17 -43 -54 0 -21 5 -39 10 -39 6 0 10 16 10
35 0 32 4 38 43 55 50 22 39 24 -20 3z"/>
<path d="M1858 1488 c7 -7 12 -25 12 -41 0 -16 4 -26 10 -22 16 10 12 62 -6
69 -24 9 -29 7 -16 -6z"/>
<path d="M1792 895 c-17 -37 -14 -45 4 -12 9 16 14 31 11 33 -2 2 -9 -7 -15
-21z"/>
<path d="M127 854 c6 -16 19 -18 27 -5 3 5 -3 11 -13 14 -14 3 -18 1 -14 -9z"/>
</g>
</svg>
