<svg width="512" height="512" version="1.1" xmlns="http://www.w3.org/2000/svg" desc="Created with imagetracer.js version 1.2.6" ><path fill="rgb(0,0,0)" stroke="rgb(0,0,0)" stroke-width="1" opacity="0" d="M 0 0 L 512 0 L 512 512 L 0 512 L 0 0 Z M 19 127 L 10 130 Q 4 134 3 142 L 3 209 L 3 211 L 6 218 L 11 222 L 20 224 L 66 224 L 76 222 Q 81 218 83 212 L 83 188 L 70 184 L 68 185 L 68 207 L 67 208 L 18 208 L 18 143 L 68 143 L 68 164 L 70 165 L 77 163 L 79 163 L 83 161 L 83 142 L 80 134 L 77 130 L 68 127 L 24 127 L 23 128 L 19 127 Z M 165 127 L 163 129 L 161 128 L 159 129 Q 157 132 156 130 L 155 132 L 148 136 Q 149 138 146 137 L 146 139 L 145 139 L 142 143 L 137 150 Q 138 152 136 151 L 136 153 L 135 153 L 135 155 L 134 155 L 134 157 L 133 157 L 133 159 L 132 161 L 130 162 L 130 164 L 129 164 L 129 166 L 128 166 L 128 168 L 127 168 L 127 170 L 124 174 Q 125 176 123 175 L 123 177 L 122 177 L 122 179 L 102 215 Q 103 217 100 216 L 98 222 Q 99 224 97 223 L 97 225 L 95 225 L 92 233 Q 93 235 91 234 L 91 236 L 89 236 L 88 240 Q 89 242 87 241 L 87 243 L 82 243 L 50 302 L 16 245 L 16 243 L 3 243 L 3 339 L 4 339 L 16 339 L 17 271 L 26 290 L 44 319 Q 45 323 42 322 L 39 330 Q 40 332 38 331 L 38 333 L 37 333 L 37 335 Q 34 336 35 339 L 95 339 L 97 338 L 96 337 L 98 336 L 97 335 L 99 334 L 98 333 L 100 332 L 100 330 L 106 319 Q 105 316 108 317 L 107 316 L 109 315 L 108 314 L 110 313 L 109 312 L 111 311 L 110 310 L 112 309 L 112 307 L 117 298 Q 116 295 119 296 L 119 294 L 156 294 L 156 339 L 207 339 L 207 250 L 141 250 L 141 248 L 149 233 Q 148 230 151 231 L 150 230 L 152 229 L 152 226 L 155 220 L 156 220 L 156 243 L 207 243 L 207 168 L 206 167 L 207 164 L 206 161 L 206 159 L 203 154 Q 204 149 202 150 L 201 148 Q 202 145 199 146 L 199 143 L 198 143 L 195 140 Q 196 137 193 138 L 193 136 L 186 132 Q 183 133 184 130 L 176 129 L 174 127 L 172 128 L 165 127 Z M 235 243 L 227 246 L 221 257 L 221 325 L 224 334 L 233 339 L 289 339 L 296 336 L 301 327 L 300 325 L 302 317 L 301 312 L 302 310 L 301 304 L 300 302 Q 293 303 291 300 Q 286 299 286 301 L 286 323 L 236 323 L 236 260 Q 237 257 239 259 L 284 259 L 285 258 L 286 260 L 286 280 L 294 279 L 298 277 Q 302 278 301 276 L 302 273 L 301 259 L 301 257 L 298 249 L 293 244 L 288 243 L 235 243 Z M 330 243 L 322 246 L 317 253 L 316 258 L 316 325 L 319 334 Q 322 338 329 339 L 394 339 L 398 337 L 400 337 Q 399 334 402 335 L 405 330 L 406 325 L 406 258 L 402 248 L 398 244 L 393 243 L 330 243 Z M 420 243 L 420 338 L 422 339 L 434 339 L 435 338 L 435 271 L 435 269 L 454 291 Q 453 293 456 292 L 459 298 L 463 301 Q 462 303 465 302 L 466 305 L 469 306 L 472 311 Q 471 313 474 312 L 492 334 L 498 339 L 506 339 L 506 244 L 506 243 L 492 243 L 492 310 L 493 311 L 493 313 L 483 301 L 480 299 L 474 292 Q 475 289 473 290 L 466 283 Q 467 280 465 281 L 463 279 L 460 277 L 457 271 L 454 270 Q 455 267 453 268 L 445 260 Q 446 257 444 258 L 433 247 L 431 243 L 420 243 Z M 6 358 L 3 359 L 4 362 L 4 377 L 4 379 Q 3 381 6 380 L 10 380 L 14 379 L 19 380 L 22 378 L 21 371 L 19 370 L 17 370 L 17 375 L 7 375 L 7 364 L 9 362 L 17 362 L 17 367 L 21 366 L 22 361 L 19 358 L 6 358 Z M 268 358 L 265 361 L 265 378 L 266 379 Q 265 381 268 380 L 270 380 L 272 379 L 277 380 L 280 379 L 282 380 L 283 378 L 282 371 L 279 370 L 279 372 L 279 375 L 269 375 L 269 362 L 278 362 L 279 366 L 279 367 L 282 366 Q 284 365 282 364 L 283 361 L 281 358 L 268 358 Z M 30 361 L 26 365 L 27 366 L 27 377 L 26 378 L 28 378 L 28 380 L 40 379 L 43 380 L 45 379 L 44 377 Q 43 367 45 363 L 42 361 L 30 361 Z M 50 361 L 50 380 L 52 380 L 53 379 L 53 370 L 56 372 Q 55 374 58 373 L 59 376 L 62 378 Q 61 381 64 380 L 66 380 L 66 363 L 67 361 L 62 362 L 63 363 L 63 372 Q 60 373 61 371 L 58 369 L 57 366 L 55 366 L 55 363 Q 52 364 53 361 L 50 361 Z M 75 361 L 72 362 L 72 371 L 73 372 L 71 379 L 73 379 L 75 379 L 77 380 Q 84 382 88 379 L 87 378 Q 86 372 88 371 L 86 370 Q 85 366 88 365 L 85 361 L 75 361 Z M 91 361 Q 89 367 96 365 L 97 367 L 97 379 L 99 380 L 101 379 L 101 365 L 108 365 L 108 362 L 106 361 L 91 361 Z M 111 361 L 111 379 L 113 380 L 114 380 L 114 374 L 118 374 L 121 379 Q 120 381 123 380 L 125 380 L 128 379 L 125 378 L 124 376 Q 124 371 127 371 L 127 365 L 124 361 L 111 361 Z M 131 361 L 131 379 L 134 380 L 136 380 Q 141 382 143 379 L 146 380 L 147 378 L 147 362 L 144 361 L 142 363 L 142 376 L 134 376 L 134 362 L 131 361 Z M 155 361 L 152 364 L 152 378 L 155 380 L 157 380 L 163 379 L 165 379 L 167 380 L 168 374 Q 167 371 166 373 Q 161 372 163 376 L 156 376 L 156 366 L 163 366 L 163 369 L 168 369 L 168 365 L 165 361 L 155 361 Z M 171 361 Q 169 367 177 365 L 176 367 L 176 380 L 178 380 L 180 380 L 181 380 L 181 365 L 187 365 L 187 361 L 171 361 Z M 193 361 L 191 362 L 191 364 L 190 365 L 190 378 Q 192 382 194 379 L 196 380 L 204 380 L 205 379 L 207 380 L 208 378 L 208 365 L 207 363 L 206 361 L 193 361 Z M 213 361 L 212 364 L 212 379 L 216 380 Q 218 379 217 374 L 220 374 L 224 379 Q 223 381 227 380 L 229 380 L 228 378 Q 229 375 227 376 L 226 374 L 229 372 L 228 371 Q 227 365 229 364 L 226 361 L 213 361 Z M 239 361 L 232 374 L 232 376 L 230 380 L 234 379 Q 236 380 235 377 L 243 377 L 244 376 L 245 380 L 247 379 L 250 380 Q 251 377 248 378 L 248 376 L 246 372 Q 247 369 244 370 L 244 368 L 244 366 L 243 365 L 243 364 Q 243 361 239 361 Z M 294 361 L 293 365 L 293 367 L 292 369 L 290 373 Q 291 375 288 374 Q 289 378 286 380 L 288 380 L 290 380 L 293 377 Q 299 379 301 376 L 302 379 L 302 380 L 306 380 L 305 377 L 305 375 L 300 367 Q 302 362 299 363 L 299 362 L 294 361 Z M 309 361 L 309 379 Q 311 382 312 379 L 312 372 L 314 371 L 316 376 L 320 378 L 319 377 L 321 374 L 323 373 L 323 380 L 325 380 L 327 380 L 327 362 L 325 361 Q 322 362 324 364 L 321 365 L 319 371 L 318 371 Q 319 368 317 369 Q 314 368 316 367 L 315 366 L 314 363 Q 311 364 312 361 L 309 361 Z M 338 361 Q 340 366 336 365 Q 337 369 334 371 L 334 374 Q 331 373 332 376 L 332 378 L 331 380 L 333 379 L 335 380 L 336 377 L 345 377 L 345 380 L 349 379 L 350 380 L 348 375 L 348 373 L 346 372 L 344 367 L 344 363 Q 341 364 342 361 L 338 361 Z M 355 361 L 353 363 L 353 378 L 352 379 L 354 379 L 357 380 L 359 379 L 362 380 L 366 380 L 368 379 Q 369 371 367 372 L 365 376 L 356 376 L 356 366 L 365 366 L 365 369 Q 370 371 368 364 L 366 361 L 355 361 Z M 376 361 L 373 362 L 373 378 L 372 379 L 375 380 L 377 380 Q 381 381 383 379 L 388 380 L 390 378 L 390 362 L 388 361 L 376 361 Z M 395 361 L 395 379 L 398 380 L 399 379 L 399 370 L 400 370 Q 399 372 402 371 L 403 374 Q 402 376 405 375 L 406 378 L 410 380 L 412 379 L 412 362 L 409 361 L 409 372 L 407 371 L 404 367 Q 401 368 402 365 L 398 363 Q 399 359 395 361 Z M 433 361 L 429 363 L 429 371 Q 432 370 432 373 L 441 373 L 441 376 L 433 376 L 432 374 L 431 374 L 428 378 L 432 380 L 434 380 Q 440 382 442 379 L 444 380 Q 446 377 445 369 L 443 368 L 434 368 L 433 365 L 441 365 L 441 367 L 444 368 L 445 366 L 444 363 L 443 361 L 433 361 Z M 466 361 L 466 363 L 464 366 Q 465 369 463 368 L 463 370 Q 459 373 459 380 L 461 379 L 463 380 L 462 379 Q 464 375 471 377 Q 472 375 473 378 Q 472 381 475 380 L 477 380 L 478 380 L 474 372 L 474 370 L 472 369 L 470 363 Q 469 360 466 361 Z M 494 361 L 490 364 L 491 365 L 491 372 Q 495 374 503 373 L 503 376 L 493 376 L 493 373 L 490 378 Q 489 380 492 379 L 495 380 L 497 379 Q 498 382 504 380 Q 508 378 506 370 L 505 368 L 494 368 L 496 365 L 502 365 L 502 367 L 505 367 L 506 364 L 504 361 L 494 361 Z M 451 372 Q 448 373 450 375 L 449 380 L 451 380 L 453 380 L 456 378 L 455 374 Q 456 370 451 372 Z M 482 372 Q 479 373 480 379 L 483 380 L 485 380 L 485 372 L 482 372 Z " /><path fill="rgb(0,0,0)" stroke="rgb(0,0,0)" stroke-width="1" opacity="0" d="M 385.5 258 L 391 259 L 391 323 L 331 323 L 331 259 L 384.5 259 L 385.5 258 Z " /><path fill="rgb(0,0,0)" stroke="rgb(0,0,0)" stroke-width="1" opacity="0" d="M 76.5 365 Q 83.5 363.5 85 367.5 L 75 368 L 76.5 365 Z " /><path fill="rgb(0,0,0)" stroke="rgb(0,0,0)" stroke-width="1" opacity="0" d="M 114 365 Q 121.1 363.2 123 367.5 Q 121.1 371.8 114 370 L 114 365 Z " /><path fill="rgb(0,0,0)" stroke="rgb(0,0,0)" stroke-width="1" opacity="0" d="M 217 365 Q 223.1 363.2 225 366.5 L 223.5 370 L 217 370 L 217 365 Z " /><path fill="rgb(0,0,0)" stroke="rgb(0,0,0)" stroke-width="1" opacity="0" d="M 31 366 L 41 366 L 41 376 L 31 376 L 31 366 Z " /><path fill="rgb(0,0,0)" stroke="rgb(0,0,0)" stroke-width="1" opacity="0" d="M 194 366 L 203 366 L 203 376 L 194 376 L 194 366 Z " /><path fill="rgb(0,0,0)" stroke="rgb(0,0,0)" stroke-width="1" opacity="0" d="M 239.5 366 L 241 373 Q 235.8 375.1 237 370.5 L 239.5 366 Z " /><path fill="rgb(0,0,0)" stroke="rgb(0,0,0)" stroke-width="1" opacity="0" d="M 376 366 L 387 366 L 387 376 L 376 376 L 376 366 Z " /><path fill="rgb(0,0,0)" stroke="rgb(0,0,0)" stroke-width="1" opacity="0" d="M 296.5 367 L 298 373 L 294 372.5 L 296.5 367 Z " /><path fill="rgb(0,0,0)" stroke="rgb(0,0,0)" stroke-width="1" opacity="0" d="M 339 368 L 341 368 L 341 371 Q 344 370 343 373 L 338 372.5 L 339 368 Z " /><path fill="rgb(0,0,0)" stroke="rgb(0,0,0)" stroke-width="1" opacity="0" d="M 467 368 L 469 368.5 L 469 370.5 L 470 372.5 L 465.5 373 L 467 370.5 L 467 368 Z " /><path fill="rgb(0,0,0)" stroke="rgb(0,0,0)" stroke-width="1" opacity="0" d="M 74 373 L 83.5 373 L 84 376 L 74.5 376 L 74 373 Z " /><path fill="rgb(217,199,39)" stroke="rgb(217,199,39)" stroke-width="1" opacity="0.9137254901960784" d="M 18.5 127 L 22.5 128 L 23.5 127 L 67.5 127 L 76.5 130 L 80 133.5 L 83 141.5 L 83 160.5 L 78.5 163 L 76.5 163 L 69.5 165 L 68 163.5 L 68 143 L 18 143 L 18 208 L 66.5 208 L 68 206.5 L 68 184.5 L 69.5 184 L 83 188 L 83 211.5 Q 80.8 218.3 75.5 222 L 65.5 224 L 19.5 224 L 10.5 222 L 6 217.5 L 3 210.5 L 3 208.5 L 3 141.5 L 8 131.5 L 7.5 130 L 9.5 130 L 18.5 127 Z M 21 130 L 12 132 L 6 140 Q 8 145 5 147 L 5 206 L 7 215 L 12 219 L 19 221 L 68 221 L 77 218 L 79 215 L 81 207 L 81 190 L 74 188 L 70 189 L 70 211 L 16 211 L 16 140 L 70 140 L 70 161 L 81 159 L 81 145 L 79 137 L 75 132 L 66 130 L 21 130 Z " /><path fill="rgb(217,199,39)" stroke="rgb(217,199,39)" stroke-width="1" opacity="0.9137254901960784" d="M 164.5 127 L 166 127.5 L 163.5 129 L 164.5 127 Z " /><path fill="rgb(217,199,39)" stroke="rgb(217,199,39)" stroke-width="1" opacity="0.9137254901960784" d="M 172.5 127 L 175 128.5 L 173.5 128 L 172.5 127 Z " /><path fill="rgb(217,199,39)" stroke="rgb(217,199,39)" stroke-width="1" opacity="0.9137254901960784" d="M 165.5 131 L 172.5 131 L 180.5 133 Q 190.2 137.3 196 145.5 Q 201.7 153.3 204 164.5 L 204 240 L 159.5 240 L 158 238.5 L 157.5 209 L 136 253 L 204 253 L 204 335 L 159 335 L 159 291 L 117.5 291 L 95 332.5 L 95 339 L 81.5 339 L 80.5 335 L 40.5 335 L 40 333.5 L 46 321.5 L 26 289.5 L 16.5 271 L 16 339 L 3.5 339 L 3 338.5 L 3 243 L 15.5 243 L 16.5 242 L 16 243.5 L 49.5 302 L 81 243.5 L 80.5 242 L 81.5 243 L 90 243 L 139 151.5 L 150.5 138 Q 156.2 132.7 165.5 131 Z M 164 151 Q 154 154 149 162 L 150 163 Q 155 155 166 152 L 175 153 L 184 161 L 184 160 L 176 152 L 164 151 Z M 166 157 L 156 165 L 158 168 L 168 162 L 175 164 L 179 171 L 181 179 L 180 182 L 184 183 Q 186 170 180 164 L 172 157 L 166 157 Z M 149 163 L 142 172 L 143 173 L 149 165 L 149 163 Z M 187 165 L 186 168 L 187 168 L 187 165 Z M 166 167 L 158 174 L 159 175 Q 161 168 170 168 Q 174 170 174 176 L 175 176 L 174 171 Q 173 166 166 167 Z M 188 168 Q 185 173 188 175 L 188 230 L 189 230 L 189 174 L 188 168 Z M 142 173 L 137 181 L 138 182 L 142 175 L 142 173 Z M 157 176 L 153 181 L 154 182 L 157 178 L 157 176 Z M 176 176 L 175 230 L 176 230 L 176 176 Z M 145 179 L 131 204 Q 131 208 134 208 L 146 185 L 148 183 L 145 179 Z M 153 182 L 151 185 L 153 184 L 153 182 Z M 151 185 L 147 191 L 148 192 L 151 187 L 151 185 Z M 135 186 L 130 194 L 131 195 L 135 188 L 135 186 Z M 181 193 L 181 195 L 181 228 L 180 229 L 180 230 L 184 230 L 184 194 L 181 193 Z M 144 198 L 138 208 L 139 209 L 144 200 L 144 198 Z M 127 201 L 122 209 L 123 210 L 127 203 L 127 201 Z M 136 213 L 131 221 L 132 222 L 136 215 L 136 213 Z M 119 216 L 114 224 L 115 225 L 119 218 L 119 216 Z M 120 226 L 103 256 Q 102 259 106 260 L 122 230 L 120 226 Z M 129 226 L 123 236 L 124 237 L 129 228 L 129 226 Z M 112 229 L 107 237 L 108 238 L 112 231 L 112 229 Z M 121 241 L 116 249 L 117 250 L 121 243 L 121 241 Z M 104 244 L 100 250 L 101 251 L 104 246 L 104 244 Z M 5 246 L 5 336 L 6 336 L 14 336 L 15 257 L 19 273 L 47 321 L 51 322 L 78 274 L 81 263 L 83 262 L 83 336 L 84 336 L 93 336 L 93 247 L 93 246 L 83 246 L 51 305 Q 52 307 50 306 L 16 248 L 15 246 L 5 246 Z M 114 254 L 108 264 L 109 265 L 114 256 L 114 254 Z M 97 257 L 95 259 L 96 261 L 97 259 L 97 257 Z M 106 269 L 100 279 L 101 280 L 106 271 L 106 269 Z M 98 284 L 95 288 L 96 290 L 98 286 L 98 284 Z M 81 287 L 77 293 L 78 294 L 81 289 L 81 287 Z M 81 298 L 67 323 Q 66 327 70 327 L 81 307 L 81 298 Z M 74 300 L 69 308 L 70 309 L 74 302 L 74 300 Z M 67 313 L 62 321 L 63 322 L 67 315 L 67 313 Z " /><path fill="rgb(217,199,39)" stroke="rgb(217,199,39)" stroke-width="1" opacity="0.9137254901960784" d="M 149.5 134 L 151 134.5 L 148.5 136 L 149.5 134 Z " /><path fill="rgb(217,199,39)" stroke="rgb(217,199,39)" stroke-width="1" opacity="0.9137254901960784" d="M 144.5 139 L 144 140.5 Q 144.8 142.8 142.5 142 L 144.5 139 Z " /><path fill="rgb(217,199,39)" stroke="rgb(217,199,39)" stroke-width="1" opacity="0.9137254901960784" d="M 140.5 144 L 139.5 146 L 140.5 144 Z " /><path fill="rgb(217,199,39)" stroke="rgb(217,199,39)" stroke-width="1" opacity="0.9137254901960784" d="M 200.5 146 L 202 148.5 L 200 147.5 L 200.5 146 Z " /><path fill="rgb(217,199,39)" stroke="rgb(217,199,39)" stroke-width="1" opacity="0.9137254901960784" d="M 202.5 150 L 203 152.5 L 202 152.5 L 202.5 150 Z " /><path fill="rgb(217,199,39)" stroke="rgb(217,199,39)" stroke-width="1" opacity="0.9137254901960784" d="M 233.5 242 L 234.5 243 L 287.5 243 L 292.5 244 L 296.5 247 L 298 246.5 L 298 248.5 L 301 256.5 L 301 258.5 L 302 272.5 L 301 275.5 Q 301.9 278.5 297.5 277 L 293.5 279 L 286 280 L 286 259.5 L 284.5 258 L 283.5 259 L 238.5 259 Q 237.3 256.8 236 259.5 L 236 323 L 286 323 L 286 300.5 Q 286 299.5 290.5 300 L 300.5 303 L 302 302.5 L 301 305.5 L 302 309.5 L 301 311.5 L 302 316.5 L 300 324.5 L 301 326.5 L 295.5 336 L 288.5 339 L 232.5 339 L 224 333.5 L 221 324.5 L 221 256.5 L 226.5 246 L 228 245.5 L 227.5 244 L 229.5 244 L 234 243.5 L 233.5 242 Z M 234 246 L 227 249 L 224 256 Q 226 261 223 263 L 223 320 Q 226 321 224 327 L 227 333 L 234 336 L 289 336 L 294 334 L 298 328 L 299 307 L 291 303 L 288 304 L 288 326 L 234 326 L 234 256 L 288 256 L 288 276 L 299 274 L 299 261 L 296 251 L 289 246 L 234 246 Z " /><path fill="rgb(217,199,39)" stroke="rgb(217,199,39)" stroke-width="1" opacity="0.9137254901960784" d="M 393.5 242 L 393.5 244 L 398.5 245 L 400 244.5 L 399.5 246 L 402 247.5 L 406 257.5 L 406 324.5 L 405 329.5 L 401.5 335 Q 398.9 334.3 400 337 L 397.5 337 L 393.5 339 L 328.5 339 L 325.5 338 L 324 338.5 L 324.5 337 Q 319.5 337.5 319 333.5 L 316 324.5 L 316 257.5 L 317 252.5 L 321.5 246 L 323 245.5 L 322.5 244 L 324.5 244 L 329.5 243 L 392.5 243 L 393.5 242 Z M 329 246 L 324 248 L 319 255 Q 320 259 318 261 L 318 322 L 321 332 L 329 336 L 394 336 L 400 333 L 403 327 Q 401 320 404 319 L 404 264 Q 401 262 403 256 L 400 250 L 394 246 L 329 246 Z " /><path fill="rgb(217,199,39)" stroke="rgb(217,199,39)" stroke-width="1" opacity="0.9137254901960784" d="M 420 243 L 430.5 243 L 433 246.5 L 440.5 254 L 442 253.5 L 442 255.5 L 443.5 258 Q 445.8 257.3 445 259.5 Q 447.5 264.3 450 262.5 Q 447.5 264 451 265.5 L 452.5 268 Q 454.8 267.3 454 269.5 L 457 271 L 460 277 L 463 278.5 L 464.5 281 Q 466.8 280.3 466 282.5 L 472.5 290 Q 474.8 289.3 474 291.5 L 480 299 L 483 300.5 L 492.5 313 L 493 310.5 L 492 309.5 L 492 243 L 505.5 243 L 506 243.5 L 506 339 L 497.5 339 L 492 333.5 L 473.5 312 Q 471.3 312.8 472 310.5 L 469 306 L 466 304.5 L 464.5 302 Q 462.3 302.8 463 300.5 L 459 298 L 455.5 292 Q 453.3 292.8 454 290.5 L 435.5 270 L 435 337.5 L 433.5 339 L 421.5 339 L 420 337.5 L 420 243 Z M 423 246 L 423 336 L 424 336 L 432 336 L 432 266 L 431 265 L 432 258 L 440 272 L 493 331 L 499 336 L 504 336 L 504 247 L 504 246 L 495 246 L 495 316 L 496 317 L 496 322 L 489 312 L 431 248 L 430 246 L 423 246 Z " /><path fill="rgb(217,199,39)" stroke="rgb(217,199,39)" stroke-width="1" opacity="0.9137254901960784" d="M 329 256 L 393 256 L 393 326 L 329 326 L 329 256 Z M 386 258 L 385 259 L 331 259 L 331 323 L 391 323 L 391 259 L 386 258 Z " /><path fill="rgb(217,199,39)" stroke="rgb(217,199,39)" stroke-width="1" opacity="0.9137254901960784" d="M 20.5 359 L 21.5 361 L 20.5 359 Z " /><path fill="rgb(217,199,39)" stroke="rgb(217,199,39)" stroke-width="1" opacity="0.9137254901960784" d="M 73.5 360 L 74.5 361 L 85 361.5 L 74.5 362 L 73.5 360 Z " /><path fill="rgb(217,199,39)" stroke="rgb(217,199,39)" stroke-width="1" opacity="0.9137254901960784" d="M 153.5 360 L 154.5 361 L 165 361.5 L 154.5 362 L 153.5 360 Z " /><path fill="rgb(217,199,39)" stroke="rgb(217,199,39)" stroke-width="1" opacity="0.9137254901960784" d="M 323.5 360 L 327 361.5 L 323.5 363 L 323.5 360 Z " /><path fill="rgb(217,199,39)" stroke="rgb(217,199,39)" stroke-width="1" opacity="0.9137254901960784" d="M 388.5 360 L 387.5 362 L 375 361.5 L 387.5 361 L 388.5 360 Z " /><path fill="rgb(217,199,39)" stroke="rgb(217,199,39)" stroke-width="1" opacity="0.9137254901960784" d="M 504.5 360 L 503.5 362 L 493 361.5 L 503.5 361 L 504.5 360 Z " /><path fill="rgb(217,199,39)" stroke="rgb(217,199,39)" stroke-width="1" opacity="0.9137254901960784" d="M 29.5 361 L 42 361.5 L 29.5 362 L 29.5 361 Z " /><path fill="rgb(217,199,39)" stroke="rgb(217,199,39)" stroke-width="1" opacity="0.9137254901960784" d="M 50.5 361 L 53 361.5 L 50.5 362 L 50.5 361 Z " /><path fill="rgb(217,199,39)" stroke="rgb(217,199,39)" stroke-width="1" opacity="0.9137254901960784" d="M 62.5 361 L 67 361.5 L 62.5 362 L 62.5 361 Z " /><path fill="rgb(217,199,39)" stroke="rgb(217,199,39)" stroke-width="1" opacity="0.9137254901960784" d="M 91.5 361 L 106 361.5 L 91.5 362 L 91.5 361 Z " /><path fill="rgb(217,199,39)" stroke="rgb(217,199,39)" stroke-width="1" opacity="0.9137254901960784" d="M 111.5 361 L 124 361.5 L 111.5 362 L 111.5 361 Z " /><path fill="rgb(217,199,39)" stroke="rgb(217,199,39)" stroke-width="1" opacity="0.9137254901960784" d="M 131.5 361 L 134 361.5 L 131.5 362 L 131.5 361 Z " /><path fill="rgb(217,199,39)" stroke="rgb(217,199,39)" stroke-width="1" opacity="0.9137254901960784" d="M 143.5 361 L 147 361.5 L 143 362 L 142.5 376 L 142 362.5 L 143.5 361 Z " /><path fill="rgb(217,199,39)" stroke="rgb(217,199,39)" stroke-width="1" opacity="0.9137254901960784" d="M 171.5 361 L 187 361.5 L 171.5 362 L 171.5 361 Z " /><path fill="rgb(217,199,39)" stroke="rgb(217,199,39)" stroke-width="1" opacity="0.9137254901960784" d="M 192.5 361 L 206 361.5 L 192.5 362 L 190.5 363 L 190.5 362 L 192.5 361 Z " /><path fill="rgb(217,199,39)" stroke="rgb(217,199,39)" stroke-width="1" opacity="0.9137254901960784" d="M 213.5 361 L 226 361.5 L 213.5 362 L 213.5 361 Z " /><path fill="rgb(217,199,39)" stroke="rgb(217,199,39)" stroke-width="1" opacity="0.9137254901960784" d="M 238.5 361 Q 242.5 360.5 243 363.5 L 240.5 362 L 237.5 363 L 238.5 361 Z " /><path fill="rgb(217,199,39)" stroke="rgb(217,199,39)" stroke-width="1" opacity="0.9137254901960784" d="M 294.5 361 L 299 361.5 L 294.5 362 L 294.5 361 Z " /><path fill="rgb(217,199,39)" stroke="rgb(217,199,39)" stroke-width="1" opacity="0.9137254901960784" d="M 309.5 361 L 312 361.5 L 309.5 362 L 309.5 361 Z " /><path fill="rgb(217,199,39)" stroke="rgb(217,199,39)" stroke-width="1" opacity="0.9137254901960784" d="M 338.5 361 L 342 361.5 L 338.5 362 L 338.5 361 Z " /><path fill="rgb(217,199,39)" stroke="rgb(217,199,39)" stroke-width="1" opacity="0.9137254901960784" d="M 354.5 361 L 366 361.5 L 354.5 362 L 353.5 363 L 354.5 361 Z " /><path fill="rgb(217,199,39)" stroke="rgb(217,199,39)" stroke-width="1" opacity="0.9137254901960784" d="M 395.5 361 L 398 361.5 L 395.5 362 L 395.5 361 Z " /><path fill="rgb(217,199,39)" stroke="rgb(217,199,39)" stroke-width="1" opacity="0.9137254901960784" d="M 409.5 361 L 412 361.5 L 409.5 362 L 409.5 361 Z " /><path fill="rgb(217,199,39)" stroke="rgb(217,199,39)" stroke-width="1" opacity="0.9137254901960784" d="M 432.5 361 L 443 361.5 L 432.5 362 L 432.5 361 Z " /><path fill="rgb(217,199,39)" stroke="rgb(217,199,39)" stroke-width="1" opacity="0.9137254901960784" d="M 465.5 361 L 469 361.5 L 465.5 362 L 465.5 361 Z " /><path fill="rgb(217,199,39)" stroke="rgb(217,199,39)" stroke-width="1" opacity="0.9137254901960784" d="M 107.5 362 L 108 364.5 L 107 364.5 L 107.5 362 Z " /><path fill="rgb(217,199,39)" stroke="rgb(217,199,39)" stroke-width="1" opacity="0.9137254901960784" d="M 227.5 362 L 228.5 364 Q 225.7 364.7 227.5 362 Z " /><path fill="rgb(217,199,39)" stroke="rgb(217,199,39)" stroke-width="1" opacity="0.9137254901960784" d="M 491.5 362 L 490.5 364 L 491.5 362 Z " /><path fill="rgb(217,199,39)" stroke="rgb(217,199,39)" stroke-width="1" opacity="0.9137254901960784" d="M 212.5 363 L 213 378.5 L 212 378.5 L 212.5 363 Z " /><path fill="rgb(217,199,39)" stroke="rgb(217,199,39)" stroke-width="1" opacity="0.9137254901960784" d="M 293.5 363 L 294 364.5 L 292 365.5 L 293.5 363 Z " /><path fill="rgb(217,199,39)" stroke="rgb(217,199,39)" stroke-width="1" opacity="0.9137254901960784" d="M 126.5 364 L 127 370.5 L 126 370.5 L 126.5 364 Z " /><path fill="rgb(217,199,39)" stroke="rgb(217,199,39)" stroke-width="1" opacity="0.9137254901960784" d="M 167.5 364 L 168 369 L 166 368.5 L 167.5 364 Z " /><path fill="rgb(217,199,39)" stroke="rgb(217,199,39)" stroke-width="1" opacity="0.9137254901960784" d="M 207.5 364 L 208 377.5 L 207 377.5 L 207.5 364 Z " /><path fill="rgb(217,199,39)" stroke="rgb(217,199,39)" stroke-width="1" opacity="0.9137254901960784" d="M 31.5 365 L 41 365.5 L 31 366 L 30.5 376 L 30 366.5 L 31.5 365 Z " /><path fill="rgb(217,199,39)" stroke="rgb(217,199,39)" stroke-width="1" opacity="0.9137254901960784" d="M 121.5 365 L 122.5 367 L 121.5 365 Z " /><path fill="rgb(217,199,39)" stroke="rgb(217,199,39)" stroke-width="1" opacity="0.9137254901960784" d="M 156.5 365 L 164 365 L 164 368.5 L 163 368.5 L 163 366 L 156.5 366 L 156.5 365 Z " /><path fill="rgb(217,199,39)" stroke="rgb(217,199,39)" stroke-width="1" opacity="0.9137254901960784" d="M 194.5 365 L 204 365 L 204 375.5 L 203 375.5 L 203 366 L 194.5 366 L 194.5 365 Z " /><path fill="rgb(217,199,39)" stroke="rgb(217,199,39)" stroke-width="1" opacity="0.9137254901960784" d="M 356.5 365 L 364 365.5 L 356.5 366 L 356.5 365 Z " /><path fill="rgb(217,199,39)" stroke="rgb(217,199,39)" stroke-width="1" opacity="0.9137254901960784" d="M 376.5 365 L 386 365.5 L 376.5 366 L 376.5 365 Z " /><path fill="rgb(217,199,39)" stroke="rgb(217,199,39)" stroke-width="1" opacity="0.9137254901960784" d="M 444.5 365 L 444 366.5 L 442.5 369 L 433 368.5 L 443 368 L 444.5 365 Z " /><path fill="rgb(217,199,39)" stroke="rgb(217,199,39)" stroke-width="1" opacity="0.9137254901960784" d="M 176.5 366 L 177 379.5 L 176 379.5 L 176.5 366 Z " /><path fill="rgb(217,199,39)" stroke="rgb(217,199,39)" stroke-width="1" opacity="0.9137254901960784" d="M 180.5 366 L 181 379.5 L 180 379.5 L 180.5 366 Z " /><path fill="rgb(217,199,39)" stroke="rgb(217,199,39)" stroke-width="1" opacity="0.9137254901960784" d="M 216.5 366 L 217 369.5 L 216 369.5 L 216.5 366 Z " /><path fill="rgb(217,199,39)" stroke="rgb(217,199,39)" stroke-width="1" opacity="0.9137254901960784" d="M 340.5 366 L 342 370.5 L 341 370.5 L 340.5 366 Z " /><path fill="rgb(217,199,39)" stroke="rgb(217,199,39)" stroke-width="1" opacity="0.9137254901960784" d="M 467.5 366 L 468 367.5 L 465.5 372 L 466 370.5 L 467.5 366 Z " /><path fill="rgb(217,199,39)" stroke="rgb(217,199,39)" stroke-width="1" opacity="0.9137254901960784" d="M 85.5 367 L 86 369 L 75 368.5 L 84.5 368 L 85.5 367 Z " /><path fill="rgb(217,199,39)" stroke="rgb(217,199,39)" stroke-width="1" opacity="0.9137254901960784" d="M 403.5 367 L 404.5 369 L 403.5 367 Z " /><path fill="rgb(217,199,39)" stroke="rgb(217,199,39)" stroke-width="1" opacity="0.9137254901960784" d="M 122.5 368 L 123 370 L 121 369.5 L 122.5 368 Z " /><path fill="rgb(217,199,39)" stroke="rgb(217,199,39)" stroke-width="1" opacity="0.9137254901960784" d="M 295.5 368 L 296 369.5 L 294.5 372 L 294 370.5 L 295.5 368 Z " /><path fill="rgb(217,199,39)" stroke="rgb(217,199,39)" stroke-width="1" opacity="0.9137254901960784" d="M 494.5 368 L 504.5 368 L 506 369.5 L 504.5 369 L 494.5 369 L 494.5 368 Z " /><path fill="rgb(217,199,39)" stroke="rgb(217,199,39)" stroke-width="1" opacity="0.9137254901960784" d="M 291.5 369 L 290.5 371 L 291.5 369 Z " /><path fill="rgb(217,199,39)" stroke="rgb(217,199,39)" stroke-width="1" opacity="0.9137254901960784" d="M 316.5 369 Q 318.8 368.3 318 370.5 L 316.5 369 Z " /><path fill="rgb(217,199,39)" stroke="rgb(217,199,39)" stroke-width="1" opacity="0.9137254901960784" d="M 323.5 369 L 324 379.5 L 323 379.5 Q 324.8 373.3 322 371.5 L 323.5 369 Z " /><path fill="rgb(217,199,39)" stroke="rgb(217,199,39)" stroke-width="1" opacity="0.9137254901960784" d="M 468.5 369 L 470 371.5 L 469 371.5 L 468.5 369 Z " /><path fill="rgb(217,199,39)" stroke="rgb(217,199,39)" stroke-width="1" opacity="0.9137254901960784" d="M 407.5 371 L 408.5 373 L 407.5 371 Z " /><path fill="rgb(217,199,39)" stroke="rgb(217,199,39)" stroke-width="1" opacity="0.9137254901960784" d="M 73 372 L 84 372.5 L 74 373 Q 75.1 375.7 72.5 375 L 73 373.5 L 73 372 Z " /><path fill="rgb(217,199,39)" stroke="rgb(217,199,39)" stroke-width="1" opacity="0.9137254901960784" d="M 166.5 372 Q 169 373 168 377.5 L 167 377.5 L 166.5 372 Z " /><path fill="rgb(217,199,39)" stroke="rgb(217,199,39)" stroke-width="1" opacity="0.9137254901960784" d="M 232.5 372 L 233 373.5 L 231 374.5 L 232.5 372 Z " /><path fill="rgb(217,199,39)" stroke="rgb(217,199,39)" stroke-width="1" opacity="0.9137254901960784" d="M 431.5 372 L 441 372.5 L 431.5 373 L 431.5 372 Z " /><path fill="rgb(217,199,39)" stroke="rgb(217,199,39)" stroke-width="1" opacity="0.9137254901960784" d="M 450.5 372 L 455 372.5 L 449.5 374 L 450.5 372 Z " /><path fill="rgb(217,199,39)" stroke="rgb(217,199,39)" stroke-width="1" opacity="0.9137254901960784" d="M 481.5 372 L 485 372.5 L 481.5 373 L 481.5 372 Z " /><path fill="rgb(217,199,39)" stroke="rgb(217,199,39)" stroke-width="1" opacity="0.9137254901960784" d="M 493.5 372 L 503 372.5 L 493.5 373 L 491.5 375 L 493.5 372 Z " /><path fill="rgb(217,199,39)" stroke="rgb(217,199,39)" stroke-width="1" opacity="0.9137254901960784" d="M 114.5 373 L 117 373.5 L 114.5 374 L 114.5 373 Z " /><path fill="rgb(217,199,39)" stroke="rgb(217,199,39)" stroke-width="1" opacity="0.9137254901960784" d="M 122.5 373 Q 125.1 372.2 124 375.5 L 123 375.5 L 122.5 373 Z " /><path fill="rgb(217,199,39)" stroke="rgb(217,199,39)" stroke-width="1" opacity="0.9137254901960784" d="M 163.5 373 L 164 375.5 L 163 375.5 L 163.5 373 Z " /><path fill="rgb(217,199,39)" stroke="rgb(217,199,39)" stroke-width="1" opacity="0.9137254901960784" d="M 216 373 L 219 373.5 L 217 374 L 216.5 379 L 216 373 Z " /><path fill="rgb(217,199,39)" stroke="rgb(217,199,39)" stroke-width="1" opacity="0.9137254901960784" d="M 224.5 373 L 227 373.5 L 224.5 374 L 224.5 373 Z " /><path fill="rgb(217,199,39)" stroke="rgb(217,199,39)" stroke-width="1" opacity="0.9137254901960784" d="M 303.5 373 L 304.5 375 L 303.5 373 Z " /><path fill="rgb(217,199,39)" stroke="rgb(217,199,39)" stroke-width="1" opacity="0.9137254901960784" d="M 403.5 373 L 404.5 375 Q 401.7 375.7 403.5 373 Z " /><path fill="rgb(217,199,39)" stroke="rgb(217,199,39)" stroke-width="1" opacity="0.9137254901960784" d="M 332.5 374 L 333 375.5 L 331 376.5 L 332.5 374 Z " /><path fill="rgb(217,199,39)" stroke="rgb(217,199,39)" stroke-width="1" opacity="0.9137254901960784" d="M 455.5 374 L 456 377.5 L 455 377.5 L 455.5 374 Z " /><path fill="rgb(217,199,39)" stroke="rgb(217,199,39)" stroke-width="1" opacity="0.9137254901960784" d="M 235.5 376 L 243 376.5 L 235 377 L 234.5 379 L 234 377.5 L 235.5 376 Z " /><path fill="rgb(217,199,39)" stroke="rgb(217,199,39)" stroke-width="1" opacity="0.9137254901960784" d="M 292.5 376 L 300 376.5 L 292.5 377 L 292.5 376 Z " /><path fill="rgb(217,199,39)" stroke="rgb(217,199,39)" stroke-width="1" opacity="0.9137254901960784" d="M 336.5 376 L 345 376.5 L 336.5 377 L 336.5 376 Z " /><path fill="rgb(217,199,39)" stroke="rgb(217,199,39)" stroke-width="1" opacity="0.9137254901960784" d="M 463.5 376 L 471 376.5 L 463.5 377 L 463.5 376 Z " /><path fill="rgb(217,199,39)" stroke="rgb(217,199,39)" stroke-width="1" opacity="0.9137254901960784" d="M 21.5 377 L 19.5 380 L 21.5 377 Z " /><path fill="rgb(217,199,39)" stroke="rgb(217,199,39)" stroke-width="1" opacity="0.9137254901960784" d="M 44.5 377 L 45 378.5 L 43 379.5 L 44.5 377 Z " /><path fill="rgb(217,199,39)" stroke="rgb(217,199,39)" stroke-width="1" opacity="0.9137254901960784" d="M 406.5 377 Q 408.8 376.3 408 378.5 L 406.5 377 Z " /><path fill="rgb(217,199,39)" stroke="rgb(217,199,39)" stroke-width="1" opacity="0.9137254901960784" d="M 62.5 378 L 63.5 380 Q 60.7 380.7 62.5 378 Z " /><path fill="rgb(217,199,39)" stroke="rgb(217,199,39)" stroke-width="1" opacity="0.9137254901960784" d="M 249.5 378 L 250 380 L 248 379.5 L 249.5 378 Z " /><path fill="rgb(217,199,39)" stroke="rgb(217,199,39)" stroke-width="1" opacity="0.9137254901960784" d="M 335.5 378 L 334.5 380 L 335.5 378 Z " /><path fill="rgb(217,199,39)" stroke="rgb(217,199,39)" stroke-width="1" opacity="0.9137254901960784" d="M 372.5 378 Q 374.8 377.3 374 379.5 L 372.5 378 Z " /><path fill="rgb(217,199,39)" stroke="rgb(217,199,39)" stroke-width="1" opacity="0.9137254901960784" d="M 166.5 379 L 167.5 381 L 166.5 379 Z " /><path fill="rgb(217,199,39)" stroke="rgb(217,199,39)" stroke-width="1" opacity="0.9137254901960784" d="M 477.5 379 L 478.5 381 L 477.5 379 Z " /><path fill="rgb(12,11,8)" stroke="rgb(12,11,8)" stroke-width="1" opacity="0.9803921568627451" d="M 164.5 128 L 179.5 129 Q 189.8 132.7 196 140.5 L 204 154.5 L 207 168.5 L 207 243 L 156 243 L 156 218.5 L 155 218.5 L 141 247.5 L 141 250 L 207 250 L 207 339 L 156 339 L 156 294 L 118 294 L 95.5 338 L 95 332.5 L 117.5 291 L 159 291 L 159 335 L 204 335 L 204 253 L 136.5 253 L 136 251.5 L 157.5 209 L 158 238.5 L 159.5 240 L 204 240 L 204 164.5 Q 200.3 146.3 187.5 137 Q 180.1 130.4 165.5 131 Q 151.1 134.1 144 144.5 L 139 151.5 L 90 243 L 87 242.5 L 136 151.5 L 142.5 142 Q 144.8 142.8 144 140.5 Q 150.9 130.9 164.5 128 Z " /><path fill="rgb(12,11,8)" stroke="rgb(12,11,8)" stroke-width="1" opacity="0.9803921568627451" d="M 20.5 130 L 65.5 130 L 74.5 132 L 79 136.5 L 81 144.5 L 81 159 L 70 161 L 70 140 L 16 140 L 16 211 L 70 211 L 70 188.5 L 73.5 188 L 81 190 L 81 206.5 L 79 214.5 L 76.5 218 L 67.5 221 L 18.5 221 L 11.5 219 L 7 214.5 L 5 205.5 L 5 146.5 Q 7.5 145 6 139.5 L 11.5 132 L 20.5 130 Z " /><path fill="rgb(12,11,8)" stroke="rgb(12,11,8)" stroke-width="1" opacity="0.9803921568627451" d="M 163.5 151 L 175.5 152 L 184 159.5 L 189 173.5 L 189 229.5 L 188 229.5 L 188 174.5 L 184 161.5 L 177.5 155 L 174.5 153 L 165.5 152 Q 154.9 155.4 149 163.5 L 137 182.5 L 95.5 261 L 95 258.5 L 140 174.5 Q 145.8 163.8 154.5 156 L 163.5 151 Z " /><path fill="rgb(12,11,8)" stroke="rgb(12,11,8)" stroke-width="1" opacity="0.9803921568627451" d="M 165.5 157 L 171.5 157 L 180 163.5 Q 185.7 170.1 184 183 L 180 181.5 L 181 178.5 L 179 170.5 L 174.5 164 L 167.5 162 L 157.5 168 L 156 164.5 L 165.5 157 Z " /><path fill="rgb(12,11,8)" stroke="rgb(12,11,8)" stroke-width="1" opacity="0.9803921568627451" d="M 165.5 167 Q 172.8 165.8 174 170.5 L 176 176.5 L 176 229.5 L 175 229.5 L 175 176.5 Q 173.8 170.8 169.5 168 L 164.5 169 L 157 176.5 L 147 192.5 L 95.5 290 L 95 287.5 L 149 186.5 Q 154.8 175.8 163.5 168 L 165.5 167 Z " /><path fill="rgb(12,11,8)" stroke="rgb(12,11,8)" stroke-width="1" opacity="0.9803921568627451" d="M 144.5 179 L 148 182.5 L 146 184.5 L 133.5 208 Q 130.5 207.5 131 203.5 L 144.5 179 Z " /><path fill="rgb(12,11,8)" stroke="rgb(12,11,8)" stroke-width="1" opacity="0.9803921568627451" d="M 180.5 193 L 184 193.5 L 184 230 L 180 230 L 180 228.5 L 181 227.5 L 181 194.5 L 180.5 193 Z " /><path fill="rgb(12,11,8)" stroke="rgb(12,11,8)" stroke-width="1" opacity="0.9803921568627451" d="M 119.5 226 L 122 229.5 L 105.5 260 Q 102.5 259.5 103 255.5 L 119.5 226 Z " /><path fill="rgb(12,11,8)" stroke="rgb(12,11,8)" stroke-width="1" opacity="0.9803921568627451" d="M 5 246 L 14.5 246 L 16 247.5 L 49.5 306 Q 51.8 306.8 51 304.5 L 82.5 246 L 92.5 246 L 93 246.5 L 93 336 L 83.5 336 L 83 335.5 L 83 261.5 L 81 262.5 L 78 273.5 L 51 322 L 47 320.5 L 19 272.5 L 14.5 257 L 14 336 L 5.5 336 L 5 335.5 L 5 246 Z " /><path fill="rgb(12,11,8)" stroke="rgb(12,11,8)" stroke-width="1" opacity="0.9803921568627451" d="M 233.5 246 L 288.5 246 L 296 250.5 L 299 260.5 L 299 274 L 288 276 L 288 256 L 234 256 L 234 326 L 288 326 L 288 303.5 L 290.5 303 L 299 306.5 L 298 327.5 L 293.5 334 L 288.5 336 L 233.5 336 L 227 333 L 224 326.5 Q 225.5 321 223 319.5 L 223 262.5 Q 225.5 261 224 255.5 L 227 249 L 233.5 246 Z " /><path fill="rgb(12,11,8)" stroke="rgb(12,11,8)" stroke-width="1" opacity="0.9803921568627451" d="M 328.5 246 L 393.5 246 L 400 249.5 L 403 255.5 Q 401.3 261.8 404 263.5 L 404 318.5 Q 401.3 320.3 403 326.5 L 400 333 L 393.5 336 L 328.5 336 L 321 331.5 L 318 321.5 L 318 260.5 Q 320.3 259.3 319 254.5 L 323.5 248 L 328.5 246 Z M 329 256 L 329 326 L 393 326 L 393 256 L 329 256 Z " /><path fill="rgb(12,11,8)" stroke="rgb(12,11,8)" stroke-width="1" opacity="0.9803921568627451" d="M 423 246 L 429.5 246 L 431 247.5 L 489 311.5 L 495.5 322 L 496 316.5 L 495 315.5 L 495 246 L 503.5 246 L 504 246.5 L 504 336 L 498.5 336 L 493 330.5 L 440 271.5 L 431.5 258 L 431 264.5 L 432 265.5 L 432 336 L 423.5 336 L 423 335.5 L 423 246 Z " /><path fill="rgb(12,11,8)" stroke="rgb(12,11,8)" stroke-width="1" opacity="0.9803921568627451" d="M 80.5 287 L 81 288.5 L 60.5 326 L 60 324.5 L 80.5 287 Z " /><path fill="rgb(12,11,8)" stroke="rgb(12,11,8)" stroke-width="1" opacity="0.9803921568627451" d="M 80.5 298 L 81 306.5 L 69.5 327 Q 66.5 326.5 67 322.5 L 80.5 298 Z " /><path fill="rgb(12,11,8)" stroke="rgb(12,11,8)" stroke-width="1" opacity="0.9803921568627451" d="M 44.5 320 L 46 323.5 L 40 335 L 80.5 335 L 81 339 L 35.5 339 L 35 336.5 L 44.5 320 Z " /><path fill="rgb(12,11,8)" stroke="rgb(12,11,8)" stroke-width="1" opacity="0.9803921568627451" d="M 5.5 358 L 18.5 358 L 21 360.5 Q 23.4 368.3 17 366 L 17 362 L 8.5 362 L 7 363.5 L 7 375 L 17 375 Q 14.9 369.8 19.5 371 Q 22.3 372.3 21 377.5 L 18.5 380 L 13.5 379 L 9.5 380 L 5.5 380 L 3 377.5 L 4 376.5 L 4 361.5 Q 1.2 359.7 5.5 358 Z " /><path fill="rgb(12,11,8)" stroke="rgb(12,11,8)" stroke-width="1" opacity="0.9803921568627451" d="M 267.5 358 L 280.5 358 L 283 360.5 L 282 363.5 Q 284.3 364.8 281.5 366 Q 277.8 367.3 279 363.5 L 277.5 362 L 269 362 L 269 375 L 279 375 L 279 371 L 280.5 371 L 283 377.5 L 280.5 380 L 278.5 380 L 271.5 379 L 269.5 380 L 267.5 380 L 265 377.5 L 265 360.5 L 267.5 358 Z " /><path fill="rgb(12,11,8)" stroke="rgb(12,11,8)" stroke-width="1" opacity="0.9803921568627451" d="M 28.5 362 L 42.5 362 L 44 363.5 L 44 378.5 L 42.5 380 L 39.5 379 L 29.5 380 L 27 377.5 L 27 363.5 L 28.5 362 Z M 32 365 L 30 367 L 30 376 L 41 376 L 41 365 L 32 365 Z " /><path fill="rgb(12,11,8)" stroke="rgb(12,11,8)" stroke-width="1" opacity="0.9803921568627451" d="M 50 362 L 53 362 L 53 364 Q 55.7 362.9 55 365.5 L 58 367 L 59.5 370 Q 61.8 369.3 61 371.5 L 63 372.5 L 63 362.5 L 66 362 L 65.5 380 L 53.5 369 L 53 378.5 L 51.5 380 L 50 379.5 L 50 362 Z " /><path fill="rgb(12,11,8)" stroke="rgb(12,11,8)" stroke-width="1" opacity="0.9803921568627451" d="M 73.5 362 L 85.5 362 L 87 363.5 L 85.5 367 L 84 367 L 83.5 365 L 75 365 L 75 369 L 85.5 369 Q 88.8 370.8 87 377.5 L 86 380 L 76.5 380 L 74.5 379 Q 73.3 381.3 72 378.5 Q 70.5 374.1 73.5 375 L 74.5 376 L 84 376 L 84 372 L 73.5 372 Q 70.3 370.3 72 363.5 L 73.5 362 Z " /><path fill="rgb(12,11,8)" stroke="rgb(12,11,8)" stroke-width="1" opacity="0.9803921568627451" d="M 91 362 L 106.5 362 L 107 365 L 101 365 L 101 378.5 L 98.5 380 L 97 378.5 L 97 365 L 91 365 L 91 362 Z " /><path fill="rgb(12,11,8)" stroke="rgb(12,11,8)" stroke-width="1" opacity="0.9803921568627451" d="M 111 362 L 124.5 362 L 126 363.5 L 126 371.5 L 124.5 373 L 122 373.5 L 123 376 Q 125.7 374.9 125 377.5 L 126.5 380 L 123.5 379 L 122 379.5 L 120 376.5 Q 118.7 372.2 114 373 L 114 379.5 L 112.5 380 L 111 378.5 L 111 362 Z M 114 365 L 114 370 L 123 370 L 123 367 L 122 365 L 114 365 Z " /><path fill="rgb(12,11,8)" stroke="rgb(12,11,8)" stroke-width="1" opacity="0.9803921568627451" d="M 131 362 L 134 362.5 L 134 376 L 143 376 L 143 362.5 L 147 362 L 147 376.5 L 144.5 380 L 142.5 379 Q 141 381.5 135.5 380 L 133.5 380 L 131 378.5 L 131 362 Z " /><path fill="rgb(12,11,8)" stroke="rgb(12,11,8)" stroke-width="1" opacity="0.9803921568627451" d="M 153.5 362 L 165.5 362 L 167 363.5 Q 168 368 165.5 369 L 164 369 L 164 365 L 156 365 L 156 376 L 164 376 Q 162.5 371.5 167 373 Q 168.5 378.4 165.5 380 L 162.5 379 L 156.5 380 L 154.5 380 L 152 377.5 L 152 363.5 L 153.5 362 Z " /><path fill="rgb(12,11,8)" stroke="rgb(12,11,8)" stroke-width="1" opacity="0.9803921568627451" d="M 171 362 L 186.5 362 L 187 365 Q 181.6 363.5 180 366.5 L 179.5 380 L 177 379.5 L 177 365.5 L 176.5 365 L 171 365 L 171 362 Z " /><path fill="rgb(12,11,8)" stroke="rgb(12,11,8)" stroke-width="1" opacity="0.9803921568627451" d="M 192.5 362 L 207 362 L 207 378.5 L 203.5 380 Q 196.7 381.3 193.5 379 Q 192.3 381.3 191 378.5 L 190 376.5 L 190 364.5 L 192.5 362 Z M 194 365 L 194 376 L 204 376 L 204 365 L 194 365 Z " /><path fill="rgb(12,11,8)" stroke="rgb(12,11,8)" stroke-width="1" opacity="0.9803921568627451" d="M 213 362 L 226.5 362 L 227 363.5 Q 229.8 365.3 228 371.5 L 224 373.5 L 226 377 L 229 378.5 L 228.5 380 L 226.5 380 Q 223.2 381.1 224 378.5 L 218.5 373 L 216 373 L 215.5 380 L 213 379.5 L 213 362 Z M 218 365 Q 215 366 216 370 L 225 370 L 225 367 Q 223 363 218 365 Z " /><path fill="rgb(12,11,8)" stroke="rgb(12,11,8)" stroke-width="1" opacity="0.9803921568627451" d="M 238.5 362 L 242 363.5 L 249 378.5 L 245.5 380 L 244 376 L 235.5 376 L 234 377.5 L 232.5 380 L 230 379.5 L 238.5 362 Z M 240 366 L 237 371 L 237 373 L 242 373 L 240 366 Z " /><path fill="rgb(12,11,8)" stroke="rgb(12,11,8)" stroke-width="1" opacity="0.9803921568627451" d="M 294 362 Q 297.8 361 299 363.5 L 306 379.5 L 302 380 L 301 376 L 292.5 376 L 292 377.5 Q 290.2 381.7 288.5 379 L 287 378.5 Q 292.4 371.5 294 362 Z M 297 367 L 294 373 Q 298 374 299 372 L 297 367 Z " /><path fill="rgb(12,11,8)" stroke="rgb(12,11,8)" stroke-width="1" opacity="0.9803921568627451" d="M 309 362 L 313 363.5 L 317.5 371 L 320 369.5 L 324 362 L 327 362.5 L 327 379.5 L 324 379.5 L 323.5 369 L 318.5 377 Q 316.3 377.8 317 375.5 L 312.5 370 L 312 378.5 L 310.5 380 L 309 378.5 L 309 362 Z " /><path fill="rgb(12,11,8)" stroke="rgb(12,11,8)" stroke-width="1" opacity="0.9803921568627451" d="M 338 362 Q 341.8 361 343 363.5 L 350 379.5 L 348.5 379 L 346.5 380 L 345 376 L 336.5 376 L 335 377.5 L 333.5 380 L 331 379.5 L 338 362 Z M 341 366 L 338 371 L 338 373 L 343 373 L 341 366 Z " /><path fill="rgb(12,11,8)" stroke="rgb(12,11,8)" stroke-width="1" opacity="0.9803921568627451" d="M 354.5 362 L 366.5 362 L 368 363.5 Q 369 368 366.5 369 Q 363.9 369.8 365 366.5 L 363.5 365 L 356 365 L 356 376 L 365 376 Q 363.5 371.5 368 373 Q 369.5 378.4 366.5 380 L 364.5 379 L 361.5 380 L 358.5 379 L 356.5 380 L 353 378.5 L 353 363.5 L 354.5 362 Z " /><path fill="rgb(12,11,8)" stroke="rgb(12,11,8)" stroke-width="1" opacity="0.9803921568627451" d="M 374.5 362 L 388.5 362 L 390 363.5 L 390 377.5 L 387.5 380 L 382.5 379 Q 381.3 381.3 376.5 380 L 374 379.5 L 373 377.5 L 373 363.5 L 374.5 362 Z M 376 365 L 376 376 L 387 376 L 387 367 L 386 365 L 376 365 Z " /><path fill="rgb(12,11,8)" stroke="rgb(12,11,8)" stroke-width="1" opacity="0.9803921568627451" d="M 395 362 L 397.5 362 L 408.5 373 L 409 362 L 412 362.5 L 412 378.5 L 409.5 380 L 408 377 L 405 375.5 L 403.5 373 Q 401.3 373.8 402 371.5 L 399 369.5 L 399 378.5 L 397.5 380 L 395 378.5 L 395 362 Z " /><path fill="rgb(12,11,8)" stroke="rgb(12,11,8)" stroke-width="1" opacity="0.9803921568627451" d="M 431.5 362 L 443.5 362 L 444 365.5 L 441 367 L 440.5 365 L 433 365 L 433 369 L 443.5 369 L 444 370.5 Q 446.3 371.8 445 376.5 L 442.5 380 L 440.5 380 Q 434.3 381.7 432.5 379 L 430.5 379 L 429 378.5 L 429 376.5 L 430.5 374 L 432 374 L 432.5 376 L 441 376 L 441 372 L 431.5 372 Q 428.4 370.6 429 365.5 L 431.5 362 Z " /><path fill="rgb(12,11,8)" stroke="rgb(12,11,8)" stroke-width="1" opacity="0.9803921568627451" d="M 466.5 362 Q 471.3 360.3 470 364.5 L 472 366.5 L 477 379.5 L 474.5 380 L 473 378.5 L 471.5 376 L 463.5 376 L 463 377.5 L 461.5 380 L 459 379.5 L 460 374.5 L 466.5 362 Z M 468 366 L 465 372 L 465 373 L 470 373 L 468 366 Z " /><path fill="rgb(12,11,8)" stroke="rgb(12,11,8)" stroke-width="1" opacity="0.9803921568627451" d="M 492.5 362 L 504.5 362 L 506 363.5 L 504.5 367 Q 501.4 363.4 494 365 L 494 369 L 504.5 369 Q 507.8 370.8 506 377.5 Q 504.5 381.5 497.5 380 L 495.5 380 L 493.5 379 Q 491.8 381.7 490 377.5 L 492.5 374 L 493 376 L 503 376 L 503 372 L 491 372 L 491 363.5 L 492.5 362 Z " /><path fill="rgb(12,11,8)" stroke="rgb(12,11,8)" stroke-width="1" opacity="0.9803921568627451" d="M 450 373 Q 457.5 370.3 455 378.5 L 452.5 380 L 450 379.5 L 450 373 Z " /><path fill="rgb(12,11,8)" stroke="rgb(12,11,8)" stroke-width="1" opacity="0.9803921568627451" d="M 480 373 L 485 373 L 485 379.5 L 482.5 380 L 480 378.5 L 480 373 Z " /></svg>